<?xml version="1.0" standalone="no"?>
<!DOCTYPE svg PUBLIC "-//W3C//DTD SVG 20010904//EN"
 "http://www.w3.org/TR/2001/REC-SVG-20010904/DTD/svg10.dtd">
<svg version="1.0" xmlns="http://www.w3.org/2000/svg"
 width="300.000000pt" height="201.000000pt" viewBox="0 0 300.000000 201.000000"
 preserveAspectRatio="xMidYMid meet">
<metadata>
Created by potrace 1.10, written by Peter Selinger 2001-2011
</metadata>
<g transform="translate(0.000000,201.000000) scale(0.100000,-0.100000)"
fill="#000000" stroke="none">
<path d="M1105 1939 c-11 -4 -15 -8 -8 -8 7 -1 10 -8 6 -18 -5 -15 -3 -15 11
2 13 14 16 15 13 4 -3 -9 -1 -22 4 -30 7 -12 9 -12 10 1 0 8 2 24 4 36 5 22
-8 26 -40 13z"/>
<path d="M1174 1905 c-2 -47 10 -32 15 18 1 5 6 5 11 2 6 -3 10 -1 10 4 0 6
-8 11 -17 11 -14 0 -18 -9 -19 -35z"/>
<path d="M1035 1908 c-22 -5 -74 -18 -116 -28 -68 -17 -88 -27 -175 -95 -55
-42 -118 -95 -141 -117 -38 -35 -42 -44 -41 -82 1 -47 12 -75 25 -63 4 5 3 11
-2 15 -9 6 -12 48 -7 90 1 6 9 12 17 12 11 0 12 -6 6 -22 -9 -25 -4 -48 9 -48
5 0 8 13 8 29 -1 15 2 33 6 39 3 6 0 13 -6 15 -8 3 -7 6 4 6 9 1 21 9 27 18
14 26 25 9 11 -17 -21 -40 -21 -82 1 -101 14 -12 16 -18 7 -21 -10 -4 -10 -10
1 -31 8 -14 19 -24 24 -20 6 3 7 1 3 -6 -7 -12 28 -70 51 -84 7 -5 11 -12 8
-18 -4 -5 -2 -9 3 -9 18 0 23 33 7 42 -8 5 -15 15 -15 21 0 7 -9 19 -20 27
-11 8 -20 20 -20 27 0 6 -9 18 -21 26 -12 9 -16 17 -10 21 7 4 7 15 1 30 -10
27 -8 121 3 132 12 13 18 -2 19 -49 0 -42 2 -45 19 -36 14 7 16 15 10 32 -5
12 -7 33 -5 47 1 14 3 30 3 36 1 5 7 19 15 30 13 17 14 15 9 -23 -3 -23 -2
-58 1 -79 7 -33 9 -35 23 -21 13 13 14 23 5 57 -5 22 -9 49 -7 58 2 9 4 23 4
30 2 23 21 12 21 -13 0 -18 4 -23 15 -19 9 4 15 11 14 18 -3 28 2 54 15 72 13
17 14 15 10 -24 -2 -30 1 -48 11 -59 11 -10 13 -19 6 -27 -7 -8 -5 -12 8 -13
17 -1 18 2 8 33 -10 34 4 114 21 114 4 0 7 -26 7 -57 1 -85 8 -123 22 -123 7
0 10 -6 8 -13 -3 -7 7 -26 22 -43 17 -18 28 -41 28 -59 0 -31 -20 -48 -20 -17
-1 18 -18 18 -45 1 -11 -7 -9 -8 10 -4 l25 6 -25 -15 -25 -15 31 -1 c28 0 44
-14 48 -41 2 -10 34 -39 45 -39 6 0 15 9 21 21 7 11 14 18 17 15 3 -3 -2 -18
-11 -33 l-17 -28 20 23 c20 23 37 30 25 10 -5 -7 -3 -8 5 -3 10 5 7 13 -9 29
-15 14 -24 17 -27 9 -3 -10 -10 -9 -26 2 -12 8 -26 15 -32 16 -15 2 -6 22 18
41 24 19 52 24 42 8 -10 -16 22 -12 39 5 12 12 20 13 35 5 26 -13 29 -13 40 8
7 13 2 33 -20 77 -16 33 -29 65 -29 72 0 7 -7 13 -16 13 -8 0 -12 5 -9 10 3 6
-1 13 -10 16 -9 4 -14 13 -11 20 3 7 1 16 -3 19 -11 6 -9 95 2 113 9 14 7 14
-48 0z m-10 -28 c-3 -5 -3 -16 1 -22 5 -7 7 -29 6 -48 -2 -24 0 -31 6 -21 6 8
12 10 16 3 4 -6 -2 -16 -11 -22 -16 -10 -15 -10 5 -5 12 4 22 4 22 0 0 -3 -10
-10 -22 -15 l-23 -9 24 0 c20 -1 22 -3 11 -16 -11 -13 -10 -14 5 -9 13 5 16 4
11 -4 -4 -7 -1 -12 9 -12 8 0 21 -11 27 -25 6 -14 16 -25 21 -25 5 0 4 -7 -3
-15 -7 -8 -10 -23 -8 -33 4 -15 -1 -18 -29 -19 -31 -1 -32 0 -16 13 11 8 13
13 6 14 -7 0 -22 -9 -33 -20 -29 -29 -48 -26 -42 7 4 20 2 25 -10 21 -10 -4
-14 1 -14 16 1 12 -4 20 -12 18 -8 -1 -12 3 -10 10 3 7 -1 19 -9 26 -7 8 -11
18 -8 23 4 5 2 9 -2 9 -5 0 -7 19 -5 41 3 29 1 40 -7 35 -6 -4 -11 -2 -11 3 0
6 4 11 9 11 5 0 12 17 17 38 4 22 9 30 11 20 3 -10 10 -18 16 -18 7 0 6 -4 -3
-10 -18 -11 -9 -23 12 -15 9 4 18 19 22 36 3 16 10 29 16 29 6 0 8 -4 5 -10z"/>
<path d="M978 1806 c-20 -15 -24 -41 -8 -51 6 -4 9 -1 8 7 -2 7 4 12 13 12 12
-1 16 6 15 22 -1 27 -4 28 -28 10z"/>
<path d="M1023 1688 c-27 -13 -31 -38 -6 -38 9 0 13 3 10 7 -4 3 0 15 10 25
18 20 17 21 -14 6z"/>
<path d="M1440 1904 c-8 -8 -9 -14 -4 -13 22 4 29 -3 30 -26 2 -21 -1 -23 -17
-14 -13 6 -19 6 -19 -1 0 -5 6 -10 14 -10 18 0 26 -21 21 -62 -2 -18 -1 -27 2
-20 2 6 14 13 26 13 17 1 18 2 5 6 -10 3 -18 14 -18 26 0 18 2 19 11 7 9 -13
10 -13 6 0 -2 8 -9 14 -14 13 -5 -1 -10 11 -10 27 0 16 4 27 9 24 4 -3 11 2
14 11 4 9 16 21 28 25 16 7 17 9 4 9 -9 1 -24 -9 -32 -21 l-16 -22 0 22 c0 25
-22 29 -40 6z"/>
<path d="M1635 1900 c-4 -6 -4 -14 -1 -17 3 -3 0 -13 -6 -22 -7 -9 -2 -7 11 4
13 11 26 19 29 17 4 -2 8 1 10 7 2 6 -1 11 -8 11 -6 0 -8 -6 -5 -12 4 -7 0 -5
-8 5 -10 12 -17 15 -22 7z"/>
<path d="M1673 1861 c-13 -11 -23 -23 -23 -27 0 -4 5 -3 12 4 20 20 40 15 29
-7 -8 -14 -7 -20 2 -24 8 -3 12 4 11 22 -1 14 -3 28 -4 31 -1 3 -2 8 -1 13 1
10 -1 9 -26 -12z"/>
<path d="M1865 1870 c4 -6 12 -10 18 -9 7 1 19 1 27 0 13 -1 13 -2 0 -11 -12
-8 -12 -10 -1 -10 11 0 10 -4 -3 -19 -15 -16 -15 -19 -1 -24 8 -4 15 -11 15
-17 0 -6 -4 -9 -9 -5 -5 3 -12 1 -16 -5 -4 -6 -12 -7 -18 -4 -8 4 -7 2 1 -7
11 -12 14 -12 22 1 9 13 10 13 11 0 1 -8 0 -22 -1 -30 -4 -27 11 -3 16 26 3
15 8 32 11 37 3 6 1 7 -5 3 -16 -10 -25 13 -12 29 18 22 23 19 45 -22 10 -21
29 -51 40 -68 43 -59 50 -83 70 -250 4 -27 14 -56 22 -62 15 -11 14 -13 -1
-19 -10 -4 -15 -13 -11 -24 3 -10 2 -21 -3 -24 -15 -9 8 -137 29 -164 10 -13
16 -28 13 -33 -3 -5 0 -9 6 -9 6 0 8 -5 5 -11 -11 -17 4 -59 19 -53 10 4 14
-6 14 -38 1 -24 6 -58 12 -77 5 -19 8 -37 5 -39 -2 -3 0 -13 6 -23 6 -13 6
-19 -1 -19 -5 0 -10 6 -10 14 0 8 -8 13 -17 12 -13 -1 -17 5 -15 22 2 13 -3
25 -13 28 -12 5 -16 19 -15 58 1 46 -5 94 -12 102 -2 1 -4 -65 -5 -147 -1
-136 6 -183 20 -128 3 12 10 18 17 14 6 -4 9 -14 6 -22 -4 -11 -1 -13 14 -8
14 5 20 2 20 -10 0 -11 -6 -15 -17 -11 -14 4 -23 -6 -39 -39 -15 -31 -18 -45
-10 -48 7 -3 20 13 30 36 13 31 20 37 27 26 6 -9 4 -18 -6 -25 -8 -6 -12 -14
-9 -17 3 -3 2 -12 -2 -19 -10 -15 -14 -38 -8 -38 9 0 44 85 44 108 0 12 5 22
11 22 12 0 3 -59 -11 -74 -5 -5 -6 -14 -4 -20 3 -7 -6 -24 -20 -39 -14 -15
-21 -29 -17 -32 16 -9 51 43 63 93 7 29 16 52 20 52 10 0 7 -60 -4 -66 -4 -3
-6 -9 -3 -14 8 -13 -23 -70 -37 -70 -7 0 -8 -17 -4 -52 6 -48 5 -50 -7 -28
-15 29 -47 40 -47 16 0 -9 4 -16 8 -16 11 0 44 -82 36 -89 -3 -3 -13 4 -22 16
-12 16 -21 20 -32 13 -12 -8 -12 -11 3 -28 19 -20 23 -42 8 -42 -6 0 -13 5
-16 10 -4 6 -11 7 -17 4 -7 -4 -8 -2 -4 5 4 6 0 14 -9 17 -25 10 -30 -4 -10
-26 11 -12 15 -26 10 -37 -6 -16 -10 -14 -36 15 -17 19 -33 31 -37 27 -4 -3 1
-11 11 -16 21 -12 23 -33 2 -25 -13 4 -13 2 -5 -14 5 -10 10 -21 10 -24 0 -11
-19 -6 -33 9 -13 13 -16 13 -21 -1 -3 -8 -10 -13 -15 -10 -5 3 -12 -1 -15 -10
-4 -9 -13 -14 -21 -10 -24 9 -68 -12 -61 -29 5 -14 2 -14 -24 0 -18 9 -31 11
-35 5 -3 -6 -16 -10 -28 -10 -21 -1 -22 -1 -3 -15 27 -21 16 -27 -17 -10 -22
11 -33 12 -52 3 -26 -12 -34 -28 -13 -28 6 0 9 -2 6 -5 -3 -3 -21 2 -42 10
-27 12 -35 12 -34 3 3 -15 -45 -13 -50 2 -2 6 -8 10 -14 10 -6 0 -3 -9 7 -20
17 -18 16 -19 -10 -26 -15 -4 -35 -8 -44 -8 -9 -1 -36 -8 -61 -15 -82 -24 -94
-26 -189 -25 -66 0 -96 3 -99 12 -2 7 -8 10 -13 6 -5 -3 -9 0 -9 7 0 7 -3 10
-6 6 -9 -8 -33 16 -26 27 3 5 0 6 -5 3 -6 -4 -14 0 -17 9 -8 22 -8 26 4 19 6
-3 10 -1 10 5 0 7 -14 17 -30 23 -21 8 -29 16 -25 26 3 9 3 12 -1 8 -12 -11
-33 13 -27 31 3 11 2 13 -4 5 -6 -8 -13 -3 -25 18 -20 34 -14 36 25 11 15 -10
24 -23 20 -27 -5 -5 -1 -4 8 3 9 6 18 9 21 7 11 -11 96 -17 102 -7 3 6 -2 8
-14 5 -20 -5 -115 20 -163 44 -21 11 -28 20 -24 34 4 15 2 17 -11 10 -12 -7
-19 -3 -29 16 -17 33 -14 35 28 23 31 -9 32 -8 15 5 -11 8 -26 15 -33 15 -7 0
-13 5 -13 11 0 5 -5 7 -10 4 -6 -4 -8 -11 -5 -16 4 -5 1 -9 -5 -9 -6 0 -10 6
-9 13 3 25 -1 38 -11 32 -5 -3 -10 -2 -10 3 0 5 -9 19 -20 32 -24 28 -26 42
-4 33 11 -4 8 3 -7 19 -13 13 -27 23 -30 21 -8 -3 -35 58 -31 70 1 4 -5 10
-13 13 -8 4 -15 13 -15 21 0 8 -4 11 -10 8 -6 -3 -7 1 -4 9 3 9 1 16 -5 16 -6
0 -11 6 -11 14 0 8 -3 16 -7 19 -5 2 -1 2 7 -1 46 -14 50 -10 11 10 -28 15
-52 38 -68 65 l-25 42 62 -25 c34 -14 67 -23 74 -21 6 3 -2 8 -19 12 -49 12
-130 63 -145 90 -16 31 -9 40 20 25 12 -6 24 -9 28 -6 3 4 -12 13 -34 22 -28
11 -44 25 -52 46 -11 29 -10 30 14 24 13 -4 24 -2 24 4 0 5 -9 10 -19 10 -22
0 -61 49 -61 75 0 10 6 15 13 12 43 -16 59 -18 53 -8 -4 6 -14 11 -22 11 -22
0 -70 52 -76 82 -4 24 -3 26 13 17 13 -6 19 -6 19 1 0 5 -4 10 -8 10 -9 0 -32
44 -32 60 0 6 10 10 22 10 l22 0 -22 16 c-12 8 -20 20 -17 25 4 5 0 9 -8 9
-11 0 -12 -18 -9 -87 3 -49 11 -97 18 -108 7 -11 16 -38 20 -60 4 -22 13 -49
20 -60 8 -12 15 -30 17 -40 4 -28 45 -112 80 -163 16 -24 27 -46 24 -49 -3 -3
-2 -10 4 -17 21 -25 57 -85 64 -105 3 -12 11 -21 16 -21 5 0 9 -9 9 -20 0 -11
6 -20 14 -20 9 0 13 -9 11 -25 -1 -14 0 -23 3 -21 2 3 18 -13 34 -36 24 -32
27 -42 16 -49 -10 -7 -10 -9 3 -9 14 0 99 -111 99 -130 0 -5 4 -10 8 -12 13
-5 62 -74 62 -88 0 -7 -7 -10 -15 -6 -8 3 -15 1 -15 -5 0 -6 -6 -7 -12 -3 -7
4 -10 3 -5 -1 9 -11 57 -13 51 -3 -3 4 -1 8 4 8 5 0 12 -9 15 -20 3 -12 14
-20 29 -21 12 0 18 -3 11 -5 -17 -7 62 -117 90 -126 12 -3 56 -6 97 -7 153 -2
688 141 828 221 88 50 115 86 127 165 9 64 12 68 38 71 25 3 61 42 38 42 -6 0
-8 6 -5 14 6 16 -22 117 -47 166 -15 31 -17 58 -14 220 2 102 4 187 5 190 1 3
2 38 2 77 0 40 3 71 7 69 8 -5 4 152 -4 204 -4 19 -8 47 -9 63 -2 15 -6 30
-10 34 -3 3 -6 13 -6 22 0 9 -10 29 -23 44 -22 28 -46 37 -184 72 -28 7 -62
20 -75 29 -25 18 -63 22 -53 6z m175 -84 c0 -8 7 -17 16 -20 8 -3 12 -10 9
-16 -3 -5 -1 -10 5 -10 6 0 9 -4 6 -8 -8 -13 11 -35 23 -28 8 5 8 13 1 27 -9
15 -7 19 5 19 13 0 19 -12 16 -32 0 -5 6 -8 15 -8 8 0 13 4 9 9 -3 5 -1 12 5
16 5 3 15 -6 20 -20 13 -34 13 -48 -1 -40 -6 4 -27 4 -46 0 -27 -5 -33 -9 -22
-16 11 -7 9 -9 -8 -9 -16 0 -23 6 -23 20 0 10 -7 23 -16 28 -11 6 -13 12 -6
16 8 5 5 18 -8 42 -23 40 -24 44 -10 44 6 0 10 -6 10 -14z m110 -137 c-10 -18
-8 -22 19 -32 21 -8 30 -17 29 -32 0 -11 1 -26 3 -34 2 -7 -2 -16 -10 -19 -10
-3 -13 1 -8 17 3 11 2 21 -3 21 -4 0 -11 10 -15 23 -4 13 -8 17 -12 10 -5 -14
-24 -18 -22 -5 3 18 -2 32 -12 32 -5 0 -7 -4 -4 -10 3 -5 0 -10 -7 -10 -9 0
-9 -3 -2 -8 14 -9 26 -42 15 -42 -5 0 -8 -6 -7 -12 0 -7 -3 -13 -9 -13 -5 0
-10 9 -11 20 -2 66 -5 76 -16 69 -7 -4 -8 -3 -4 4 4 7 18 12 31 12 18 0 23 4
19 15 -4 10 0 15 15 15 19 0 20 -3 11 -21z m16 -132 c1 -9 -1 -17 -4 -17 -4 0
-8 -18 -10 -41 -2 -30 1 -40 10 -37 7 3 14 17 16 31 5 42 21 32 18 -10 -2 -36
-4 -38 -32 -35 -16 2 -26 0 -22 -4 4 -3 3 -15 -3 -25 -7 -14 -6 -19 2 -19 8 0
8 -5 -2 -16 -7 -9 -13 -32 -14 -52 0 -19 -6 -37 -12 -39 -11 -4 -12 93 -1 113
3 5 8 25 12 44 3 19 8 45 10 58 3 15 0 22 -10 22 -8 0 -12 -4 -9 -10 3 -6 -1
-7 -9 -4 -9 3 -16 12 -16 20 0 10 7 13 25 8 14 -3 25 -2 24 2 -1 5 -1 15 0 22
1 19 24 10 27 -11z m24 -181 c0 -8 -4 -17 -10 -21 -5 -3 -7 -12 -4 -19 3 -8 0
-17 -6 -21 -8 -5 -8 -10 -2 -14 13 -8 2 -73 -12 -68 -6 3 -10 10 -8 17 2 9 -5
10 -23 6 -19 -5 -25 -2 -25 9 0 11 6 14 25 9 21 -5 25 -3 26 17 1 13 2 31 3
39 0 8 -3 18 -9 22 -6 5 -5 8 3 8 6 0 12 7 12 15 0 8 7 15 15 15 8 0 15 -6 15
-14z m-51 -393 c-4 -42 1 -62 15 -57 18 7 31 -15 17 -29 -8 -8 -11 -8 -11 0 0
7 -9 14 -19 18 -13 4 -20 17 -23 41 -2 19 -2 37 1 39 10 11 22 4 20 -12z"/>
<path d="M1520 1845 c-8 -9 -8 -15 -2 -15 6 0 12 6 15 13 2 6 7 9 11 5 4 -3 3
-16 -4 -27 -9 -17 -8 -21 5 -21 10 0 15 10 15 30 0 33 -19 40 -40 15z"/>
<path d="M1235 1817 c-8 -12 -14 -31 -14 -42 1 -16 2 -16 6 -3 6 23 72 45 83
27 7 -10 16 -10 44 -2 30 9 36 9 36 -3 0 -8 4 -14 9 -14 5 0 7 9 4 20 -4 13
-12 19 -22 16 -9 -2 -26 -7 -38 -11 -13 -3 -23 -2 -23 3 0 9 -20 18 -58 27 -6
2 -19 -6 -27 -18z"/>
<path d="M1617 1806 c-4 -10 -3 -15 3 -11 12 7 9 -37 -3 -46 -5 -3 -2 -9 7
-12 11 -5 15 1 14 21 -1 15 2 36 6 47 6 14 5 16 -2 6 -8 -11 -10 -11 -14 0 -3
9 -6 8 -11 -5z"/>
<path d="M1265 1782 c-13 -9 -46 -92 -36 -92 6 0 32 54 35 73 0 4 8 12 16 17
8 5 11 10 5 10 -5 0 -15 -4 -20 -8z"/>
<path d="M1301 1763 c-1 -13 4 -23 10 -23 6 0 8 -7 5 -16 -3 -8 -2 -13 3 -9 5
3 12 -1 14 -7 4 -8 6 -7 6 4 1 9 -4 20 -10 23 -6 4 -14 17 -19 29 l-9 21 0
-22z"/>
<path d="M1195 1751 c3 -5 0 -13 -6 -17 -6 -3 -15 -1 -19 6 -5 8 -9 5 -12 -8
-4 -14 -2 -19 7 -16 7 3 15 -3 19 -13 13 -33 31 -63 38 -63 5 0 8 -5 8 -11 0
-6 -9 -8 -22 -4 -19 6 -21 5 -11 -6 11 -10 22 -9 66 9 29 12 57 22 63 22 5 0
19 7 30 16 10 8 12 12 4 8 -12 -6 -13 -5 -2 7 10 11 14 11 21 1 4 -7 15 -10
25 -6 12 4 14 10 6 19 -5 6 -8 14 -6 16 2 2 -7 4 -20 4 -13 0 -24 -2 -24 -5 0
-3 -7 -14 -15 -24 -15 -20 -15 -20 -29 0 -14 18 -15 18 -21 -8 -7 -29 -32 -42
-59 -32 -9 3 -16 13 -16 20 0 8 -6 17 -13 20 -22 8 -18 41 6 48 18 5 20 8 7
16 -19 12 -33 13 -25 1z"/>
<path d="M1492 1743 c-13 -23 -1 -40 18 -28 6 3 10 1 10 -6 0 -7 -10 -9 -25
-7 -17 4 -25 1 -25 -9 0 -10 9 -13 31 -9 42 6 120 -29 112 -51 -5 -12 -1 -14
14 -9 19 6 34 -9 37 -36 1 -4 10 -14 21 -23 11 -9 14 -14 8 -10 -10 5 -11 0
-3 -19 5 -14 6 -26 2 -26 -4 -1 3 -6 15 -13 21 -12 23 -15 23 -38 0 -5 4 -8 9
-5 7 5 36 -46 36 -66 0 -3 3 -10 8 -14 26 -26 -31 133 -70 196 -31 49 -93 105
-136 124 -20 8 -37 22 -37 30 0 9 -6 13 -14 10 -9 -3 -16 2 -18 13 -4 16 -5
16 -16 -4z"/>
<path d="M806 1695 c3 -16 12 -35 20 -41 7 -6 11 -14 7 -18 -11 -10 -12 -36
-2 -36 4 0 6 -7 2 -15 -6 -17 -28 -15 -28 3 0 19 -13 24 -32 12 -16 -10 -15
-10 7 -5 l25 6 -22 -17 c-26 -19 -31 -47 -8 -38 8 4 15 1 15 -5 0 -16 27 -13
34 4 3 8 10 15 16 15 5 0 10 -7 10 -15 0 -8 6 -15 14 -15 12 0 27 -20 30 -40
1 -3 11 -16 23 -29 20 -21 21 -22 17 -3 -3 11 0 23 7 28 9 5 10 2 6 -10 -5
-11 -3 -15 5 -10 8 5 9 2 5 -10 -4 -10 -7 -22 -7 -27 0 -15 -24 -10 -42 9 -51
52 -53 52 -54 22 -1 -25 1 -28 17 -19 15 8 19 6 19 -6 0 -9 -4 -13 -10 -10 -5
3 -10 2 -10 -2 0 -16 79 -95 89 -89 5 3 7 -3 4 -14 -4 -14 0 -20 11 -20 11 0
14 -5 10 -12 -5 -7 -2 -9 9 -5 12 4 14 2 10 -10 -4 -11 -2 -14 5 -9 8 4 10 2
6 -7 -3 -8 2 -17 11 -21 13 -5 15 -1 10 14 -4 12 -2 20 5 20 6 0 8 -5 4 -12
-4 -7 -3 -8 4 -4 7 4 12 4 12 -1 -1 -12 -26 -43 -35 -43 -4 0 -13 -7 -20 -17
-9 -13 -14 -13 -20 -3 -6 9 -4 11 5 5 10 -6 12 -4 7 8 -3 10 -2 17 4 17 6 0 7
5 4 10 -5 8 -11 8 -19 1 -7 -6 -16 -8 -19 -4 -4 3 -7 0 -7 -8 0 -8 14 -29 30
-48 17 -18 30 -37 30 -42 0 -13 -28 1 -34 18 -5 12 -9 13 -21 3 -13 -11 -14
-10 -9 4 3 9 1 23 -6 31 -7 8 -10 21 -7 29 4 10 1 13 -7 10 -7 -3 -23 11 -37
30 -13 19 -27 32 -31 30 -4 -3 -8 4 -8 15 0 12 -4 21 -10 21 -5 0 -10 7 -10
15 0 8 -7 15 -15 15 -8 0 -15 6 -15 14 0 8 -7 16 -15 20 -8 3 -15 1 -15 -4 0
-18 -2 -25 -12 -45 -9 -16 -8 -18 3 -8 10 10 18 8 38 -10 13 -12 21 -16 16 -8
-6 10 -4 12 4 7 7 -5 10 -15 7 -23 -4 -9 -1 -22 5 -29 6 -7 8 -18 4 -24 -4 -6
5 -10 22 -11 15 0 23 -3 16 -6 -9 -3 -9 -8 -2 -16 5 -7 16 -21 24 -32 14 -19
14 -18 5 9 -6 16 -8 31 -5 34 3 3 5 0 5 -7 0 -7 5 -9 12 -5 8 5 9 2 5 -10 -4
-9 -3 -15 2 -12 5 3 12 -1 15 -10 3 -8 2 -13 -3 -10 -5 3 -12 -1 -15 -10 -3
-8 -2 -13 3 -10 5 3 12 -4 15 -17 6 -22 6 -22 22 -2 16 20 16 19 10 -5 -3 -14
-3 -19 0 -12 3 6 10 12 15 12 6 0 7 -5 3 -12 -5 -7 -3 -8 6 -3 9 5 10 1 6 -16
-6 -22 -5 -21 9 3 10 17 21 25 30 22 8 -4 12 -10 9 -15 -3 -5 -1 -9 4 -9 6 0
13 7 16 16 3 8 10 12 16 9 5 -3 10 -2 10 2 0 12 -37 42 -44 36 -3 -4 -6 2 -7
13 0 15 -2 14 -10 -6 -9 -23 -11 -24 -20 -7 -16 28 -3 50 27 44 20 -3 27 1 35
20 13 35 11 40 -6 17 -15 -19 -15 -19 -13 1 3 46 -1 57 -22 50 -16 -5 -19 -3
-13 11 4 11 3 15 -5 10 -6 -3 -13 3 -17 15 -6 18 -8 19 -18 5 -10 -14 -12 -11
-13 14 -1 17 -7 37 -14 43 -9 8 -11 8 -7 1 4 -7 0 -17 -8 -24 -9 -8 -15 -8
-15 -2 0 6 -3 18 -7 28 -4 11 -3 15 5 10 7 -4 18 6 27 24 9 17 20 28 25 25 17
-11 11 3 -12 28 -13 13 -31 23 -40 22 -19 -3 -45 21 -35 32 4 3 3 11 -3 17
-14 18 5 39 39 40 34 1 39 10 15 33 -14 14 -17 14 -37 -5 -12 -11 -33 -25 -47
-32 l-25 -13 19 22 c16 18 17 24 6 34 -10 9 -11 9 -6 0 5 -9 2 -11 -9 -7 -12
5 -13 9 -3 21 9 11 9 16 -3 24 -8 5 -10 9 -5 9 5 0 2 8 -5 17 -8 9 -9 14 -4
11 6 -4 11 2 11 12 0 12 -7 18 -18 17 -15 -1 -17 -7 -12 -32z"/>
<path d="M1686 1708 c-14 -21 -15 -21 -10 -3 5 19 5 19 -6 2 -14 -22 -13 -24
25 -32 25 -5 27 -4 12 5 -13 9 -15 15 -7 31 14 26 6 24 -14 -3z"/>
<path d="M880 1675 c-11 -13 -10 -14 6 -8 17 6 17 5 5 -10 -12 -16 -12 -17 5
-11 18 5 18 5 0 -10 -23 -19 -14 -21 13 -4 16 10 17 13 5 26 -8 7 -12 18 -9
23 10 15 -12 10 -25 -6z"/>
<path d="M1406 1655 c5 -11 10 -13 17 -6 5 5 24 7 41 4 17 -3 28 -2 24 2 -4 4
-25 10 -48 12 -34 4 -39 2 -34 -12z"/>
<path d="M1747 1654 c5 -13 3 -15 -8 -9 -8 4 -3 -3 11 -16 14 -14 27 -24 29
-22 3 2 -1 9 -7 15 -15 15 -16 32 -2 23 6 -3 10 -4 10 -1 0 3 -9 10 -20 16
-16 9 -19 8 -13 -6z"/>
<path d="M1969 1668 c-1 -2 -3 -22 -5 -45 -3 -39 9 -64 24 -48 3 3 0 10 -8 15
-13 8 -12 10 3 10 20 0 23 16 5 24 -7 4 -3 4 10 2 12 -2 22 -2 22 0 0 3 -10 9
-22 15 -21 9 -21 9 5 5 16 -2 25 0 20 4 -9 9 -52 23 -54 18z"/>
<path d="M471 1636 c-8 -10 -10 -34 -5 -75 5 -49 10 -61 24 -61 15 0 25 -12
35 -40 1 -3 7 -18 13 -33 7 -16 12 -33 12 -38 0 -5 4 -9 9 -9 9 0 37 -60 33
-72 -1 -5 5 -8 13 -8 8 0 15 -7 15 -16 0 -24 38 -88 78 -129 6 -8 12 -19 12
-25 0 -12 -5 -11 -62 7 -10 3 -18 1 -18 -5 0 -9 25 -16 84 -26 11 -1 22 -8 24
-14 2 -7 9 -9 14 -6 7 4 8 2 4 -5 -4 -6 0 -24 9 -38 17 -25 17 -26 -4 -20 -11
3 -19 1 -15 -4 3 -5 14 -9 25 -9 10 0 19 -7 19 -15 0 -8 4 -15 10 -15 5 0 17
-17 27 -37 19 -43 37 -63 52 -63 6 0 10 -3 10 -7 -3 -18 3 -30 31 -63 17 -19
33 -43 36 -53 3 -9 10 -15 15 -12 5 4 9 1 9 -5 0 -6 4 -8 10 -5 5 3 7 0 4 -8
-3 -8 0 -18 5 -22 6 -3 9 -11 6 -16 -4 -5 -4 -9 0 -9 3 0 10 10 16 23 l10 22
-5 -23 c-5 -24 21 -65 36 -56 4 3 5 -1 2 -9 -8 -23 24 -29 36 -7 6 11 7 20 2
20 -15 0 -63 50 -58 59 3 5 -2 12 -11 15 -14 6 -13 10 8 33 17 18 20 27 11 30
-7 3 -19 11 -26 19 -12 11 -15 11 -20 -1 -7 -19 -36 -20 -36 -1 0 7 7 19 15
26 13 11 15 10 9 -6 -5 -19 -5 -19 7 0 10 16 7 24 -25 54 -21 19 -42 46 -47
59 -5 13 -13 21 -19 18 -5 -3 -10 3 -10 14 0 12 -4 21 -9 21 -5 0 -12 9 -16
20 -3 11 -12 19 -18 17 -7 -1 -11 6 -9 17 3 14 -1 17 -13 12 -13 -5 -15 -2
-10 14 4 11 2 20 -4 20 -6 0 -11 7 -11 15 0 8 -4 15 -10 15 -5 0 -10 7 -10 15
0 8 -4 15 -9 15 -15 0 -23 -18 -11 -22 6 -2 12 -11 13 -20 2 -9 9 -23 16 -32
7 -9 11 -16 8 -16 -3 0 5 -12 18 -26 14 -15 25 -33 25 -40 0 -8 5 -14 10 -14
6 0 10 -6 10 -14 0 -12 26 -31 40 -28 3 0 6 -11 6 -24 1 -15 -3 -23 -10 -21
-6 2 -10 11 -10 20 1 9 -4 13 -12 10 -8 -3 -14 0 -14 6 0 6 -7 11 -15 11 -9 0
-12 6 -8 17 4 11 3 14 -5 9 -7 -4 -10 -2 -7 6 3 8 -2 23 -12 34 -23 25 -40 53
-53 81 -5 12 -19 32 -30 43 -11 11 -25 33 -31 48 -8 21 -12 24 -20 12 -8 -11
-9 -10 -4 8 4 13 2 22 -4 22 -6 0 -11 7 -11 15 0 8 -4 15 -10 15 -5 0 -10 7
-10 15 0 27 20 16 37 -20 9 -19 20 -35 25 -35 4 0 8 -7 8 -15 0 -8 5 -15 10
-15 6 0 10 -7 10 -15 0 -8 6 -15 14 -15 16 0 15 28 0 38 -6 4 -20 22 -33 40
-20 29 -22 37 -11 56 9 19 9 28 -2 47 -7 13 -15 26 -18 29 -17 16 -50 70 -55
93 -4 15 -13 27 -21 27 -8 0 -14 7 -14 15 0 8 -5 15 -10 15 -6 0 1 -20 14 -45
23 -39 24 -45 9 -53 -14 -8 -13 -14 8 -53 13 -24 27 -45 32 -47 12 -6 8 -22
-7 -22 -11 0 -35 40 -69 117 -6 12 -14 20 -19 17 -4 -3 -8 1 -8 10 0 8 -3 21
-6 30 -11 29 15 16 31 -15 9 -17 19 -28 22 -25 3 3 0 12 -7 21 -7 8 -9 15 -5
15 5 0 0 9 -9 19 -10 11 -24 17 -31 15 -14 -6 -45 53 -45 85 0 18 4 20 26 15
21 -5 25 -4 20 7 -3 8 -9 22 -12 32 -8 21 -47 23 -63 3z m169 -235 c0 -6 14
-31 31 -56 17 -25 28 -49 25 -52 -9 -10 -44 32 -52 61 -3 14 -10 26 -15 26 -5
0 -9 7 -9 15 0 8 5 15 10 15 6 0 10 -4 10 -9z m304 -530 c3 -4 -3 -16 -13 -25
-13 -11 -21 -14 -26 -7 -3 6 -1 11 4 11 6 0 11 7 11 15 0 16 16 20 24 6z m23
-23 c-1 -13 -7 -29 -14 -36 -11 -11 -13 -10 -13 8 0 16 17 48 27 50 1 0 1 -10
0 -22z"/>
<path d="M1848 1643 c6 -2 12 -13 12 -24 0 -10 5 -19 10 -19 6 0 10 -5 10 -11
0 -5 -6 -7 -12 -4 -7 4 -2 -2 12 -13 30 -25 36 -22 42 19 4 28 3 30 -8 15 -7
-10 -10 -25 -7 -34 4 -10 2 -13 -6 -8 -7 5 -9 16 -5 28 4 14 2 18 -5 14 -6 -4
-15 4 -21 18 -5 14 -15 26 -22 25 -10 0 -10 -2 0 -6z"/>
<path d="M1450 1640 c-1 -3 -3 -13 -5 -24 -2 -10 -13 -28 -24 -40 l-21 -22 23
-1 c12 -1 17 1 10 5 -8 5 -6 14 7 30 l19 22 6 -21 c4 -11 9 -18 11 -16 3 3 -2
20 -10 38 -8 19 -15 32 -16 29z"/>
<path d="M1480 1609 c0 -8 7 -10 26 -8 3 0 11 -7 18 -17 9 -12 15 -14 20 -5 4
6 12 8 18 5 6 -4 5 -9 -3 -15 -11 -6 -10 -9 4 -13 9 -4 25 -9 35 -13 9 -3 22
-5 29 -4 6 1 14 -3 18 -9 3 -5 -2 -10 -12 -10 -15 0 -16 -2 -3 -10 8 -5 11
-10 6 -10 -5 0 -3 -7 4 -15 6 -8 8 -20 4 -26 -4 -8 -3 -9 4 -5 18 11 14 -5 -5
-27 -10 -11 -12 -17 -5 -13 17 10 15 -9 -3 -24 -8 -7 -15 -9 -15 -5 0 5 -9 0
-21 -11 -20 -18 -20 -18 -14 11 3 17 7 37 9 45 2 8 8 15 14 15 6 0 14 4 19 9
5 5 3 6 -4 2 -13 -7 -17 5 -14 33 2 7 -3 10 -9 6 -6 -4 -9 -13 -6 -20 5 -14
-30 -66 -42 -62 -4 1 -8 -1 -9 -5 -7 -19 -1 -20 18 -2 20 18 20 18 15 -10 -6
-31 -16 -47 -16 -25 0 11 -2 11 -10 -1 -5 -8 -10 -10 -10 -5 0 6 -9 11 -20 12
-11 1 -20 -2 -20 -8 0 -5 3 -8 8 -8 20 3 32 -2 26 -13 -5 -7 -3 -8 7 -2 8 5
21 9 30 9 9 0 24 7 34 15 10 8 19 13 19 10 1 -3 14 4 28 16 21 16 24 24 15 33
-9 10 -7 12 12 9 14 -1 26 -9 29 -17 3 -9 0 -11 -9 -6 -11 6 -12 5 -1 -6 17
-19 15 -34 -3 -19 -13 11 -14 10 -9 -5 6 -14 4 -16 -6 -10 -8 5 -11 4 -6 -3 3
-6 2 -13 -4 -17 -5 -3 -10 -11 -10 -16 0 -6 4 -8 9 -4 5 3 12 1 16 -5 4 -6 11
-8 16 -5 5 3 6 0 3 -8 -5 -15 -45 -18 -55 -4 -3 5 -9 1 -12 -8 -4 -9 -3 -13 2
-10 5 3 12 1 16 -5 4 -6 12 -7 18 -3 17 11 30 11 44 0 8 -5 15 -1 23 13 6 11
15 18 21 15 5 -4 7 -11 4 -16 -3 -5 1 -6 9 -3 9 3 16 1 16 -5 0 -6 -4 -11 -10
-11 -5 0 -10 -5 -10 -11 0 -5 3 -8 8 -5 15 9 41 -21 37 -43 -2 -12 0 -19 6
-16 5 4 6 11 3 17 -4 7 -2 8 4 4 7 -4 12 -12 12 -18 0 -6 8 -16 17 -23 15 -11
16 -15 3 -31 -8 -10 -10 -15 -4 -11 6 3 21 -1 33 -10 18 -12 22 -22 17 -44 -4
-21 -2 -29 8 -29 16 0 41 -28 33 -36 -3 -3 -17 2 -31 11 l-26 17 0 -31 c0 -21
-4 -30 -11 -26 -6 4 -5 -2 2 -13 11 -18 10 -24 -5 -40 -13 -15 -14 -22 -5 -28
7 -4 10 -3 5 4 -11 18 18 20 39 3 20 -16 20 -16 3 5 -22 25 -22 31 -3 31 8 0
12 -4 9 -9 -3 -4 0 -8 5 -8 17 0 13 21 -6 35 -9 7 -17 22 -18 34 -2 21 -1 21
29 3 17 -10 31 -23 31 -30 0 -6 6 -17 13 -24 15 -15 -12 67 -29 88 -5 7 -12
25 -15 41 -3 15 -9 32 -15 38 -14 14 -11 28 5 22 11 -4 13 1 10 19 -2 13 -1
24 4 24 4 0 8 9 8 20 0 13 -6 20 -16 18 -10 -2 -15 -14 -14 -35 0 -24 -3 -30
-14 -25 -10 3 -13 1 -8 -6 4 -7 1 -12 -9 -12 -9 0 -13 4 -10 10 3 5 1 18 -4
29 -8 14 -7 22 6 32 9 8 18 13 20 11 3 -2 8 -1 11 3 4 4 3 6 -3 5 -28 -6 -35
0 -24 18 9 14 9 24 1 38 -6 10 -12 14 -12 7 0 -7 -7 -10 -15 -7 -8 4 -15 1
-15 -6 0 -6 5 -8 10 -5 16 10 12 -11 -5 -25 -11 -10 -18 -9 -30 3 -8 9 -15 20
-15 25 0 5 -9 17 -21 28 -21 19 -21 18 -40 -5 -19 -23 -19 -23 -19 -2 0 12 5
21 11 21 5 0 7 5 4 10 -4 7 -12 7 -25 0 -22 -12 -39 5 -21 23 6 6 11 7 11 2 1
-6 8 1 16 15 8 14 13 17 10 8 -3 -10 5 -23 22 -34 l27 -17 -18 27 c-10 14 -15
32 -11 38 4 7 3 8 -4 4 -7 -4 -16 3 -22 18 -5 14 -18 30 -30 36 -11 6 -18 15
-15 19 8 14 -18 66 -35 69 -8 2 -22 10 -30 17 -32 29 -130 62 -130 44z m392
-346 c-5 -10 -7 -24 -5 -30 3 -7 0 -13 -6 -13 -20 0 -22 20 -4 44 20 27 29 27
15 -1z"/>
<path d="M1737 1603 c5 -12 2 -14 -8 -9 -9 5 -8 3 2 -6 9 -7 15 -19 13 -26 -1
-7 0 -8 3 -2 2 5 12 10 21 10 15 1 15 2 -1 11 -9 6 -15 14 -12 19 3 4 -2 10
-10 13 -10 4 -12 1 -8 -10z"/>
<path d="M713 1593 c-19 -7 -16 -31 6 -42 23 -13 29 -7 23 24 -4 25 -7 27 -29
18z"/>
<path d="M1380 1585 c-7 -8 -17 -12 -24 -8 -6 3 -6 0 2 -8 6 -7 12 -16 12 -21
0 -4 -6 -6 -12 -4 -7 1 -10 1 -6 -1 4 -2 4 -11 1 -20 -5 -12 -3 -14 7 -8 8 5
11 3 8 -6 -3 -8 -12 -13 -19 -11 -8 1 -6 -4 5 -13 14 -11 23 -12 33 -4 18 15
17 0 -2 -21 -14 -15 -13 -17 5 -15 12 1 32 18 46 37 16 22 32 34 40 31 8 -3
11 -9 8 -14 -3 -5 -10 -6 -16 -3 -6 4 -9 3 -5 -2 3 -5 -1 -20 -9 -34 -8 -15
-14 -19 -14 -10 0 11 -4 9 -12 -5 -16 -26 -19 -45 -7 -45 6 0 9 8 7 17 -2 12
4 18 20 19 12 1 25 3 30 4 4 1 9 2 12 2 3 0 6 14 6 31 0 20 4 31 12 29 10 -2
10 3 2 18 -6 11 -8 24 -5 29 3 5 -3 8 -12 6 -10 -1 -17 -8 -15 -14 1 -6 -5
-11 -13 -11 -10 0 -12 6 -8 18 6 16 6 16 -10 0 -19 -18 -23 -33 -7 -23 6 3 10
2 10 -4 0 -11 -18 -24 -37 -27 -15 -3 -17 12 -3 21 6 3 10 12 10 18 0 7 -10 1
-21 -13 -15 -17 -19 -19 -15 -7 3 11 2 16 -4 12 -14 -9 -12 9 2 23 9 9 9 12
-1 12 -7 0 -9 5 -6 10 4 6 10 8 15 5 5 -3 11 -1 14 4 11 16 -11 22 -24 6z"/>
<path d="M1313 1583 c4 -5 -5 -25 -18 -43 -30 -41 -33 -55 -4 -20 17 21 20 21
14 5 -4 -14 -3 -17 5 -9 16 16 22 62 9 70 -7 4 -9 3 -6 -3z"/>
<path d="M1792 1565 c0 -16 -1 -32 -2 -35 -5 -15 -5 -58 1 -54 4 2 9 -14 13
-36 5 -34 9 -38 20 -28 15 14 11 32 -5 23 -5 -4 -10 4 -10 17 -1 13 -3 34 -4
48 -2 14 4 31 13 38 14 11 14 12 0 12 -9 0 -19 10 -21 23 -4 17 -5 15 -5 -8z"/>
<path d="M1235 1558 c-4 -10 -13 -15 -23 -11 -13 4 -14 3 -3 -5 10 -7 10 -14
2 -29 -5 -11 -7 -23 -4 -27 6 -6 -3 -8 -52 -11 -11 0 -23 4 -27 9 -11 16 14
26 35 14 25 -13 31 -5 16 21 -13 19 -14 19 -32 3 -16 -14 -19 -14 -27 -2 -7
11 -10 8 -10 -12 0 -16 9 -37 21 -49 19 -19 22 -19 38 -5 26 23 37 20 15 -5
-16 -17 -16 -22 -4 -29 21 -14 25 -13 46 11 19 21 19 22 -4 14 -22 -6 -22 -5
-10 14 15 25 24 26 35 7 4 -8 17 -15 28 -18 21 -4 28 -33 8 -33 -7 0 -17 -5
-24 -12 -16 -16 8 -46 32 -40 10 3 19 -1 21 -9 2 -9 7 -5 14 9 9 19 8 23 -5
22 -9 0 -23 -5 -30 -10 -10 -5 -12 -4 -7 3 5 8 2 10 -8 6 -9 -3 -16 -2 -16 3
0 15 12 23 24 16 6 -4 17 -8 24 -9 10 -2 10 1 2 11 -18 22 3 25 29 4 22 -18
23 -21 7 -37 -20 -23 -20 -36 0 -53 13 -10 17 -10 24 2 8 12 13 10 32 -8 12
-13 17 -23 10 -23 -6 0 -12 5 -12 10 0 6 -4 10 -10 10 -5 0 -10 -7 -10 -15 0
-9 9 -15 25 -15 31 0 33 23 4 44 -12 8 -18 19 -14 26 10 16 45 -23 46 -52 0
-13 3 -17 6 -10 2 6 9 10 14 7 5 -4 2 -18 -7 -33 l-16 -27 20 25 c11 14 24 21
29 17 4 -5 1 -12 -6 -16 -9 -6 -10 -11 -2 -15 6 -4 11 -12 11 -17 0 -6 -4 -8
-9 -4 -5 3 -12 1 -16 -5 -3 -5 1 -10 10 -10 9 0 22 -6 30 -12 7 -7 34 -31 60
-53 89 -75 110 -95 96 -95 -8 0 -24 8 -35 18 -16 13 -18 13 -8 1 6 -9 9 -18 7
-21 -3 -3 9 -5 27 -4 19 0 33 -4 33 -11 0 -6 3 -15 8 -19 4 -4 7 -2 7 5 0 7 4
10 9 7 5 -3 7 -15 4 -26 -3 -11 -1 -20 5 -20 15 0 83 -66 75 -73 -3 -4 -1 -7
6 -7 15 0 71 -41 71 -52 0 -5 16 -22 35 -39 19 -17 32 -35 29 -40 -3 -5 0 -9
6 -9 6 0 20 -9 32 -20 12 -11 28 -20 37 -20 8 0 23 -7 33 -17 10 -9 21 -14 24
-11 3 4 -26 31 -64 62 -82 65 -142 126 -142 144 0 7 -4 11 -8 8 -10 -6 -178
173 -174 186 1 4 -2 7 -7 6 -4 -2 -30 21 -56 50 -46 51 -47 54 -29 68 18 14
18 14 -4 4 -24 -12 -46 -5 -37 11 4 5 1 9 -5 9 -6 0 -8 6 -4 13 6 10 4 10 -7
0 -7 -7 -18 -13 -23 -13 -6 0 -6 4 1 8 9 6 4 17 -17 42 -16 18 -26 38 -23 43
3 6 1 7 -5 3 -7 -4 -12 -3 -12 2 0 5 -23 31 -51 58 -80 77 -88 84 -100 84 -5
0 -8 4 -5 9 3 4 -5 6 -18 4 -20 -4 -23 -1 -21 26 2 38 -11 63 -20 39z m10 -35
c0 -19 -6 -29 -18 -31 -17 -4 -18 -2 -2 27 19 38 21 38 20 4z m145 -161 c0 -4
-9 -15 -19 -24 -18 -15 -19 -15 -24 3 -3 10 -1 17 4 13 5 -3 9 0 9 5 0 6 7 11
15 11 8 0 15 -3 15 -8z"/>
<path d="M1849 1548 c4 -13 13 -23 20 -23 6 0 11 -3 11 -7 0 -5 0 -12 0 -18 0
-5 -3 -9 -7 -7 -5 1 -10 -2 -13 -7 -3 -5 2 -10 11 -11 9 -2 16 2 17 9 0 6 3
22 6 35 4 19 2 22 -15 18 -14 -4 -19 -1 -17 10 2 9 -3 18 -9 20 -10 3 -11 -2
-4 -19z"/>
<path d="M1947 1556 c-6 -16 4 -26 46 -44 38 -16 34 -6 -5 14 -18 10 -28 19
-21 21 7 2 21 -1 32 -7 12 -6 21 -8 21 -6 0 5 -55 36 -63 36 -3 0 -7 -6 -10
-14z"/>
<path d="M606 1533 c4 -16 13 -32 19 -38 7 -5 18 -25 25 -42 7 -18 16 -33 20
-33 4 0 10 -9 13 -21 4 -14 10 -18 18 -13 9 5 10 2 6 -9 -3 -9 -2 -19 4 -23
17 -10 61 -86 54 -92 -4 -4 -11 1 -16 11 -13 23 -29 22 -29 -3 0 -11 7 -20 15
-20 9 0 12 -6 9 -15 -4 -8 -1 -15 5 -15 6 0 19 -16 28 -35 9 -19 20 -35 25
-35 4 0 8 -4 8 -9 0 -6 10 -21 23 -35 13 -14 34 -45 47 -70 25 -51 35 -56 43
-26 3 12 -1 24 -11 30 -19 10 -17 11 15 15 13 1 20 -2 16 -8 -3 -5 1 -15 9
-21 20 -15 41 -56 33 -64 -3 -3 -16 7 -29 22 -18 24 -24 26 -29 14 -5 -15 28
-69 83 -132 14 -16 24 -32 22 -37 -1 -5 2 -9 8 -9 5 0 10 5 10 10 0 6 8 10 18
10 14 0 13 4 -8 23 l-25 22 24 24 c24 23 24 23 18 1 -3 -12 -3 -28 0 -36 4
-12 8 -11 18 3 8 10 17 14 21 10 5 -4 2 -12 -5 -17 -17 -10 -7 -40 14 -40 8 0
15 -5 15 -11 0 -8 5 -8 15 1 8 7 15 22 15 33 0 21 0 21 -16 1 -10 -12 -14 -14
-11 -4 2 8 -2 20 -9 27 -7 7 -14 18 -17 25 -3 9 -10 7 -22 -7 -17 -20 -17 -20
-10 0 4 11 8 26 8 33 0 6 4 12 8 12 4 0 11 9 14 20 4 11 11 18 16 15 5 -4 5
-14 -2 -27 -8 -15 -8 -23 1 -32 9 -8 16 -5 31 13 10 13 19 19 19 13 0 -6 -7
-18 -16 -27 -9 -9 -13 -19 -9 -23 7 -7 45 33 45 48 0 16 -34 21 -42 5 -14 -24
-30 -18 -17 6 16 30 -6 52 -26 26 -10 -14 -14 -15 -19 -5 -3 7 -4 5 -3 -6 3
-26 -30 -30 -39 -4 -4 14 -12 18 -25 15 -16 -4 -19 -1 -14 14 5 14 -4 29 -29
53 -20 18 -36 39 -36 45 0 7 -4 10 -9 6 -6 -3 -14 3 -20 12 -8 13 -10 14 -11
4 0 -12 -3 -12 -12 -3 -10 10 -10 14 0 21 9 5 3 20 -24 54 -20 26 -40 44 -45
42 -4 -3 -10 -1 -14 5 -3 5 -1 10 5 10 8 0 8 6 0 20 -6 11 -15 18 -20 15 -6
-3 -7 1 -4 9 6 14 -5 21 -28 17 -7 -1 -9 4 -12 35 -1 9 -16 30 -66 91 -6 7
-10 17 -10 23 0 5 -4 10 -10 10 -5 0 -10 6 -10 13 0 8 -9 22 -20 32 -13 11
-18 25 -14 37 4 12 0 18 -11 18 -12 0 -14 -6 -9 -27z m208 -324 c15 -22 25
-43 22 -47 -3 -3 -7 -3 -9 -1 -28 35 -57 77 -57 82 0 18 20 3 44 -34z m42 -48
c-3 -4 6 -21 19 -37 14 -16 25 -33 25 -37 0 -5 4 -5 10 -2 6 3 7 -1 4 -9 -9
-22 -25 -20 -31 4 -3 11 -12 20 -19 20 -8 0 -14 7 -14 15 0 9 -7 18 -15 21
-14 6 -13 8 2 20 21 16 26 17 19 5z m166 -200 c7 11 8 10 4 -4 -3 -11 1 -26
11 -35 15 -16 15 -17 0 -20 -8 -2 -18 -9 -20 -15 -2 -7 -2 0 0 16 4 26 -8 34
-42 27 -5 -1 -1 8 10 20 12 14 21 17 23 10 3 -9 7 -9 14 1z"/>
<path d="M2366 1514 c5 -52 14 -55 14 -6 0 23 -4 42 -9 42 -5 0 -7 -16 -5 -36z"/>
<path d="M736 1503 c-4 -10 -1 -20 9 -25 8 -5 15 -14 15 -20 0 -14 72 -83 83
-80 5 1 6 -1 4 -5 -8 -13 20 -46 32 -38 6 3 9 0 6 -8 -3 -7 8 -30 24 -51 27
-33 30 -35 36 -17 6 21 -5 52 -21 54 -5 1 -8 5 -6 10 1 4 -3 7 -8 7 -6 0 -10
7 -10 16 0 10 -6 14 -14 11 -9 -4 -13 -1 -10 7 7 18 -72 97 -90 90 -9 -3 -16
-1 -16 6 0 6 5 8 10 5 15 -9 12 8 -6 33 -18 26 -30 28 -38 5z"/>
<path d="M1931 1506 c-14 -17 -4 -25 67 -55 76 -32 75 -20 0 14 -42 18 -57 29
-45 32 9 3 15 9 12 14 -9 13 -21 11 -34 -5z"/>
<path d="M832 1498 c-16 -16 -15 -41 1 -35 6 2 12 8 12 13 0 5 4 15 8 22 10
15 -5 16 -21 0z"/>
<path d="M1908 1448 c0 -13 -2 -36 -4 -53 -1 -16 0 -37 3 -45 3 -8 8 -33 10
-55 2 -22 8 -44 13 -49 12 -12 12 -3 1 47 -6 24 -5 37 1 37 7 0 7 4 0 13 -16
19 -15 28 5 43 11 8 13 13 6 14 -7 0 -13 5 -13 11 0 6 9 8 23 3 21 -6 21 -6
-3 14 l-25 21 25 -5 25 -5 -25 15 c-34 21 -40 20 -42 -6z"/>
<path d="M1528 1435 c-10 -13 -18 -27 -18 -32 0 -4 7 3 16 15 8 12 19 20 24
17 4 -3 13 1 18 8 8 10 7 13 -6 14 -9 1 -25 -9 -34 -22z"/>
<path d="M973 1420 c2 -15 8 -24 15 -22 8 1 11 -2 8 -6 -3 -5 4 -20 15 -33
l21 -24 -7 25 c-7 22 -10 38 -14 73 -1 4 -6 7 -12 7 -6 0 -9 -7 -5 -15 3 -8 1
-15 -4 -15 -5 0 -11 8 -14 18 -2 9 -4 6 -3 -8z"/>
<path d="M2367 1401 c3 -21 1 -41 -4 -44 -11 -7 -4 -77 8 -77 5 0 9 36 9 80 0
44 -4 80 -9 80 -5 0 -7 -17 -4 -39z"/>
<path d="M1020 1400 c0 -5 5 -10 11 -10 5 0 7 -5 3 -12 -5 -7 -3 -8 6 -3 10 6
12 4 7 -8 -3 -10 -2 -17 4 -17 6 0 8 -9 4 -19 -3 -11 0 -23 6 -27 7 -4 9 -3 5
4 -3 6 3 16 14 22 23 12 27 1 9 -32 -14 -26 3 -47 24 -29 12 9 14 7 12 -14 -4
-32 7 -32 39 0 26 26 60 33 71 15 8 -13 45 6 45 23 0 9 -2 9 -8 0 -4 -7 -17
-10 -30 -6 -18 4 -20 8 -11 19 7 9 8 14 1 14 -5 0 -12 -7 -16 -15 -3 -8 -12
-15 -19 -15 -8 0 -26 -10 -41 -21 -26 -20 -27 -20 -24 -3 2 11 6 21 9 24 4 3
1 11 -7 18 -12 10 -14 10 -14 -3 0 -8 -4 -15 -9 -15 -6 0 -9 12 -8 28 2 20 -3
27 -16 27 -12 0 -24 13 -32 33 -13 30 -35 44 -35 22z"/>
<path d="M1150 1402 c0 -5 -9 -18 -20 -30 -11 -11 -16 -23 -11 -26 5 -3 12 1
15 10 5 12 17 14 58 10 39 -4 48 -3 35 5 -9 5 -21 8 -26 5 -5 -3 -11 3 -14 14
-5 19 -37 29 -37 12z"/>
<path d="M1834 1385 c-4 -8 -11 -12 -17 -8 -6 3 -7 1 -3 -6 4 -6 12 -9 17 -5
6 3 13 -4 16 -16 4 -16 8 -18 14 -8 12 19 11 28 -3 26 -7 -2 -12 5 -12 15 2
21 -5 22 -12 2z"/>
<path d="M1620 1345 c-7 -8 -16 -12 -21 -9 -5 3 -6 -3 -3 -13 5 -16 4 -16 -8
-3 -15 17 -39 21 -36 5 1 -5 8 -9 14 -7 7 1 11 -7 10 -21 -2 -18 2 -23 20 -23
17 0 21 4 14 15 -5 10 -1 25 12 43 20 29 19 39 -2 13z"/>
<path d="M1624 1258 c-3 -5 -9 -6 -14 -3 -5 3 -12 0 -16 -6 -4 -8 -3 -9 4 -5
7 4 23 -4 37 -18 14 -14 25 -21 25 -16 0 5 7 7 15 4 9 -4 15 0 15 7 1 9 4 8
11 -4 11 -18 29 -14 29 6 0 7 -4 6 -10 -3 -9 -13 -10 -13 -11 0 -1 8 -1 19 1
25 1 5 -8 1 -20 -10 -26 -24 -23 -23 -43 -6 -24 20 -21 30 8 25 14 -2 25 -1
25 4 0 10 -50 10 -56 0z"/>
<path d="M2360 1239 c0 -19 -4 -48 -9 -64 -4 -17 -5 -50 -1 -75 5 -39 7 -32
14 58 5 57 5 106 2 109 -3 4 -6 -9 -6 -28z"/>
<path d="M1190 1225 c-24 -26 -60 -34 -60 -14 0 8 -5 7 -15 -1 -13 -11 -15
-10 -9 6 4 14 1 13 -15 -6 -24 -29 -28 -48 -6 -30 13 11 14 10 10 -2 -4 -10 4
-24 20 -36 26 -20 26 -21 10 -52 -9 -18 -19 -30 -22 -27 -2 3 0 14 6 26 9 17
8 20 -8 18 -12 -1 -18 -9 -18 -23 0 -35 24 -36 48 -3 l21 30 34 -26 c31 -24
34 -24 43 -7 6 10 7 29 4 42 -6 22 -7 22 -19 5 -8 -10 -17 -16 -20 -12 -4 4
-1 13 6 22 8 9 8 15 2 15 -6 0 -14 -9 -17 -20 -3 -11 -11 -20 -16 -20 -13 0
-11 24 3 38 8 8 8 15 -2 27 -10 12 -10 15 5 15 10 0 26 -7 35 -15 15 -14 18
-13 28 9 10 22 9 23 -19 20 -33 -4 -36 2 -12 28 25 28 10 22 -17 -7z m-40 -48
c0 -25 -21 -37 -37 -21 -8 7 -11 18 -8 24 9 15 45 12 45 -3z"/>
<path d="M1266 1204 c-3 -8 -6 -17 -6 -18 0 -1 9 -3 20 -4 45 -4 50 -6 50 -19
0 -8 5 -11 10 -8 6 3 10 2 10 -3 0 -6 7 -13 16 -16 15 -6 15 -4 3 11 -8 10
-23 26 -34 35 -17 15 -18 17 -3 18 9 0 20 -4 23 -10 9 -14 25 -12 23 3 -4 18
-30 25 -55 14 -16 -7 -27 -6 -37 2 -11 9 -15 8 -20 -5z"/>
<path d="M1754 1148 c-4 -7 -4 -10 1 -6 12 11 35 -11 28 -28 -4 -12 -8 -12
-22 -2 -9 7 2 -7 24 -30 21 -23 40 -42 42 -42 2 0 3 12 2 28 0 15 -3 21 -6 15
-2 -7 -9 -13 -14 -13 -6 0 -7 5 -4 10 4 6 2 17 -5 25 -7 9 -8 15 0 20 5 3 10
1 10 -4 0 -6 5 -11 11 -11 8 0 7 5 -1 15 -7 9 -15 13 -18 10 -3 -3 -13 2 -23
11 -14 12 -18 13 -25 2z"/>
<path d="M1309 1124 c-7 -9 -22 -14 -35 -11 -16 3 -21 0 -17 -10 6 -16 6 -16
37 -2 14 7 27 18 30 25 7 18 1 18 -15 -2z"/>
<path d="M1343 1113 c-7 -2 -13 -14 -13 -24 0 -14 -4 -18 -12 -13 -8 5 -7 0 2
-11 14 -18 15 -18 18 3 3 21 32 32 32 13 0 -6 14 -18 30 -28 17 -9 30 -23 30
-30 0 -19 -13 -16 -38 7 -12 11 -27 20 -34 20 -8 -1 -7 -5 5 -14 25 -19 21
-26 -13 -26 -17 0 -39 9 -50 20 -22 22 -44 27 -37 8 2 -7 11 -12 20 -12 9 1
18 -5 22 -13 4 -12 -1 -14 -20 -11 -31 6 -40 -5 -20 -22 13 -10 19 -10 33 4
16 14 21 14 38 1 26 -19 32 -19 39 5 5 16 12 19 28 14 12 -4 26 -13 30 -20 4
-8 13 -14 19 -14 6 0 3 9 -6 19 -11 13 -14 21 -7 26 6 3 14 -1 17 -10 6 -14
10 -12 30 12 13 15 23 22 24 15 0 -7 4 -11 9 -8 5 4 12 0 14 -6 4 -8 6 -9 6
-2 1 7 -11 20 -26 29 -16 10 -25 14 -21 10 12 -13 -12 -34 -30 -27 -9 3 -26
16 -38 29 -12 13 -24 23 -28 23 -12 0 -35 27 -29 34 7 7 -6 7 -24 -1z"/>
<path d="M1844 1108 c-3 -4 0 -8 6 -8 7 0 8 -5 3 -12 -12 -20 -11 -89 1 -79 6
5 10 24 10 43 -1 18 2 40 7 49 5 11 3 16 -7 16 -8 0 -17 -4 -20 -9z"/>
<path d="M1024 1079 c-5 -8 -3 -9 6 -4 8 5 11 3 8 -6 -3 -8 -11 -13 -17 -11
-9 2 -9 -3 -1 -18 12 -22 31 -28 26 -7 -1 6 -1 9 1 4 3 -4 9 -4 15 -1 7 4 7 0
0 -12 -7 -14 -6 -23 4 -32 12 -11 15 -10 20 2 3 9 14 16 23 16 14 0 14 2 1 10
-11 7 -19 5 -28 -8 -12 -15 -13 -14 -7 11 6 21 4 27 -9 27 -9 0 -16 6 -16 14
0 20 -17 29 -26 15z"/>
<path d="M1158 1068 c8 -8 9 -15 1 -25 -8 -9 -8 -13 0 -13 6 0 11 5 11 11 0 5
5 7 10 4 17 -10 -8 -35 -27 -28 -11 4 -14 2 -11 -8 5 -16 38 -19 39 -4 0 6 5
15 11 22 6 8 3 18 -11 32 -12 12 -24 21 -28 21 -4 0 -2 -5 5 -12z"/>
<path d="M1210 1026 c0 -7 -7 -19 -15 -26 -8 -7 -15 -17 -15 -23 0 -7 4 -7 12
1 17 17 33 15 18 -3 -7 -8 -9 -15 -5 -15 7 0 44 41 45 50 0 3 -9 11 -20 18
-16 10 -20 10 -20 -2z"/>
<path d="M2339 1033 c-1 -5 -2 -26 -3 -47 -2 -23 -10 -44 -20 -52 -17 -12 -16
-13 3 -23 18 -10 21 -8 27 24 3 19 3 46 0 60 -4 14 -2 25 4 25 5 0 10 5 10 10
0 12 -19 14 -21 3z"/>
<path d="M1380 960 c0 -5 7 -10 16 -10 12 0 15 -7 12 -30 -4 -25 -1 -31 19
-36 28 -7 31 -34 3 -34 -11 0 -20 5 -20 10 0 6 -9 10 -20 10 -11 0 -20 4 -20
9 0 13 -32 23 -42 13 -4 -4 8 -14 27 -21 19 -7 35 -19 35 -27 0 -11 -4 -12
-19 -5 -10 6 -21 8 -23 5 -3 -2 -11 2 -18 11 -7 8 -20 15 -29 15 -13 0 -13 -2
-2 -9 14 -9 7 -31 -10 -31 -6 0 -8 4 -5 9 4 5 -2 8 -11 7 -23 -4 -29 -26 -7
-26 9 0 23 -8 31 -17 13 -17 14 -17 8 3 -5 19 -1 20 37 19 24 -1 49 3 57 9 11
8 16 7 24 -5 9 -14 12 -14 29 3 18 18 19 17 61 -8 23 -15 44 -31 45 -35 2 -5
10 -9 18 -9 10 0 6 9 -12 25 -15 14 -33 25 -40 25 -7 0 -17 6 -21 13 -4 7 -25
23 -45 37 -21 14 -38 31 -38 38 0 17 19 15 26 -2 3 -8 12 -12 19 -10 8 3 11
12 8 21 -5 12 -7 12 -14 1 -7 -10 -9 -10 -9 0 0 6 -6 12 -14 12 -7 0 -19 7
-26 15 -14 17 -30 20 -30 5z"/>
<path d="M1230 949 c0 -7 -7 -17 -17 -24 -14 -11 -13 -13 11 -17 20 -4 26 -2
22 8 -3 8 1 14 8 14 8 0 17 8 21 18 5 14 4 15 -6 5 -15 -15 -33 -17 -24 -3 3
6 1 10 -4 10 -6 0 -11 -5 -11 -11z"/>
<path d="M1340 939 c0 -5 5 -7 12 -3 6 4 8 3 4 -4 -3 -6 -22 -9 -41 -7 -25 2
-35 -1 -35 -11 0 -10 9 -12 38 -8 20 4 47 6 60 6 29 0 28 12 -3 26 -32 15 -35
15 -35 1z"/>
<path d="M1540 915 c0 -3 15 -15 33 -26 l32 -21 -47 5 c-41 4 -45 3 -32 -10 7
-8 18 -12 23 -9 5 3 11 -1 15 -9 3 -8 11 -15 18 -14 10 0 10 2 1 6 -7 2 -13 8
-13 13 0 16 35 16 60 1 13 -9 21 -11 17 -4 -8 13 -107 76 -107 68z"/>
<path d="M1242 877 c-12 -13 -22 -27 -22 -33 1 -5 9 1 20 14 11 13 24 21 29
18 5 -4 13 -1 17 5 4 7 3 9 -4 5 -5 -3 -12 -1 -14 5 -2 5 -13 0 -26 -14z"/>
<path d="M562 858 c16 -16 93 -58 104 -58 5 0 -16 16 -46 35 -54 35 -83 46
-58 23z"/>
<path d="M480 841 c0 -5 14 -19 30 -31 37 -26 39 -16 4 16 -27 26 -34 29 -34
15z"/>
<path d="M1175 833 c-3 -10 -17 -31 -31 -48 -25 -29 -25 -29 -19 -5 6 24 6 25
-10 5 -16 -19 -16 -19 -10 10 5 23 4 26 -4 15 -6 -8 -11 -23 -11 -34 0 -12 -5
-16 -15 -13 -21 9 -27 -7 -15 -38 6 -16 14 -23 22 -19 8 5 9 2 5 -10 -5 -12
-3 -16 5 -13 7 2 21 -9 30 -24 11 -19 23 -27 33 -23 11 5 14 2 9 -12 -6 -17
-5 -17 10 1 17 20 17 20 12 -5 -5 -24 -4 -24 10 -5 21 28 12 40 -30 38 -31 -1
-35 1 -25 13 6 8 9 18 5 21 -4 4 -11 1 -17 -7 -7 -11 -8 -9 -7 10 2 19 -2 25
-14 24 -11 -1 -18 5 -18 17 0 21 19 36 29 22 7 -11 71 -12 71 -1 0 4 -9 8 -20
8 -11 0 -20 5 -20 11 0 13 30 44 44 45 6 1 15 2 20 3 10 1 -13 31 -25 31 -4 0
-10 -8 -14 -17z"/>
<path d="M1671 811 c-7 -5 -10 -14 -7 -20 4 -6 2 -11 -5 -11 -6 0 0 -9 14 -20
14 -11 29 -20 34 -20 4 0 0 5 -9 11 -10 5 -18 21 -18 35 0 17 4 23 12 18 7 -4
8 -3 4 4 -8 14 -7 14 -25 3z"/>
<path d="M470 782 c0 -12 87 -82 101 -82 5 0 9 -7 9 -16 0 -8 4 -12 10 -9 5 3
24 -1 41 -10 18 -10 28 -12 24 -5 -4 7 -22 19 -39 27 -45 21 -78 40 -85 50
-17 22 -61 55 -61 45z"/>
<path d="M556 781 c5 -5 32 -21 59 -36 28 -15 55 -30 60 -33 6 -4 21 -8 35
-10 14 -2 -14 17 -62 42 -84 44 -112 56 -92 37z"/>
<path d="M1283 760 c-6 -21 -23 -28 -23 -9 0 18 -29 -10 -47 -45 -15 -29 -15
-30 0 -17 10 7 17 19 17 26 0 17 28 27 33 12 3 -8 10 -5 21 8 17 20 17 20 11
-5 -5 -19 -4 -21 4 -10 6 8 16 15 22 15 7 0 14 6 17 13 2 7 -6 12 -23 12 -15
0 -24 4 -20 10 3 6 3 10 0 10 -4 0 -9 -9 -12 -20z"/>
<path d="M1440 770 c-7 -4 -19 -6 -26 -3 -7 2 -20 0 -30 -5 -14 -8 -12 -11 15
-23 17 -8 31 -17 31 -20 0 -4 9 -9 21 -12 16 -4 18 -3 9 8 -7 8 -20 17 -31 20
-29 9 -23 20 12 23 17 1 28 -1 25 -6 -3 -5 1 -9 8 -9 17 0 10 23 -8 30 -7 3
-19 1 -26 -3z"/>
<path d="M790 751 c0 -4 23 -14 51 -21 27 -8 52 -18 55 -22 3 -4 10 -8 17 -8
7 0 8 3 1 10 -14 14 -124 51 -124 41z"/>
<path d="M1570 734 c14 -10 30 -22 35 -29 13 -16 55 -29 55 -17 0 5 -23 21
-51 36 -57 29 -76 34 -39 10z"/>
<path d="M1740 734 c-19 -7 -27 -13 -17 -13 9 -1 17 -5 17 -11 0 -5 5 -10 10
-10 6 0 10 6 10 14 0 8 6 16 13 19 6 2 10 6 7 9 -3 2 -21 -1 -40 -8z"/>
<path d="M1165 730 c-3 -5 -13 -6 -23 -3 -9 3 -4 -4 11 -17 27 -22 29 -22 42
-4 22 30 17 42 -6 14 -20 -24 -20 -24 -14 -2 6 22 1 30 -10 12z"/>
<path d="M1527 715 l28 -24 -27 -1 c-16 0 -28 -4 -28 -8 0 -11 60 -45 67 -38
3 3 -7 11 -23 17 -27 10 -27 12 -9 19 11 5 31 6 45 3 18 -4 12 3 -23 26 -58
37 -68 40 -30 6z"/>
<path d="M1364 719 c-4 -8 -3 -9 4 -5 7 4 12 1 12 -8 0 -9 9 -16 20 -16 11 0
19 -6 18 -12 -2 -7 5 -12 15 -12 9 1 17 -2 17 -7 0 -5 5 -9 10 -9 6 0 10 7 10
15 0 8 -6 15 -14 15 -8 0 -16 3 -18 8 -1 4 -17 15 -35 25 -23 13 -34 14 -39 6z"/>
<path d="M1241 696 c-9 -11 -8 -15 5 -20 13 -5 14 -9 5 -20 -10 -11 -8 -16 8
-21 12 -3 27 -13 35 -20 12 -13 15 -12 20 1 3 8 2 12 -4 9 -6 -3 -10 -1 -10 4
0 10 10 12 74 15 11 1 21 7 23 13 4 12 -55 8 -87 -7 -36 -16 -64 10 -35 33 6
5 2 6 -9 3 -13 -5 -17 -2 -12 9 7 19 2 19 -13 1z"/>
<path d="M1618 658 c17 -17 15 -41 -2 -35 -8 3 -20 -1 -26 -8 -7 -8 -16 -13
-20 -10 -5 3 -11 1 -15 -5 -3 -5 1 -10 9 -10 8 0 21 -7 30 -15 8 -8 17 -11 20
-6 3 5 -1 11 -9 15 -8 3 -15 10 -15 16 0 11 27 14 32 3 4 -10 65 -53 74 -53 4
0 -6 11 -22 25 -16 14 -32 25 -36 25 -5 0 -8 5 -8 11 0 7 12 10 30 7 23 -3 27
-2 19 8 -6 7 -16 11 -24 8 -7 -3 -16 3 -20 15 -3 12 -11 21 -18 21 -8 0 -8 -3
1 -12z"/>
<path d="M1820 651 c0 -6 7 -11 15 -11 8 0 15 -4 15 -9 0 -9 30 -24 36 -19 1
2 -3 10 -9 19 -15 20 -57 35 -57 20z"/>
<path d="M1690 642 c0 -9 62 -34 68 -27 2 2 -3 11 -12 20 -11 12 -16 13 -16 4
0 -10 -3 -10 -12 -1 -14 14 -28 16 -28 4z"/>
<path d="M1108 589 c-10 -11 -25 -16 -35 -13 -15 5 -16 4 -3 -5 24 -17 48 -13
55 10 9 27 4 30 -17 8z"/>
<path d="M1404 599 c25 -15 0 -32 -26 -18 -13 7 -18 6 -16 -3 2 -8 -6 -13 -19
-12 -12 0 -24 -5 -27 -11 -2 -7 5 -11 17 -10 12 1 26 -3 30 -9 6 -7 7 -5 4 6
-7 20 19 33 27 13 3 -8 0 -15 -6 -17 -8 -3 -8 -10 -1 -22 9 -16 11 -15 16 10
11 48 21 58 47 44 12 -6 24 -9 28 -6 3 4 -9 12 -26 18 -18 7 -32 16 -32 20 0
4 -8 8 -17 8 -16 -1 -16 -2 1 -11z"/>
<path d="M1136 576 c-8 -31 12 -45 30 -22 19 27 18 2 -2 -32 -15 -25 -15 -26
1 -7 9 11 21 19 27 17 5 -1 16 2 23 8 8 6 29 9 48 6 38 -6 53 9 35 35 -8 11
-9 11 -5 -3 4 -10 -1 -18 -14 -21 -12 -3 -19 0 -19 9 0 12 -4 12 -20 2 -17
-11 -27 -10 -59 8 l-39 21 -6 -21z"/>
<path d="M1504 571 c4 -5 1 -11 -5 -13 -6 -2 -1 -12 10 -22 12 -11 21 -14 21
-8 0 7 -4 12 -10 12 -18 0 -10 17 13 28 21 10 21 11 -6 11 -16 1 -26 -3 -23
-8z"/>
<path d="M2081 561 c-12 -8 -12 -12 2 -26 21 -20 37 -12 30 15 -6 22 -11 24
-32 11z"/>
<path d="M500 551 c0 -10 36 -35 100 -70 25 -13 69 -40 99 -60 150 -100 203
-131 211 -126 6 4 10 1 10 -4 0 -11 94 -62 137 -75 18 -6 22 -4 17 8 -3 8 -12
17 -20 20 -9 3 -12 1 -9 -4 3 -6 1 -10 -4 -10 -6 0 -11 6 -11 14 0 7 -9 16
-21 19 -13 4 -18 10 -13 18 4 7 3 10 -4 5 -10 -6 -99 29 -112 44 -3 3 -18 10
-35 16 -16 6 -29 15 -28 21 1 5 -3 10 -10 10 -7 0 -56 30 -111 66 -54 37 -108
69 -119 73 -11 4 -30 15 -41 25 -21 20 -36 24 -36 10z"/>
<path d="M720 549 c38 -26 130 -68 130 -60 0 5 -28 23 -63 40 -62 30 -97 41
-67 20z"/>
<path d="M1754 549 c-3 -5 -17 -10 -32 -10 -17 -1 -21 -3 -9 -6 9 -2 17 -9 17
-14 0 -5 7 -9 15 -9 8 0 15 -4 15 -10 0 -5 5 -10 12 -10 6 0 4 8 -6 19 -21 23
-6 37 24 21 16 -8 18 -8 14 4 -7 17 -42 28 -50 15z"/>
<path d="M640 515 c30 -19 65 -39 78 -45 12 -5 22 -14 22 -19 0 -5 13 -12 30
-16 16 -4 33 -11 36 -17 8 -12 109 -58 127 -58 7 1 -15 14 -48 30 -77 38 -179
93 -185 101 -14 16 -87 59 -100 59 -8 0 10 -16 40 -35z"/>
<path d="M1027 519 c5 -19 4 -20 -16 -10 -11 7 -21 8 -21 3 0 -10 71 -32 125
-39 37 -6 28 6 -11 13 -16 3 -33 9 -40 15 -6 5 -14 6 -17 2 -4 -3 -7 1 -7 10
0 9 -4 18 -9 21 -5 4 -7 -3 -4 -15z"/>
<path d="M1639 532 c0 -4 -2 -15 -4 -24 -2 -10 1 -18 6 -18 5 0 9 7 9 15 0 18
21 20 40 3 12 -11 12 -10 2 3 -13 17 -51 32 -53 21z"/>
<path d="M1414 509 c-4 -8 -3 -9 4 -5 7 4 12 3 12 -3 0 -5 14 -17 32 -25 36
-18 41 -19 33 -7 -11 19 15 21 42 4 22 -14 26 -15 16 -2 -15 18 -8 30 13 22 8
-3 14 -1 14 5 0 15 -32 24 -44 12 -5 -5 -18 -10 -27 -10 -10 0 -19 -5 -21 -12
-3 -8 -14 -5 -35 10 -23 16 -34 19 -39 11z"/>
<path d="M1720 485 c20 -25 52 -34 72 -22 13 9 22 7 37 -7 12 -11 21 -14 21
-8 0 7 -5 12 -11 12 -6 0 -9 6 -6 14 4 10 0 12 -16 8 -12 -2 -27 -9 -33 -13
-5 -5 -25 1 -44 13 -28 16 -32 17 -20 3z"/>
<path d="M1385 477 c-9 -5 -27 -6 -40 -3 -13 3 -27 1 -30 -4 -4 -6 -11 -7 -17
-4 -7 4 -8 2 -4 -5 4 -6 11 -9 16 -6 5 3 12 1 15 -5 5 -8 11 -7 21 1 11 9 14
8 14 -2 0 -11 2 -11 10 1 9 15 60 22 60 9 0 -4 21 -22 46 -39 35 -23 49 -28
55 -19 6 10 13 10 33 1 20 -9 25 -9 23 1 -1 7 8 12 21 11 l23 -1 -25 24 c-28
25 -45 31 -27 9 16 -19 -4 -32 -23 -16 -11 8 -15 8 -18 -2 -3 -9 -11 -9 -36 1
-18 7 -32 17 -32 22 0 5 -6 6 -14 3 -8 -3 -15 3 -18 14 -6 20 -27 24 -53 9z"/>
<path d="M1150 466 c-6 -8 1 -11 25 -11 45 1 54 11 15 17 -17 3 -35 0 -40 -6z"/>
<path d="M1212 427 c-53 -72 -61 -86 -39 -68 16 12 17 12 11 -5 -5 -18 -5 -18
10 0 9 11 19 16 23 13 8 -9 43 22 43 37 0 6 -5 3 -11 -6 -5 -10 -21 -18 -35
-18 l-24 0 22 35 c15 23 31 35 46 35 15 0 21 -4 16 -12 -4 -7 -3 -8 4 -4 15 9
15 9 -8 29 -19 16 -21 15 -58 -36z"/>
<path d="M1633 446 c28 -26 47 -33 47 -18 0 8 -28 25 -65 41 -5 2 3 -8 18 -23z"/>
<path d="M1426 405 c-3 -8 -13 -15 -21 -15 -9 0 -14 -4 -10 -10 3 -5 13 -6 22
-3 10 4 14 2 10 -4 -4 -6 5 -19 20 -28 23 -15 28 -16 37 -3 6 8 19 14 30 12
17 -2 17 -1 -2 17 -27 25 -46 25 -39 -1 3 -11 0 -23 -5 -27 -6 -3 -8 -1 -4 5
3 5 0 12 -6 15 -10 3 -10 9 -1 25 10 17 9 21 -3 26 -21 8 -21 8 -28 -9z"/>
<path d="M1815 399 c-4 -6 -14 -8 -22 -4 -13 4 -14 3 -3 -10 14 -17 35 -21 25
-5 -6 10 12 14 50 11 17 -2 17 0 5 8 -20 14 -47 14 -55 0z"/>
<path d="M1368 385 c-2 -3 -23 -6 -44 -7 -33 -1 -42 -6 -52 -27 l-12 -26 20
24 c11 13 20 17 20 10 0 -10 3 -10 12 -1 7 7 22 12 34 12 13 0 26 5 29 10 6
10 2 14 -7 5z"/>
<path d="M1195 322 c-22 -36 -42 -44 -25 -9 l11 22 -20 -22 c-10 -13 -27 -23
-37 -23 -9 0 -14 -3 -11 -7 4 -3 23 -6 44 -5 28 1 34 -1 25 -10 -7 -7 -12 -16
-12 -22 0 -5 9 0 20 12 21 22 27 37 10 27 -17 -11 -11 22 7 36 15 12 16 12 10
-4 -9 -24 10 -12 25 16 10 19 9 20 -4 9 -13 -10 -17 -10 -20 0 -3 7 -13 -2
-23 -20z"/>
<path d="M1225 278 c-37 -51 -47 -68 -42 -68 2 0 17 18 33 41 23 34 29 38 34
23 6 -16 7 -16 13 -1 3 9 2 17 -3 17 -5 0 -7 7 -4 15 10 25 1 17 -31 -27z"/>
<path d="M1320 293 c-14 -3 -29 -8 -33 -13 -5 -4 4 -5 19 -2 23 4 26 2 21 -14
-7 -18 -6 -18 8 0 13 17 21 39 13 35 -2 -1 -14 -4 -28 -6z"/>
<path d="M1508 153 c28 -2 76 -2 105 0 28 2 5 3 -53 3 -58 0 -81 -1 -52 -3z"/>
</g>
</svg>
