<?xml version="1.0" standalone="no"?>
<!DOCTYPE svg PUBLIC "-//W3C//DTD SVG 20010904//EN"
 "http://www.w3.org/TR/2001/REC-SVG-20010904/DTD/svg10.dtd">
<svg version="1.0" xmlns="http://www.w3.org/2000/svg"
 width="252.000000pt" height="200.000000pt" viewBox="0 0 252.000000 200.000000"
 preserveAspectRatio="xMidYMid meet">
<metadata>
Created by potrace 1.10, written by Peter Selinger 2001-2011
</metadata>
<g transform="translate(0.000000,200.000000) scale(0.100000,-0.100000)"
fill="#379d3c" stroke="none">
<path d="M893 1913 c9 -2 23 -2 30 0 6 3 -1 5 -18 5 -16 0 -22 -2 -12 -5z"/>
<path d="M1025 1910 c-13 -6 -15 -9 -5 -9 8 0 22 4 30 9 18 12 2 12 -25 0z"/>
<path d="M1218 1913 c6 -2 18 -2 25 0 6 3 1 5 -13 5 -14 0 -19 -2 -12 -5z"/>
<path d="M1128 1903 c7 -3 16 -2 19 1 4 3 -2 6 -13 5 -11 0 -14 -3 -6 -6z"/>
<path d="M948 1893 c7 -3 16 -2 19 1 4 3 -2 6 -13 5 -11 0 -14 -3 -6 -6z"/>
<path d="M1368 1883 c6 -2 18 -2 25 0 6 3 1 5 -13 5 -14 0 -19 -2 -12 -5z"/>
<path d="M1540 1865 c0 -2 10 -10 23 -16 20 -11 21 -11 8 4 -13 16 -31 23 -31
12z"/>
<path d="M973 1853 c-51 -3 -71 -7 -67 -16 2 -7 -10 -18 -26 -26 -39 -17 -31
-27 9 -13 31 11 31 10 37 -29 4 -21 10 -39 15 -39 5 0 7 6 4 13 -2 6 -6 31 -9
55 -5 37 -3 42 14 42 14 0 18 -5 13 -17 -5 -11 -3 -14 6 -8 10 5 11 2 6 -14
-4 -12 -2 -21 4 -21 10 0 15 19 12 45 0 6 31 10 77 10 56 0 76 -3 75 -13 -2
-6 4 -12 12 -12 9 0 12 6 9 15 -4 9 0 15 9 15 8 0 17 -9 20 -20 4 -17 0 -20
-34 -20 -21 0 -39 5 -39 10 0 6 -21 10 -48 10 -36 0 -50 -5 -60 -20 -7 -11 -8
-20 -3 -20 5 0 11 6 14 14 9 23 89 16 93 -6 1 -10 -3 -18 -9 -18 -9 0 -9 -2
-1 -8 6 -4 14 -14 17 -22 4 -8 6 -1 4 17 -3 31 -2 32 37 35 33 2 42 7 44 24 3
18 10 22 43 22 35 1 39 -2 39 -24 0 -16 5 -24 18 -23 10 0 12 3 5 6 -17 6 -17
43 0 43 8 0 19 -19 26 -42 9 -30 15 -37 21 -27 5 7 6 16 1 19 -4 3 -7 14 -7
26 0 15 5 20 18 16 10 -2 18 -8 18 -13 0 -5 5 -9 11 -9 5 0 7 5 4 10 -3 6 3
10 15 10 12 0 19 -4 16 -9 -7 -10 49 -9 60 2 4 4 13 2 21 -4 11 -10 11 -15 1
-27 -11 -13 -10 -15 4 -10 10 4 19 1 22 -8 3 -8 -1 -14 -11 -14 -13 0 -13 -3
4 -17 11 -10 18 -24 15 -32 -3 -9 0 -11 8 -6 8 5 11 3 8 -5 -2 -7 -12 -14 -22
-16 -26 -4 -28 -8 -10 -30 15 -19 15 -18 11 3 -3 16 -1 20 10 16 8 -3 12 -12
9 -19 -3 -8 -1 -14 4 -14 6 0 10 -9 10 -20 0 -11 4 -20 9 -20 15 0 23 18 11
25 -5 3 -10 14 -10 23 0 15 2 15 10 2 7 -10 10 -11 10 -2 0 7 -6 15 -13 18 -8
3 -14 19 -14 35 0 17 -5 34 -11 38 -7 4 -13 19 -14 34 -1 15 -6 27 -11 27 -5
0 -7 7 -3 15 3 8 -3 19 -14 25 -19 10 -425 20 -557 13z"/>
<path d="M547 1814 c-13 -18 -14 -22 -3 -18 8 3 17 13 20 21 10 25 3 23 -17
-3z"/>
<path d="M833 1826 c-24 -11 -31 -26 -13 -26 5 0 24 9 42 20 25 15 28 20 13
19 -11 -1 -30 -6 -42 -13z"/>
<path d="M500 1820 c0 -5 5 -10 11 -10 5 0 7 5 4 10 -3 6 -8 10 -11 10 -2 0
-4 -4 -4 -10z"/>
<path d="M730 1819 c0 -5 5 -7 10 -4 6 3 10 8 10 11 0 2 -4 4 -10 4 -5 0 -10
-5 -10 -11z"/>
<path d="M776 1816 c5 -12 0 -16 -17 -17 l-24 0 23 -10 c14 -5 20 -13 16 -20
-5 -9 0 -10 17 -6 13 4 30 7 37 7 6 0 12 5 12 11 0 7 -10 9 -25 7 -20 -4 -24
-1 -22 15 1 11 -4 22 -11 24 -7 3 -10 -1 -6 -11z"/>
<path d="M1728 1823 c7 -3 16 -2 19 1 4 3 -2 6 -13 5 -11 0 -14 -3 -6 -6z"/>
<path d="M623 1812 c-12 -4 -52 -34 -89 -67 -37 -33 -77 -66 -88 -74 -12 -8
-32 -24 -46 -37 -20 -18 -45 -25 -124 -34 -55 -6 -105 -15 -113 -21 -7 -6 -24
-9 -38 -7 -14 3 -25 2 -25 -2 0 -13 36 -40 54 -40 12 0 16 -5 13 -15 -4 -8 12
-36 38 -67 25 -28 45 -55 45 -60 0 -4 7 -8 16 -8 8 0 12 -4 9 -10 -3 -5 -1
-10 4 -10 6 0 11 -7 11 -15 0 -8 5 -15 11 -15 5 0 8 -4 5 -9 -4 -5 -3 -11 1
-13 5 -1 24 -34 43 -71 19 -37 43 -77 53 -87 9 -11 17 -24 17 -30 0 -5 5 -10
12 -10 6 0 8 -3 5 -7 -4 -3 0 -11 7 -17 8 -6 26 -32 39 -58 14 -26 28 -44 31
-41 3 4 6 -1 6 -10 0 -9 3 -17 8 -17 9 0 44 -61 38 -68 -3 -2 -42 5 -88 16
-46 11 -108 26 -138 32 -99 21 -118 29 -124 55 -4 14 -14 25 -23 25 -15 0 -15
-1 1 -13 11 -8 17 -20 14 -28 -5 -15 25 -34 71 -44 34 -7 40 -21 14 -29 -15
-4 -15 -5 2 -4 36 1 46 -2 41 -11 -9 -14 26 -23 38 -10 8 9 8 10 -1 5 -7 -4
-21 2 -32 13 -15 15 -17 21 -6 25 8 3 17 1 20 -4 4 -6 23 -10 44 -10 20 0 61
-7 90 -16 30 -8 65 -13 78 -9 16 4 22 2 18 -5 -3 -6 3 -10 15 -10 12 0 18 -4
15 -10 -8 -13 18 -55 52 -87 13 -13 20 -23 16 -23 -4 0 0 -7 11 -15 23 -18 15
-70 -10 -61 -9 3 -22 6 -30 6 -9 0 -13 3 -11 8 3 4 -16 8 -42 9 -51 2 -39 -11
18 -20 19 -3 37 -11 41 -17 9 -15 1 -48 -14 -57 -6 -3 -8 -3 -4 2 9 10 -49 48
-61 40 -5 -2 -11 4 -14 15 -3 11 -11 20 -18 20 -10 0 -10 -3 -1 -12 14 -14 16
-38 3 -38 -5 0 -22 5 -38 12 -15 6 -35 12 -44 14 -34 7 -73 27 -62 31 7 3 26
-2 43 -10 16 -9 30 -11 30 -6 0 5 -10 14 -22 19 -13 5 -17 9 -10 9 7 1 10 6 6
12 -5 8 -8 8 -13 0 -4 -6 -20 -12 -35 -13 -16 -2 -32 -11 -38 -23 -8 -16 -8
-17 2 -9 9 9 18 8 38 -2 15 -8 32 -14 39 -14 7 0 17 -8 22 -17 6 -10 11 -13
11 -5 0 9 9 9 37 -3 26 -11 38 -12 44 -4 8 13 69 3 69 -12 0 -5 -12 -4 -26 2
-15 5 -29 7 -32 4 -3 -2 6 -9 19 -14 13 -5 18 -10 11 -10 -8 -1 -6 -9 8 -23
11 -12 20 -25 20 -30 0 -4 7 -8 15 -8 8 0 15 -5 15 -11 0 -7 -7 -8 -17 -4 -10
4 -38 12 -63 17 -25 6 -51 15 -58 21 -7 5 -15 7 -19 4 -8 -9 -64 22 -85 47 -9
11 -17 16 -18 9 0 -6 6 -14 13 -16 6 -3 3 -6 -9 -6 -15 -1 -28 13 -49 52 -16
28 -39 68 -52 87 -13 19 -23 42 -23 50 0 9 -8 25 -17 36 -10 10 -29 44 -43 74
-14 30 -29 58 -35 62 -5 4 -6 8 -2 8 5 0 -1 15 -12 34 -12 18 -21 41 -21 51 0
16 2 16 25 1 14 -9 25 -15 25 -12 0 2 26 -2 57 -9 32 -7 60 -12 62 -9 2 2 -10
7 -27 10 -18 4 -32 11 -32 16 0 6 -6 8 -12 6 -7 -3 -35 3 -63 12 -37 12 -52
23 -57 41 -27 96 -28 97 -22 32 2 -33 7 -72 9 -85 3 -12 7 -59 10 -103 10
-166 25 -321 34 -340 4 -11 13 -38 18 -60 6 -22 12 -47 14 -55 14 -53 170
-145 434 -256 146 -62 236 -76 342 -55 32 6 105 20 163 31 138 27 360 86 435
115 33 13 72 27 88 30 15 4 27 10 27 14 0 11 70 42 81 36 5 -4 9 1 9 10 0 8 7
18 15 21 8 4 15 10 15 15 0 5 -7 9 -15 9 -8 0 -15 9 -15 20 0 28 -27 78 -56
105 -13 12 -24 25 -24 28 0 3 19 15 42 27 37 19 42 20 50 6 5 -9 13 -16 19
-16 5 0 20 -9 32 -21 33 -31 76 -51 96 -44 10 3 23 17 29 31 15 31 15 34 2 34
-5 0 -10 -6 -10 -14 0 -14 -21 -26 -46 -26 -11 0 -10 5 6 22 18 19 20 36 22
142 0 67 0 130 -1 141 -3 28 20 125 29 120 12 -7 24 94 24 200 0 339 -12 411
-79 481 -36 38 -49 44 -138 64 -102 24 -130 22 -80 -4 16 -8 51 -37 79 -64
138 -138 147 -165 145 -444 -1 -109 -6 -209 -11 -222 -5 -14 -11 -48 -13 -77
-3 -28 -11 -55 -19 -60 -7 -5 -9 -9 -5 -9 5 0 -1 -13 -12 -28 -11 -16 -23 -40
-26 -53 -7 -26 -47 -80 -62 -81 -4 0 -14 -3 -21 -6 -24 -9 -65 17 -59 37 3 14
0 17 -12 14 -10 -2 -23 2 -29 10 -17 20 -4 50 19 44 11 -3 19 -1 19 3 0 18
-19 19 -48 3 -28 -16 -30 -16 -58 10 -27 26 -28 27 -7 27 12 0 25 5 28 11 4 6
14 8 22 5 8 -3 12 -2 9 3 -3 5 5 29 19 54 17 33 21 48 13 53 -7 4 -14 2 -16
-4 -2 -7 -10 -12 -18 -12 -17 0 -36 -43 -28 -64 3 -8 1 -17 -5 -21 -7 -4 -11
3 -11 18 0 14 -7 30 -15 37 -10 9 -15 9 -15 1 0 -6 4 -11 9 -11 5 0 11 -14 13
-30 4 -26 1 -30 -19 -30 -14 0 -23 6 -23 15 0 8 -4 15 -10 15 -16 0 -90 71
-90 87 0 8 5 11 10 8 6 -3 10 0 10 9 0 8 6 16 13 19 10 4 10 7 0 18 -10 9 -13
10 -13 1 0 -7 -5 -12 -11 -12 -7 0 -4 10 6 26 11 17 13 30 7 36 -6 6 -12 6
-16 -1 -4 -6 -1 -11 6 -11 13 -1 -41 -50 -54 -50 -11 0 -81 70 -76 76 3 2 11
-2 18 -11 13 -16 32 -21 28 -7 -1 4 6 20 16 35 14 21 16 31 7 40 -8 8 -11 4
-12 -18 0 -29 -1 -29 -10 -7 -5 15 -5 30 1 42 6 10 10 25 10 32 0 12 -10 -4
-47 -74 -14 -28 -37 -36 -48 -19 -3 5 -1 12 5 16 5 3 10 14 10 23 -1 14 -2 14
-12 -3 -6 -11 -12 -22 -14 -24 -5 -6 -54 48 -54 60 0 5 7 9 16 9 8 0 12 5 9
11 -5 7 -12 6 -23 -4 -18 -15 -46 -12 -36 4 3 5 -7 9 -23 9 -26 1 -27 2 -10
15 18 13 18 14 -4 17 -12 2 -24 9 -27 17 -3 10 2 11 19 6 21 -7 22 -6 7 8 -10
10 -24 14 -39 10 -21 -6 -23 -5 -10 10 7 9 10 17 5 17 -4 0 2 9 15 21 12 12
20 24 17 27 -10 10 -87 9 -93 -1 -3 -6 -1 -7 5 -3 7 4 12 3 12 -2 0 -14 -28
-23 -35 -12 -4 6 0 18 7 27 15 20 48 29 48 13 0 -5 5 -10 11 -10 6 0 9 7 5 15
-5 13 -2 14 15 4 13 -7 19 -7 15 -1 -3 6 -2 13 4 17 6 4 8 11 5 16 -9 13 19
11 33 -3 9 -9 15 -9 23 -1 8 8 2 13 -23 18 -18 4 -40 12 -48 19 -12 9 -13 8
-4 -4 13 -19 12 -40 -1 -40 -5 0 -9 19 -8 43 2 61 1 60 19 53 14 -5 15 -4 4 9
-7 8 -17 12 -23 8 -6 -3 -7 -1 -3 5 11 18 29 14 49 -8 21 -25 39 -25 55 0 16
26 3 53 -18 40 -13 -8 -12 -10 3 -10 23 0 22 -17 -4 -30 -17 -10 -21 -8 -26 9
-4 14 -13 21 -31 21 -14 0 -22 3 -19 6 3 4 2 15 -3 25 -13 22 2 33 50 35 19 1
45 2 58 3 12 0 22 5 22 10 0 6 -24 7 -56 4 -50 -5 -55 -4 -52 13 2 12 -4 19
-17 21 -20 3 -20 3 0 -6 11 -6 14 -10 6 -10 -10 -1 -11 -4 -2 -15 9 -11 7 -14
-11 -18 -21 -3 -55 19 -60 40 -6 31 -12 42 -21 42 -6 0 -1 7 11 16 26 18 28
30 6 38 -13 5 -14 4 -6 -7 7 -8 9 -17 5 -20 -12 -13 -23 -7 -23 13 0 23 -25
27 -34 5 -3 -8 0 -15 7 -15 16 0 37 -48 30 -67 -4 -11 -2 -14 5 -9 8 5 12 0
12 -14 0 -14 4 -19 13 -15 6 4 4 0 -5 -8 -16 -13 -14 -15 25 -31 29 -11 38
-19 29 -25 -8 -5 -14 -34 -15 -81 -2 -55 -6 -75 -17 -78 -12 -4 -13 -3 -3 10
7 8 10 18 6 22 -11 11 -14 46 -3 46 6 0 10 5 10 12 0 6 -8 4 -19 -6 -16 -15
-19 -15 -31 -1 -7 8 -11 15 -9 16 2 0 12 2 22 4 11 2 21 6 24 9 9 9 11 66 2
61 -4 -3 -6 -15 -4 -26 3 -13 0 -19 -8 -16 -7 2 -11 13 -10 23 1 17 0 17 -10
3 -7 -9 -18 -14 -26 -11 -8 3 -11 0 -7 -7 4 -6 3 -11 -3 -11 -5 0 -12 6 -14
13 -4 9 -6 9 -6 -1 -1 -8 -6 -10 -13 -6 -7 4 -10 4 -6 0 3 -4 -1 -16 -10 -27
-9 -11 -17 -29 -17 -39 0 -28 -18 -30 -20 -2 -1 12 2 22 7 22 5 0 7 4 4 9 -4
5 0 11 6 14 8 2 9 8 4 13 -5 5 -11 4 -13 -3 -4 -10 -10 -10 -25 -2 -17 9 -20
9 -15 -3 8 -21 -4 -35 -37 -44 -22 -5 -28 -4 -24 7 3 8 10 15 16 15 7 1 17 2
22 3 6 0 10 5 10 11 0 6 -9 6 -24 0 -13 -5 -27 -6 -30 -3 -3 4 -6 -3 -6 -14 0
-25 -43 -73 -66 -73 -16 0 -16 2 2 16 18 14 18 15 -5 4 -18 -9 -25 -9 -31 0
-5 9 -9 9 -14 1 -4 -6 3 -15 16 -20 21 -8 22 -10 4 -17 -13 -5 -24 -1 -37 17
-18 24 -18 24 14 36 42 15 50 15 41 1 -6 -10 -5 -10 7 -1 11 9 19 9 26 2 7 -7
14 -5 22 5 11 13 10 18 -3 31 -15 15 -16 15 -16 -5 0 -12 -4 -18 -10 -15 -6 4
-8 10 -5 15 3 5 -9 1 -27 -8 -18 -9 -48 -17 -65 -17 -30 -1 -33 2 -38 32 -3
18 -8 50 -11 71 -3 20 -11 43 -17 50 -32 39 5 164 51 170 12 2 22 8 22 13 0
10 -5 10 -37 1z m1123 -61 c5 -4 31 -14 57 -21 33 -9 44 -16 35 -21 -9 -6 -6
-9 10 -9 15 0 21 -4 16 -12 -4 -7 -3 -8 4 -4 7 4 17 4 23 0 8 -5 8 -9 -1 -14
-9 -6 -7 -9 6 -14 34 -11 78 -145 64 -194 -6 -21 -9 -23 -10 -7 -1 20 -1 20
-9 0 -8 -17 -10 -16 -18 15 -7 24 -6 37 1 42 7 5 7 8 -2 8 -7 0 -10 5 -7 10 3
6 2 10 -4 10 -16 0 -1 28 17 33 10 3 3 5 -15 6 -17 0 -35 6 -39 13 -5 8 -2 9
9 5 10 -3 17 -2 17 3 0 6 -7 10 -16 10 -11 0 -14 5 -10 16 4 12 1 14 -13 9
-14 -4 -23 0 -31 15 -6 12 -9 24 -6 27 3 3 10 -5 15 -18 6 -15 10 -18 10 -8 1
22 -25 43 -41 33 -7 -4 -10 -4 -6 1 7 8 -15 35 -29 35 -12 1 -59 40 -47 40 5
0 14 -4 20 -9z m-1197 -81 c1 8 13 -19 27 -60 13 -41 23 -86 20 -99 -4 -26 7
-43 38 -54 14 -6 17 -13 12 -35 -5 -20 -4 -23 3 -12 9 13 12 12 25 -5 18 -23
20 -35 6 -35 -5 0 -10 5 -10 11 0 6 -8 9 -17 7 -10 -2 -23 3 -30 12 -8 10 -12
11 -13 3 0 -7 9 -22 20 -33 11 -11 20 -15 20 -10 0 16 15 12 40 -10 12 -11 27
-17 31 -14 5 3 9 -4 9 -15 0 -12 -4 -21 -9 -21 -5 0 -12 -7 -15 -16 -4 -10 -2
-13 6 -8 8 5 9 2 5 -9 -4 -10 -10 -24 -14 -34 -4 -11 -3 -14 5 -9 7 4 12 14
12 22 0 8 7 14 15 14 8 0 13 -6 11 -12 -1 -7 -1 -10 1 -5 3 4 9 5 14 2 5 -4 6
0 3 8 -3 8 -15 19 -26 24 -12 5 -17 12 -12 16 12 7 186 -77 177 -87 -3 -3 -2
-6 4 -6 6 0 13 7 17 15 4 10 -1 15 -14 15 -11 0 -20 4 -20 8 0 4 9 8 20 8 11
0 20 -4 20 -8 0 -4 5 -8 11 -8 6 0 8 9 4 21 -5 15 -4 19 4 15 7 -5 10 -2 9 6
-2 8 7 14 22 15 14 0 33 1 43 2 28 2 20 16 -19 35 l-37 17 24 25 c16 17 18 23
7 19 -20 -8 -34 13 -19 28 8 8 11 8 11 -1 0 -7 8 -12 18 -12 15 0 15 2 2 11
-13 9 -12 10 3 5 12 -4 16 -2 11 6 -5 7 -3 8 6 3 8 -5 11 -4 6 3 -4 6 -13 9
-21 5 -24 -9 -17 3 13 22 15 10 24 14 20 10 -4 -5 -3 -14 3 -21 7 -8 7 -14 -1
-19 -6 -3 -7 -11 -4 -17 4 -6 3 -8 -3 -5 -5 3 -19 -6 -30 -21 l-20 -28 33 -31
c18 -17 36 -28 39 -25 3 3 5 -2 5 -12 0 -9 5 -14 10 -11 6 3 10 -4 10 -17 0
-18 2 -20 10 -8 9 15 11 13 14 -12 0 -7 11 -17 24 -24 29 -14 99 -84 84 -84
-6 0 -14 5 -17 10 -3 6 -12 10 -18 10 -8 0 -8 -3 2 -9 10 -7 11 -13 1 -31 -10
-18 -9 -21 1 -15 9 6 11 3 6 -8 -4 -11 -2 -14 9 -10 7 3 14 0 14 -7 0 -6 5 -8
10 -5 7 4 3 14 -10 25 -26 23 -25 28 4 28 14 0 29 -9 35 -22 11 -21 11 -21 7
2 -4 22 -2 21 29 -10 21 -20 30 -35 23 -39 -6 -4 3 -10 21 -14 17 -3 31 -13
31 -20 0 -7 12 -18 28 -23 27 -9 27 -9 -13 -17 -22 -3 -43 -7 -48 -8 -4 -1 2
-8 14 -15 12 -8 18 -9 15 -4 -3 5 6 12 21 15 19 3 32 -1 44 -14 9 -10 22 -19
29 -19 7 0 10 -3 6 -8 -8 -7 -14 -9 -47 -11 -11 0 -18 -5 -15 -10 3 -5 23 -7
44 -4 30 4 42 0 64 -20 l27 -25 -41 -6 c-37 -6 -44 -3 -106 46 -37 28 -73 58
-79 67 -7 8 -13 12 -13 9 0 -4 -16 8 -35 26 -42 40 -43 45 -9 38 17 -3 25 -1
21 5 -4 6 -25 8 -48 6 -27 -3 -39 -1 -34 6 3 6 1 11 -4 11 -13 0 -61 41 -61
52 0 4 12 8 26 8 14 0 23 4 19 9 -3 6 -18 6 -37 -1 -24 -9 -33 -8 -36 0 -2 7
-12 12 -23 12 -16 0 -17 -3 -7 -25 12 -27 24 -32 31 -12 3 8 14 1 31 -18 30
-36 34 -56 6 -30 -24 22 -27 13 -4 -10 12 -11 20 -13 29 -5 17 14 28 -2 32
-48 4 -33 3 -34 -24 -28 -25 6 -26 5 -8 -5 11 -6 25 -18 32 -26 9 -11 11 -4 9
36 -2 28 1 51 6 51 4 0 8 -4 8 -10 0 -5 7 -10 16 -10 8 0 13 -3 11 -7 -3 -5 1
-14 9 -21 8 -7 14 -11 14 -8 0 2 21 -16 46 -40 26 -24 51 -42 56 -41 5 1 15
-6 21 -15 9 -14 7 -22 -11 -41 -27 -29 -27 -33 1 -40 19 -5 19 -4 5 6 -14 10
-14 13 9 30 13 11 25 18 27 16 2 -2 8 -13 14 -24 8 -14 11 -16 12 -5 0 9 24
-8 61 -43 53 -50 59 -60 48 -74 -12 -14 -11 -15 8 -9 12 4 24 2 28 -4 3 -5 1
-10 -4 -10 -22 0 -10 -17 24 -33 19 -9 35 -23 35 -32 0 -8 6 -15 13 -15 16 0
54 -42 70 -78 6 -15 15 -30 20 -33 5 -3 -5 -9 -22 -12 -17 -4 -31 -11 -31 -17
0 -7 6 -8 19 0 24 12 41 13 41 2 0 -5 -16 -16 -35 -25 -32 -15 -35 -15 -45 1
-8 14 -9 12 -4 -9 5 -25 2 -28 -48 -44 -29 -10 -57 -21 -62 -25 -5 -5 -15 -6
-22 -3 -8 3 -14 0 -14 -6 0 -6 -9 -11 -20 -11 -11 0 -20 5 -20 10 0 6 -5 10
-10 10 -6 0 -10 -8 -8 -17 2 -12 -7 -19 -32 -25 -19 -5 -48 -13 -64 -18 -27
-9 -28 -8 -12 9 12 13 14 21 7 26 -6 3 -11 -1 -11 -9 0 -9 -5 -16 -12 -16 -20
0 -78 50 -78 68 0 15 -2 15 -10 2 -5 -8 -10 -10 -10 -5 0 6 -15 19 -34 29 -31
17 -40 36 -23 52 15 15 6 30 -20 31 -26 2 -27 1 -5 -7 25 -11 31 -23 5 -13
-10 4 -14 2 -9 -5 3 -6 1 -14 -5 -18 -8 -4 -9 -3 -5 4 4 7 2 13 -3 13 -6 1
-17 2 -23 3 -7 1 -12 8 -10 15 1 7 -2 10 -8 6 -5 -3 -10 -1 -10 4 0 6 -6 11
-14 11 -8 0 -21 8 -28 19 -8 11 -23 18 -38 16 -34 -3 -34 -3 -20 -20 9 -10 9
-15 1 -15 -6 0 -11 5 -11 10 0 6 -18 19 -40 29 -22 10 -37 21 -34 24 4 4 -3 4
-15 2 -12 -2 -19 0 -16 6 8 12 45 12 45 -1 0 -5 9 -10 21 -10 11 0 17 -5 14
-10 -7 -12 28 -14 39 -3 4 5 13 8 19 8 6 0 12 11 12 25 0 19 4 24 20 22 11 -2
22 -8 23 -13 2 -5 10 -9 17 -9 7 0 15 -6 18 -12 2 -7 8 -10 12 -6 4 3 -12 20
-36 38 -36 26 -44 28 -51 15 -11 -18 -35 -20 -41 -2 -2 6 -8 9 -12 5 -4 -4 3
-16 15 -26 l24 -19 -24 -13 c-20 -11 -22 -10 -17 4 6 14 3 16 -13 11 -11 -4
-20 -3 -19 2 3 19 -2 33 -12 33 -5 0 -7 -4 -4 -10 3 -6 -1 -7 -9 -4 -23 9 -9
24 21 24 18 0 24 4 19 15 -4 10 1 15 14 15 11 0 20 5 20 11 0 5 -5 7 -10 4
-22 -13 -90 -12 -90 1 0 20 -40 38 -53 25 -6 -6 -7 -14 -3 -18 4 -4 11 -1 17
7 7 11 8 8 5 -12 -6 -35 -14 -48 -29 -47 -9 0 -9 2 1 6 6 2 12 11 12 19 0 9
-4 13 -9 10 -16 -10 -6 33 12 55 12 14 26 19 40 15 21 -5 21 -5 2 10 -17 13
-22 11 -57 -23 -38 -37 -39 -37 -45 -15 -4 15 -9 19 -17 13 -7 -6 -15 -4 -23
4 -9 10 -6 12 14 12 13 0 30 6 36 13 9 9 9 11 1 7 -17 -10 -27 24 -12 36 9 6
8 7 -5 3 -15 -5 -17 -2 -12 14 5 16 2 20 -14 20 -23 0 -27 16 -10 40 7 10 12
11 15 4 3 -6 10 -18 17 -26 11 -13 14 -13 31 5 15 16 16 19 4 14 -20 -7 -66
33 -60 53 3 13 2 13 -7 0 -9 -13 -11 -12 -11 4 0 12 5 16 16 12 9 -4 14 -1 12
6 -2 6 -12 12 -22 14 -15 2 -17 -3 -14 -27 5 -33 -7 -39 -17 -9 -3 11 -11 20
-16 20 -5 0 -9 7 -9 15 0 8 5 15 11 15 6 0 8 7 5 17 -4 10 -4 14 0 10 4 -4 14
2 21 13 12 16 12 24 3 35 -7 8 -10 21 -7 28 3 8 -3 21 -14 31 -24 20 -29 20
-29 1 0 -8 7 -15 15 -15 8 0 15 -9 15 -20 0 -17 -3 -19 -19 -10 -28 14 -38 12
-16 -3 18 -14 14 -37 -7 -37 -6 0 -5 7 3 17 12 15 12 16 -3 10 -21 -8 -35 10
-19 26 14 14 14 40 0 31 -8 -4 -9 4 -5 27 5 29 5 30 -4 11 -5 -13 -7 -36 -4
-50 l6 -27 -21 25 c-21 26 -28 45 -12 35 6 -3 9 4 8 15 -1 10 -8 22 -15 25
-10 4 -12 0 -8 -12 4 -9 1 -20 -6 -25 -10 -7 -9 -11 5 -22 9 -7 17 -22 17 -32
0 -16 -4 -14 -25 10 -29 34 -28 31 -13 56 10 16 10 22 -4 32 -9 7 -25 29 -35
48 -10 19 -28 49 -41 67 -12 17 -19 38 -16 47 4 9 -4 25 -20 39 -14 13 -26 29
-26 34 0 12 -38 53 -50 53 -6 0 -3 -8 5 -17 73 -85 87 -104 81 -110 -3 -3 -16
6 -29 20 -28 33 -32 33 -34 1 -1 -34 -48 -81 -57 -58 -4 9 -2 12 5 8 7 -4 10
-1 7 7 -3 8 -10 13 -16 12 -15 -4 -35 34 -26 49 4 6 3 8 -4 4 -16 -10 -22 7
-7 21 10 10 15 9 21 -5 4 -9 6 -26 5 -37 -3 -20 -2 -20 12 0 13 17 13 21 -2
32 -13 10 -14 15 -3 32 15 25 15 31 2 31 -5 0 -10 -5 -10 -11 0 -13 -29 -38
-44 -39 -4 0 -6 7 -3 14 4 10 1 13 -7 10 -7 -3 -16 3 -20 12 -8 21 2 33 13 15
7 -11 11 -10 19 6 10 17 8 19 -19 15 -17 -3 -29 0 -29 7 0 6 10 11 23 11 15 0
26 9 35 30 8 17 21 37 29 45 25 25 -1 16 -29 -10 -15 -14 -36 -25 -46 -25 -22
0 -34 -22 -25 -46 3 -9 -6 -4 -21 11 -15 15 -24 30 -20 34 4 3 9 0 11 -7 3 -6
9 -10 13 -7 10 6 -17 37 -45 52 -16 9 -16 11 -1 16 10 4 23 -1 33 -12 12 -15
22 -17 45 -10 17 4 35 12 41 18 7 5 36 17 65 26 28 10 52 21 52 26 0 5 5 9 11
9 7 0 20 10 30 21 11 12 25 19 34 15 8 -3 15 0 15 6 0 7 10 23 23 36 l22 24 6
-34 c4 -18 7 -26 8 -18z m-312 -106 c-3 -3 -12 -4 -19 -1 -8 3 -5 6 6 6 11 1
17 -2 13 -5z m797 -31 c4 -10 4 -14 0 -10 -4 4 -13 2 -21 -4 -10 -9 -13 -8
-13 5 0 10 5 14 10 11 6 -3 10 -1 10 4 0 16 7 13 14 -6z m-24 -36 l24 -27 -22
-16 c-12 -8 -19 -20 -16 -26 4 -6 2 -8 -4 -4 -6 3 -14 1 -17 -5 -4 -5 -14 -8
-22 -5 -10 4 -13 2 -10 -8 4 -10 1 -13 -7 -10 -8 3 -17 1 -21 -5 -6 -11 12
-15 48 -12 9 1 17 -3 17 -9 0 -6 -4 -8 -10 -5 -5 3 -10 1 -10 -4 0 -16 -19
-13 -37 4 -8 8 -19 12 -24 9 -6 -3 -3 -11 7 -18 15 -11 15 -13 0 -13 -9 0 -16
4 -16 9 0 5 -5 6 -10 3 -6 -3 -13 1 -16 9 -3 9 -10 16 -16 16 -5 0 -7 -4 -4
-9 3 -5 -1 -12 -10 -15 -8 -3 -12 -10 -9 -16 3 -5 -3 -10 -14 -10 -12 0 -21 5
-21 11 0 5 -4 8 -9 4 -5 -3 -12 -1 -16 5 -9 14 -25 3 -19 -13 2 -7 14 -14 26
-14 12 -1 25 -8 30 -15 7 -10 11 -9 22 4 7 10 17 14 22 10 4 -4 2 1 -5 11 -13
16 -12 18 13 13 15 -3 33 -10 40 -15 7 -6 16 -7 21 -3 4 4 4 -3 1 -15 -6 -18
-3 -23 11 -23 15 0 16 2 3 10 -12 8 -12 10 -1 10 11 0 11 3 1 15 -17 21 6 20
48 -1 40 -19 41 -28 3 -19 -24 5 -29 2 -34 -16 -4 -15 -11 -20 -22 -15 -9 3
-13 2 -10 -4 3 -6 1 -10 -4 -10 -9 0 -15 20 -13 41 1 4 -8 15 -18 24 -11 10
-20 15 -20 10 0 -4 8 -14 18 -22 15 -13 14 -14 -11 -8 -31 6 -51 -1 -41 -17 4
-6 10 -5 15 3 7 11 9 10 9 -3 0 -9 9 -18 20 -20 13 -2 17 -7 11 -16 -6 -11
-14 -10 -40 6 -17 10 -28 22 -23 27 4 4 -3 4 -15 1 -12 -4 -24 -2 -28 3 -4 7
1 8 12 5 14 -4 15 -4 4 4 -7 5 -22 7 -33 4 -10 -2 -18 -1 -17 4 4 23 -3 35
-26 46 -23 10 -23 12 -7 24 12 10 13 13 3 14 -11 0 -11 3 -1 15 16 20 22 19
48 -5 12 -12 23 -16 27 -10 3 6 12 10 18 9 7 0 2 -7 -10 -16 -13 -8 -23 -20
-23 -26 0 -7 4 -7 12 1 16 16 31 15 22 0 -6 -10 -3 -9 8 0 10 8 14 20 11 29
-5 12 -3 14 7 8 9 -5 11 -4 6 3 -4 7 -2 12 3 12 6 0 11 5 11 12 0 6 -9 3 -20
-7 -11 -10 -20 -13 -20 -7 0 13 13 22 39 27 15 3 18 0 14 -13 -6 -14 -4 -15 8
-5 8 7 25 10 37 6 12 -3 29 0 37 7 8 6 18 9 23 6 5 -3 9 1 9 9 0 10 -5 11 -18
4 -25 -13 -29 -11 -26 11 4 25 17 38 17 17 0 -9 4 -17 10 -17 5 0 7 8 3 18 -5
14 -3 14 11 -3 10 -11 15 -15 11 -8 -4 8 2 11 16 8 12 -2 18 -1 15 3 -4 4 -12
8 -17 8 -5 1 -13 2 -18 3 -6 0 -8 11 -6 22 3 12 1 18 -3 15 -4 -4 -8 -12 -8
-17 -3 -19 -4 -20 -15 -14 -7 5 -4 14 7 26 10 11 20 16 23 12 4 -5 17 -20 31
-36z m-117 -5 c-3 -12 -9 -19 -14 -16 -5 3 -4 14 2 25 13 26 20 21 12 -9z
m-643 -12 c-8 -5 -17 -7 -19 -4 -3 3 1 9 9 14 8 5 17 7 19 4 3 -3 -1 -9 -9
-14z m604 -14 c16 -3 34 -10 40 -16 8 -9 2 -10 -22 -7 -19 3 -36 8 -40 11 -3
3 -13 -8 -23 -24 -18 -29 -39 -40 -39 -20 0 6 8 10 18 11 11 0 12 2 4 6 -7 3
-19 -1 -27 -7 -10 -8 -15 -9 -15 -2 0 6 9 13 19 17 11 3 23 15 26 25 3 10 11
17 18 15 7 -3 25 -7 41 -9z m1107 -48 c6 -85 5 -138 -1 -138 -9 0 -8 -20 3
-36 9 -15 2 -120 -11 -159 -10 -29 -10 -29 -11 -5 -1 20 -3 22 -11 10 -5 -8
-10 -10 -10 -5 0 6 5 17 10 25 9 13 10 13 10 0 0 -13 2 -13 9 0 7 10 4 18 -9
27 -16 11 -18 22 -14 66 3 29 7 58 9 65 2 6 0 12 -5 12 -6 0 -10 9 -10 20 0
11 6 19 13 18 13 -3 14 16 1 46 -5 14 -4 17 4 12 8 -5 10 2 6 24 -4 19 -2 30
5 30 6 0 11 -6 12 -12z m-857 -63 c-4 -8 -10 -15 -14 -15 -5 0 -10 -7 -12 -15
-2 -10 -7 -12 -18 -5 -13 9 -11 13 10 30 30 24 41 25 34 5z m-656 -50 c12 -14
22 -29 22 -34 0 -5 3 -11 8 -13 4 -1 19 -21 33 -43 30 -46 47 -91 30 -81 -17
11 6 -45 33 -79 20 -25 26 -28 40 -16 10 8 16 9 16 3 0 -6 14 -27 31 -46 18
-21 27 -40 23 -47 -5 -9 -10 -5 -16 10 -6 19 -11 21 -22 12 -10 -8 -16 -9 -21
-1 -10 16 -25 12 -18 -6 5 -13 2 -15 -15 -9 -14 4 -22 2 -22 -5 0 -6 5 -8 10
-5 6 3 10 1 10 -6 0 -7 8 -5 20 6 19 17 20 17 21 -1 0 -15 2 -14 11 6 8 19 12
21 16 10 11 -32 65 -91 78 -86 17 6 17 1 3 -25 -5 -11 -14 -17 -20 -14 -14 10
-11 -2 7 -20 12 -12 13 -19 5 -29 -8 -10 -7 -16 4 -26 10 -9 15 -9 15 -1 0 6
5 11 11 11 6 0 8 -7 5 -16 -4 -9 -2 -13 5 -8 7 4 10 1 7 -6 -2 -7 -16 -14 -32
-16 -19 -2 -26 1 -23 10 3 7 1 19 -5 27 -7 11 -8 9 -3 -6 5 -15 3 -17 -5 -9
-9 9 -9 17 -1 32 13 24 2 35 -19 20 -12 -8 -11 -8 5 -3 17 5 18 4 7 -7 -11
-11 -18 -8 -38 17 -34 40 -44 67 -31 83 5 7 7 15 3 19 -3 3 -6 1 -6 -5 0 -24
-26 -11 -58 31 -19 23 -69 96 -112 162 -59 90 -78 126 -73 143 3 13 1 22 -7
22 -6 0 -8 5 -4 11 5 8 13 4 26 -12 18 -22 18 -22 9 -2 -16 33 -14 48 4 33 9
-8 15 -9 15 -2 0 6 -4 14 -10 17 -12 7 -13 25 -2 25 5 0 18 -11 30 -25z m114
-187 c-7 -7 -12 -8 -12 -2 0 14 12 26 19 19 2 -3 -1 -11 -7 -17z m788 7 c0 -8
-4 -15 -10 -15 -5 0 -10 7 -10 15 0 8 5 15 10 15 6 0 10 -7 10 -15z m585 -85
c3 -5 1 -10 -4 -10 -6 0 -11 5 -11 10 0 6 2 10 4 10 3 0 8 -4 11 -10z m-512
-31 c-23 -8 -27 -4 -19 17 5 14 9 14 22 3 14 -12 14 -14 -3 -20z m-701 -11
c-7 -7 -12 -8 -12 -2 0 5 -4 2 -10 -6 -5 -8 -12 -12 -15 -8 -10 10 29 46 40
37 5 -6 4 -14 -3 -21z m1188 -52 c-8 -8 -9 -4 -6 14 2 14 6 34 7 45 1 11 4 5
6 -14 3 -18 0 -38 -7 -45z m-1746 12 c1 -7 12 -28 24 -46 13 -18 18 -32 12
-32 -6 0 -15 10 -20 23 -6 16 -9 18 -9 5 -1 -10 10 -25 23 -33 26 -17 52 -68
42 -83 -3 -6 -1 -21 4 -34 10 -22 10 -22 5 5 -8 40 7 32 29 -16 11 -23 30 -56
43 -74 20 -25 22 -36 14 -52 -16 -29 -13 -38 5 -15 8 10 13 14 10 7 -8 -14 13
-63 27 -63 5 0 4 7 -3 15 -7 9 -10 18 -7 21 10 10 25 -31 22 -64 -2 -39 -7
-44 -29 -36 -17 7 -22 34 -6 34 6 0 10 5 10 10 0 6 -4 10 -9 10 -10 0 -34 -61
-26 -68 3 -3 5 0 5 7 0 9 5 9 22 0 18 -10 24 -8 38 11 13 17 19 19 25 10 4 -7
2 -15 -4 -19 -7 -5 -3 -12 13 -20 13 -8 27 -24 30 -37 4 -13 11 -24 16 -24 6
0 10 -5 10 -12 0 -6 -10 -3 -22 8 -12 10 -18 14 -15 7 4 -6 3 -14 -3 -18 -5
-3 -10 -11 -10 -17 0 -6 6 -6 15 2 13 11 18 10 30 -6 15 -18 15 -18 9 1 -5 15
1 12 19 -10 14 -16 23 -32 20 -35 -3 -3 -8 1 -10 8 -3 6 -9 12 -14 12 -6 0 -7
-4 -4 -10 3 -5 1 -10 -4 -10 -6 0 -11 5 -11 11 0 5 -4 8 -10 4 -5 -3 -17 -1
-27 4 -10 5 -27 13 -38 16 -13 5 -15 9 -7 12 23 9 12 20 -15 16 -22 -3 -24 -2
-9 5 26 11 4 26 -25 17 -23 -8 -52 12 -42 28 4 6 0 8 -10 4 -19 -7 -67 11 -67
25 0 5 4 7 9 4 10 -6 3 55 -6 64 -3 3 -3 -7 -1 -22 11 -59 -22 -11 -38 56 -5
20 -4 27 4 22 8 -5 10 2 6 24 -5 25 -3 30 12 31 11 0 14 3 7 6 -7 2 -13 12
-13 21 0 13 -2 12 -14 -3 -8 -11 -12 -23 -10 -27 3 -5 1 -8 -4 -8 -13 0 -22
76 -21 157 2 55 4 61 15 45 14 -18 18 -13 8 12 -3 9 -12 16 -18 16 -8 0 -11
11 -8 29 2 16 0 37 -6 47 -5 11 -7 25 -5 32 6 15 14 10 17 -10z m1466 -7 c0
-16 -12 -41 -20 -41 -4 0 -5 11 -2 25 4 23 22 36 22 16z m276 -58 c-5 -28 -4
-34 3 -23 9 13 11 13 11 -2 0 -9 -4 -19 -9 -23 -5 -3 -8 -32 -6 -65 2 -34 0
-60 -5 -60 -6 0 -10 5 -10 12 0 6 -3 8 -7 5 -3 -4 3 -16 14 -27 19 -17 20 -23
10 -50 -10 -27 -16 -31 -40 -26 -15 3 -26 2 -22 -3 3 -5 -6 -4 -19 2 -13 6
-22 17 -19 23 2 7 -5 15 -16 19 -28 9 -26 29 3 49 14 8 27 25 31 36 4 11 11
17 17 14 7 -5 9 0 6 14 -7 26 -4 27 15 8 13 -13 15 -12 15 11 0 18 -3 21 -9
12 -7 -11 -9 -11 -9 2 0 8 4 19 9 25 5 5 14 26 21 47 6 20 14 37 17 37 3 0 2
-17 -1 -37z m-334 -83 c12 -11 28 -20 35 -20 7 0 13 -4 13 -10 0 -5 -9 -10
-19 -10 -11 0 -23 -5 -26 -10 -4 -7 2 -9 18 -5 23 6 39 1 76 -24 12 -8 12 -11
0 -23 -8 -8 -21 -13 -29 -10 -12 4 -12 2 -3 -8 9 -9 16 -10 25 -3 18 14 78 8
89 -8 5 -9 4 -15 -4 -18 -7 -2 -25 -13 -40 -24 l-29 -20 -61 64 c-33 35 -60
70 -58 78 1 7 -2 10 -8 7 -9 -6 -71 46 -71 59 0 15 74 2 92 -15z m-812 -25
c-7 -9 -15 -13 -17 -11 -7 7 7 26 19 26 6 0 6 -6 -2 -15z m-20 -90 c0 -8 9
-15 20 -15 11 0 20 -7 20 -15 0 -8 6 -15 13 -15 8 0 19 -11 25 -25 9 -20 19
-25 44 -24 18 0 27 3 21 6 -18 7 -16 30 2 30 8 0 12 -4 9 -9 -3 -4 0 -8 5 -8
6 0 11 4 11 10 0 5 9 9 20 7 27 -4 38 -17 14 -17 -25 0 -79 -54 -69 -69 3 -6
10 -9 15 -6 4 3 11 -2 14 -11 3 -8 10 -13 15 -9 5 3 12 1 16 -5 4 -6 10 -8 14
-6 4 3 13 1 21 -5 10 -6 11 -9 3 -9 -7 0 -13 -5 -13 -11 0 -5 4 -8 9 -5 4 3
16 -1 26 -8 17 -13 17 -13 -6 -11 -13 1 -24 3 -24 4 0 2 -8 4 -18 6 -13 2 -17
-1 -13 -10 6 -17 -10 -30 -19 -16 -3 6 3 19 14 30 20 20 18 36 -3 23 -17 -11
-107 -11 -100 0 3 5 12 7 20 4 7 -3 16 -1 19 3 3 5 15 7 27 3 14 -3 19 -2 14
7 -4 6 -11 9 -16 6 -5 -3 -15 3 -21 14 -7 10 -20 17 -28 14 -9 -2 -5 2 8 10
15 9 20 17 12 21 -6 4 -11 3 -11 -2 0 -6 -9 -8 -20 -5 -10 3 -19 8 -18 12 2
18 -3 31 -14 31 -6 0 -20 8 -31 18 -11 9 -17 11 -13 5 9 -16 -8 -17 -36 -2
-15 8 -19 8 -14 0 4 -6 5 -11 2 -11 -2 0 -10 -2 -18 -5 -8 -3 -13 3 -14 19 -2
21 1 23 31 16 18 -4 39 -4 46 1 10 6 6 9 -13 9 -30 0 -31 1 -22 24 8 20 24 21
24 1z m-4 -77 c5 -8 2 -9 -9 -5 -9 3 -23 0 -31 -8 -7 -8 -16 -11 -20 -8 -3 4
-6 1 -6 -5 0 -7 9 -12 20 -12 11 0 20 -5 20 -11 0 -5 -4 -8 -9 -5 -9 6 -25
-23 -17 -32 3 -2 16 -6 30 -7 13 -2 33 -6 45 -10 12 -4 21 -2 21 4 0 6 -3 10
-7 10 -20 -3 -46 2 -40 7 3 4 1 16 -5 28 -10 19 -10 20 5 7 15 -12 17 -11 17
3 0 11 -9 16 -26 16 -14 0 -23 4 -19 10 4 6 11 8 16 4 6 -3 18 1 27 9 16 14
20 14 42 -3 14 -11 19 -20 13 -20 -16 0 -17 -26 -1 -36 7 -4 8 -3 4 4 -4 7 -1
12 9 12 9 0 13 -5 10 -10 -3 -6 6 -15 20 -20 15 -6 23 -15 19 -21 -4 -8 -9 -8
-17 0 -8 8 -15 7 -26 -3 -9 -8 -27 -16 -41 -18 -25 -3 -25 -3 -6 -22 17 -17
19 -17 13 -2 -4 10 -3 15 3 11 6 -4 35 -7 64 -7 38 -1 53 -5 49 -14 -2 -6 5
-19 17 -27 17 -12 19 -17 8 -23 -7 -5 -17 -9 -22 -9 -5 0 -10 -10 -11 -22 -1
-15 3 -20 16 -18 13 3 16 -1 12 -13 -5 -11 -8 -12 -11 -3 -3 9 -10 8 -29 -4
l-24 -16 16 28 c16 27 16 27 -1 5 -16 -21 -17 -21 -30 -5 -16 21 -18 37 -4 28
6 -3 10 -1 10 4 0 6 5 11 12 11 9 0 9 -3 0 -12 -7 -7 -12 -16 -12 -21 0 -12
18 1 30 23 8 16 6 18 -15 15 -17 -1 -25 3 -25 12 0 9 6 13 15 9 17 -6 21 9 5
19 -6 4 -8 11 -5 16 12 18 -7 9 -26 -13 l-20 -23 6 23 c4 13 2 22 -5 22 -6 0
-8 -4 -5 -10 3 -5 0 -10 -7 -10 -8 -1 -5 -7 7 -18 11 -9 20 -23 19 -29 -1 -7
-2 -18 -3 -23 -1 -7 -8 -7 -22 1 -15 8 -24 8 -32 0 -20 -20 -31 -11 -12 9 12
13 25 18 38 14 19 -6 19 -5 -1 17 -12 12 -25 31 -28 42 -4 13 -12 17 -25 14
-10 -3 -22 -1 -25 4 -3 5 2 9 10 9 9 0 16 5 16 10 0 12 -22 9 -32 -5 -5 -6 -8
-5 -8 3 0 6 -6 12 -14 12 -8 0 -18 9 -21 20 -4 11 -11 17 -17 14 -7 -4 -8 -2
-4 4 4 7 0 12 -11 13 -11 0 -13 3 -5 6 7 3 19 0 26 -6 7 -6 16 -8 20 -4 4 4
-8 13 -26 19 -27 10 -29 13 -10 13 12 1 22 5 22 9 0 5 12 13 28 19 37 15 40
15 48 1z m1144 -8 c0 -5 -4 -10 -10 -10 -5 0 -10 5 -10 10 0 6 5 10 10 10 6 0
10 -4 10 -10z m-1442 -46 c12 -8 22 -12 22 -8 0 3 6 2 13 -4 6 -6 29 -13 50
-17 31 -6 40 -14 52 -42 8 -20 15 -37 15 -39 0 -1 -13 1 -29 6 -16 4 -32 6
-35 3 -3 -3 -17 2 -31 11 -14 9 -25 12 -25 6 0 -6 7 -13 15 -16 8 -4 13 -9 11
-13 -2 -3 12 -6 32 -7 21 -1 51 -4 67 -9 28 -7 61 -12 95 -14 20 -1 53 -57 44
-73 -5 -7 4 -3 20 9 15 12 34 19 42 16 19 -7 18 -16 -6 -31 -22 -14 -27 -3 -7
18 10 12 9 12 -6 0 -10 -7 -16 -19 -13 -26 3 -7 1 -16 -4 -19 -6 -4 -10 0 -11
7 0 9 -2 9 -5 1 -4 -8 -13 -9 -34 -1 -16 5 -35 8 -42 5 -7 -2 4 -8 24 -12 34
-6 36 -9 27 -27 -8 -15 -8 -19 1 -13 6 4 20 -1 32 -11 11 -10 25 -19 31 -20 7
0 20 -2 30 -2 10 -1 17 -10 17 -22 0 -12 5 -17 13 -14 7 2 24 1 37 -4 19 -7
20 -10 7 -15 -10 -4 -17 -3 -17 1 0 4 -24 7 -52 6 -36 -1 -77 8 -128 27 -63
24 -81 36 -115 79 -22 27 -43 50 -47 50 -5 0 -8 7 -8 15 0 8 -4 15 -8 15 -12
0 -57 82 -54 98 2 6 -4 12 -13 12 -9 0 -13 5 -10 10 3 6 2 10 -3 10 -8 0 -32
51 -32 66 0 8 17 3 38 -12z m284 -26 c-6 -6 -16 -7 -22 -3 -9 6 -9 9 1 16 17
10 34 0 21 -13z m-91 -33 c39 -7 43 -10 34 -25 -5 -8 -11 -8 -21 1 -8 6 -17 9
-21 6 -3 -4 6 -12 20 -18 31 -14 26 -29 -8 -29 -17 0 -29 9 -40 30 -16 32 -20
54 -7 46 5 -3 24 -8 43 -11z m406 -11 c17 -2 43 -17 43 -24 0 -11 -40 -25 -60
-22 -9 2 -11 0 -5 -5 13 -11 17 -33 6 -33 -5 0 -11 7 -15 15 -3 8 -13 15 -21
15 -9 0 -13 -5 -10 -10 4 -6 11 -8 16 -5 5 4 9 2 9 -3 0 -5 -13 -12 -29 -14
-24 -4 -28 -1 -28 19 0 13 4 26 10 30 6 3 7 1 3 -6 -6 -9 0 -10 21 -5 40 10
41 10 37 46 -3 24 -1 29 6 18 5 -8 13 -15 17 -16z m-327 -19 c11 -13 10 -15
-6 -10 -12 4 -11 1 4 -6 20 -11 27 -32 9 -30 -4 1 -16 1 -27 1 -11 0 -20 5
-20 11 0 5 6 7 13 3 8 -6 8 -3 -1 9 -13 16 -9 37 7 37 5 0 14 -7 21 -15z m53
-30 c16 -22 16 -25 2 -25 -9 0 -14 -4 -10 -9 7 -13 -12 -24 -26 -16 -7 5 -5
13 6 25 11 12 13 20 6 25 -13 7 -15 25 -3 25 4 0 15 -12 25 -25z m350 1 c17
-13 16 -14 -3 -19 -11 -3 -23 -1 -26 4 -3 5 -11 9 -17 9 -8 0 -8 -3 1 -9 11
-7 11 -9 -1 -14 -7 -3 -20 -2 -27 3 -9 6 -5 12 16 24 35 19 35 19 57 2z m47
-36 c0 -5 7 -10 15 -10 8 0 15 -4 15 -10 0 -5 5 -10 11 -10 6 0 17 -6 24 -14
12 -11 7 -15 -35 -20 -66 -9 -64 -9 -68 2 -1 5 10 8 25 6 28 -4 28 -4 3 5 -21
8 -22 9 -5 10 20 2 20 2 1 16 -11 8 -25 15 -30 15 -6 0 -5 -4 3 -9 20 -13 5
-30 -21 -23 -14 3 -19 2 -14 -7 4 -6 11 -9 16 -6 4 3 10 -2 14 -10 4 -11 -2
-15 -23 -15 -16 0 -43 -3 -61 -7 -26 -5 -32 -3 -28 8 3 8 1 22 -4 32 -6 11 -5
17 3 17 7 0 9 3 6 6 -4 4 -13 1 -22 -6 -11 -9 -15 -9 -15 -1 0 7 -5 9 -11 5
-8 -4 -7 -9 2 -15 8 -5 10 -9 5 -9 -5 0 1 -11 14 -25 17 -19 20 -25 8 -25 -8
0 -21 11 -28 25 -7 13 -17 22 -22 19 -5 -3 -7 0 -6 8 2 7 -3 12 -9 10 -7 -1
-13 2 -13 7 0 9 41 18 106 23 17 1 39 -4 48 -11 14 -12 19 -12 29 -1 9 10 9
11 0 6 -7 -4 -19 -4 -25 1 -9 5 -1 10 22 14 55 10 70 10 70 -1z m-328 -58 c-7
-2 -10 -8 -7 -12 3 -5 0 -12 -6 -16 -8 -5 -9 -3 -4 6 5 9 4 11 -4 6 -6 -4 -9
-12 -6 -17 4 -5 -4 -9 -17 -9 -22 0 -22 1 7 28 17 16 34 26 40 23 5 -2 4 -6
-3 -9z m163 -2 c3 -5 2 -10 -4 -10 -5 0 -13 5 -16 10 -3 6 -2 10 4 10 5 0 13
-4 16 -10z m-80 -65 c17 -5 33 -8 38 -7 4 1 7 -5 7 -14 0 -11 4 -14 13 -8 17
13 50 11 54 -3 3 -7 -3 -9 -16 -6 -12 3 -21 1 -21 -6 0 -16 -30 -14 -36 3 -5
14 -34 27 -65 30 -8 0 -24 9 -33 19 -10 10 -23 16 -30 14 -13 -4 -17 -47 -4
-47 5 0 8 6 6 14 -2 8 2 14 7 13 6 -1 10 -12 9 -23 0 -23 22 -26 35 -5 6 10
10 9 14 -4 4 -9 3 -13 -3 -10 -6 4 -7 -1 -3 -11 5 -15 7 -15 15 0 12 22 35 20
48 -3 11 -22 37 -22 50 -1 7 12 10 11 16 -4 4 -12 9 -14 14 -6 4 6 18 12 31
13 13 1 32 12 42 24 10 13 28 24 40 24 20 1 21 2 2 6 -30 7 -41 21 -27 35 8 8
12 8 12 1 0 -16 28 -24 36 -11 4 6 3 8 -4 4 -6 -3 -13 -2 -16 3 -6 9 48 21 95
21 15 0 29 -7 33 -15 3 -8 13 -15 23 -15 12 0 14 -3 6 -11 -15 -15 -72 -15
-86 1 -10 10 -5 11 23 6 30 -5 32 -5 11 4 -14 6 -30 9 -37 6 -7 -3 -15 -2 -17
2 -2 4 -2 2 -1 -5 2 -6 -5 -14 -14 -16 -9 -3 -3 -5 13 -6 39 -2 17 -17 -37
-26 -20 -4 -43 -14 -50 -22 -12 -14 -11 -15 9 -5 12 7 28 12 37 12 8 0 27 5
43 11 15 6 44 12 63 13 19 2 46 6 60 10 24 7 24 6 6 -8 -18 -14 -58 -21 -93
-17 -7 1 -13 -2 -13 -7 0 -5 -28 -14 -62 -20 -35 -6 -74 -14 -88 -17 -14 -4
-39 -8 -57 -10 -18 -2 -37 -6 -43 -10 -5 -3 -10 -1 -10 6 0 7 -4 8 -12 2 -14
-10 -20 -10 -56 2 -13 4 -21 13 -18 21 3 8 0 11 -9 8 -8 -3 -27 3 -43 15 -22
15 -32 17 -40 9 -12 -12 -13 -10 -16 15 0 6 -7 12 -13 12 -7 0 -12 5 -10 10 1
6 7 8 12 6 22 -8 49 -1 69 18 l20 21 21 -23 c11 -13 34 -28 50 -32z m37 34
c-2 -18 38 -35 48 -20 8 13 100 22 100 10 0 -6 -5 -7 -12 -3 -7 4 -8 3 -4 -4
4 -7 15 -12 24 -12 14 0 15 -2 2 -9 -8 -6 -17 -8 -21 -5 -4 2 -11 -1 -15 -7
-5 -8 -3 -9 6 -4 8 5 11 3 8 -5 -5 -17 -40 -22 -50 -7 -14 21 -9 37 10 31 14
-5 14 -4 2 4 -9 7 -19 7 -26 2 -6 -6 -14 -7 -17 -3 -4 3 -7 1 -7 -4 0 -14 -23
-11 -41 4 -8 6 -18 11 -24 11 -5 0 -11 6 -13 14 -2 9 0 8 8 -2 9 -12 11 -12 8
-1 -2 8 -11 15 -20 17 -11 1 -15 -3 -11 -12 5 -14 -8 -19 -20 -8 -14 14 7 32
36 31 24 -2 31 -6 29 -18z m-412 -19 c13 -8 13 -10 -2 -10 -9 0 -20 5 -23 10
-8 13 5 13 25 0z"/>
<path d="M1910 1600 c0 -5 5 -10 11 -10 5 0 7 5 4 10 -3 6 -8 10 -11 10 -2 0
-4 -4 -4 -10z"/>
<path d="M1930 1490 c0 -5 5 -10 11 -10 5 0 7 5 4 10 -3 6 -8 10 -11 10 -2 0
-4 -4 -4 -10z"/>
<path d="M505 1680 c-3 -5 -2 -17 3 -26 8 -14 10 -12 14 10 5 26 -5 35 -17 16z"/>
<path d="M440 1610 c0 -5 5 -10 10 -10 6 0 10 5 10 10 0 6 -4 10 -10 10 -5 0
-10 -4 -10 -10z"/>
<path d="M550 1584 c0 -16 5 -36 11 -44 7 -11 8 -4 3 25 -8 50 -14 58 -14 19z"/>
<path d="M522 1570 c0 -19 2 -27 5 -17 2 9 2 25 0 35 -3 9 -5 1 -5 -18z"/>
<path d="M368 1583 c-10 -2 -18 -9 -18 -14 0 -13 12 -11 34 6 20 15 16 17 -16
8z"/>
<path d="M488 1541 c-3 -19 0 -27 7 -24 7 2 10 15 7 29 -6 31 -9 30 -14 -5z"/>
<path d="M371 1541 c-11 -7 -10 -10 5 -15 10 -3 2 -3 -18 0 -31 4 -38 1 -43
-16 -4 -12 -4 -24 -1 -27 3 -4 6 2 6 11 0 15 7 17 45 14 35 -2 44 0 40 10 -3
8 -5 18 -5 23 0 11 -11 11 -29 0z"/>
<path d="M430 1520 c-8 -5 -11 -12 -7 -17 5 -4 12 -1 18 7 8 13 10 13 20 0 9
-12 10 -12 7 -1 -5 19 -19 23 -38 11z"/>
<path d="M530 1510 c0 -5 5 -10 10 -10 6 0 10 5 10 10 0 6 -4 10 -10 10 -5 0
-10 -4 -10 -10z"/>
<path d="M560 1504 c0 -8 5 -12 10 -9 6 3 10 10 10 16 0 5 -4 9 -10 9 -5 0
-10 -7 -10 -16z"/>
<path d="M385 1481 c-3 -5 -1 -12 5 -16 5 -3 10 1 10 9 0 18 -6 21 -15 7z"/>
<path d="M452 1469 c2 -6 8 -10 13 -10 5 0 11 4 13 10 2 6 -4 11 -13 11 -9 0
-15 -5 -13 -11z"/>
<path d="M516 1451 c-4 -5 3 -12 14 -16 11 -3 20 -11 20 -16 0 -5 16 -26 35
-46 19 -20 35 -33 35 -28 -1 17 -98 116 -104 106z"/>
<path d="M567 1453 c-4 -6 0 -19 8 -29 11 -15 14 -16 15 -4 0 21 -16 44 -23
33z"/>
<path d="M601 1444 c13 -16 29 -19 29 -5 0 5 -9 11 -21 14 -16 4 -18 3 -8 -9z"/>
<path d="M303 1435 c-3 -9 -3 -19 1 -22 3 -4 6 1 6 10 0 8 8 18 18 20 16 4 16
5 -1 6 -10 0 -20 -6 -24 -14z"/>
<path d="M432 1436 c7 -8 17 -12 22 -9 4 3 2 9 -5 14 -22 13 -31 11 -17 -5z"/>
<path d="M486 1435 c4 -8 11 -15 16 -15 6 0 5 6 -2 15 -7 8 -14 15 -16 15 -2
0 -1 -7 2 -15z"/>
<path d="M470 1421 c0 -6 4 -13 10 -16 6 -3 7 1 4 9 -7 18 -14 21 -14 7z"/>
<path d="M370 1414 c0 -6 7 -19 16 -30 14 -18 14 -18 3 6 -14 31 -19 36 -19
24z"/>
<path d="M346 1391 c-4 -7 -5 -15 -2 -18 9 -9 19 4 14 18 -4 11 -6 11 -12 0z"/>
<path d="M450 1390 c0 -5 5 -10 10 -10 6 0 10 5 10 10 0 6 -4 10 -10 10 -5 0
-10 -4 -10 -10z"/>
<path d="M509 1373 c6 -13 19 -23 28 -23 9 0 14 1 12 3 -2 1 -15 11 -28 22
l-24 20 12 -22z"/>
<path d="M562 1355 c12 -26 28 -34 28 -12 0 7 -9 18 -20 25 -18 11 -19 10 -8
-13z"/>
<path d="M370 1360 c0 -5 5 -10 11 -10 5 0 7 5 4 10 -3 6 -8 10 -11 10 -2 0
-4 -4 -4 -10z"/>
<path d="M470 1367 c0 -2 9 -14 20 -27 12 -13 18 -30 16 -37 -6 -15 13 -63 26
-63 13 0 9 16 -7 30 -11 9 -12 16 -5 25 6 7 8 19 5 26 -6 13 -55 55 -55 46z"/>
<path d="M660 1344 c0 -6 5 -15 12 -22 9 -9 8 -12 -5 -12 -9 0 -21 8 -27 18
-10 15 -11 14 -7 -5 3 -13 -3 -33 -12 -45 -9 -13 -22 -36 -29 -51 -11 -26 -14
-27 -28 -13 -19 20 -25 20 -18 1 4 -8 10 -15 15 -15 4 0 6 -7 3 -15 -4 -9 0
-15 10 -15 10 0 13 6 10 15 -4 8 -2 15 4 15 6 0 12 -6 15 -12 2 -8 8 -9 13 -4
5 5 4 11 -3 13 -7 3 -13 11 -13 19 0 11 5 12 18 6 9 -5 28 -5 42 -1 l25 9 -26
-3 c-25 -3 -57 19 -44 31 3 3 10 0 15 -8 5 -8 13 -11 17 -6 4 5 2 11 -4 13
-20 7 -15 22 5 18 9 -2 20 -4 24 -4 3 -1 8 -9 11 -18 2 -10 4 -4 4 13 0 17 3
36 6 41 4 6 -2 18 -13 28 -11 10 -20 14 -20 9z m20 -53 c0 -6 -9 -9 -20 -8
-11 1 -20 5 -20 9 0 4 9 8 20 8 11 0 20 -4 20 -9z"/>
<path d="M362 1320 c9 -14 14 -16 20 -7 12 18 10 23 -12 24 -17 1 -18 -1 -8
-17z"/>
<path d="M557 1311 c3 -12 1 -21 -6 -21 -12 0 -3 -31 12 -42 6 -3 21 7 35 24
19 23 22 32 13 41 -9 9 -11 8 -6 -4 4 -10 -3 -22 -19 -33 -22 -14 -26 -14 -26
-2 0 8 7 16 16 18 14 3 13 6 -4 21 -20 18 -20 18 -15 -2z"/>
<path d="M994 1268 c4 -18 28 -21 49 -6 16 12 15 13 -8 14 -14 1 -22 -2 -19
-7 3 -5 1 -9 -5 -9 -5 0 -12 5 -14 10 -3 6 -4 5 -3 -2z"/>
<path d="M781 1243 c0 -13 4 -23 9 -23 6 0 10 -4 10 -10 0 -5 -9 -10 -20 -10
-11 0 -20 5 -20 10 0 6 -10 10 -22 9 -22 0 -22 -1 -3 -9 11 -5 16 -9 10 -10
-5 -1 -1 -5 10 -9 11 -5 30 -3 44 3 19 8 26 7 36 -7 7 -9 18 -17 26 -17 10 1
9 4 -3 14 -10 7 -15 15 -12 18 3 3 -8 12 -25 19 -17 8 -32 20 -35 29 -2 9 -4
5 -5 -7z"/>
<path d="M1035 1244 c-34 -18 -48 -30 -23 -21 9 3 29 2 45 -4 l28 -9 -28 4
c-15 2 -30 -1 -33 -5 -3 -5 -13 -9 -24 -9 -13 0 -17 -6 -14 -22 2 -13 -2 -6
-9 14 -10 29 -15 35 -27 28 -13 -9 -13 -10 0 -11 10 0 8 -3 -5 -9 -17 -7 -18
-9 -2 -9 10 -1 25 -16 34 -36 9 -19 21 -35 27 -35 6 0 5 5 -2 12 -19 19 -14
28 12 28 14 0 27 4 31 9 3 6 -3 8 -15 6 -11 -2 -22 0 -25 5 -8 13 37 23 79 17
20 -3 36 -1 36 4 0 5 -7 9 -15 9 -8 0 -15 5 -15 10 0 6 -12 11 -27 11 -24 2
-25 2 -5 6 12 2 22 9 22 14 0 13 -10 11 -45 -7z"/>
<path d="M642 1198 c-8 -8 -2 -20 27 -50 21 -21 44 -38 50 -38 6 0 11 -4 11
-10 0 -19 17 -10 29 17 11 24 9 29 -18 54 -17 15 -33 24 -36 19 -9 -15 5 -36
26 -37 26 -2 39 -14 21 -20 -6 -3 -10 -9 -6 -14 12 -20 -15 -7 -55 27 -24 21
-40 42 -37 50 7 17 4 18 -12 2z"/>
<path d="M675 1201 c-3 -5 -1 -12 4 -15 5 -3 11 1 15 9 6 16 -9 21 -19 6z"/>
<path d="M880 1180 c0 -5 5 -10 11 -10 5 0 7 5 4 10 -3 6 -8 10 -11 10 -2 0
-4 -4 -4 -10z"/>
<path d="M795 1170 c-3 -5 -1 -10 4 -10 6 0 11 5 11 10 0 6 -2 10 -4 10 -3 0
-8 -4 -11 -10z"/>
<path d="M1100 1172 c0 -5 6 -9 13 -9 6 0 21 -4 32 -8 16 -7 18 -6 8 5 -15 16
-53 24 -53 12z"/>
<path d="M620 1160 c0 -5 5 -10 11 -10 5 0 7 5 4 10 -3 6 -8 10 -11 10 -2 0
-4 -4 -4 -10z"/>
<path d="M910 1150 c0 -5 7 -10 15 -10 8 0 15 5 15 10 0 6 -7 10 -15 10 -8 0
-15 -4 -15 -10z"/>
<path d="M1040 1150 c0 -13 11 -13 30 0 12 8 11 10 -7 10 -13 0 -23 -4 -23
-10z"/>
<path d="M800 1139 c0 -5 4 -7 10 -4 5 3 21 -2 35 -11 26 -17 35 -8 13 14 -15
15 -58 16 -58 1z"/>
<path d="M880 1113 c0 -14 2 -15 9 -4 7 11 10 9 16 -8 8 -25 20 -27 29 -5 9
24 7 31 -4 14 -9 -13 -12 -13 -21 3 -5 9 -14 17 -19 17 -6 0 -10 -8 -10 -17z"/>
<path d="M957 1119 c7 -7 15 -10 18 -7 3 3 -2 9 -12 12 -14 6 -15 5 -6 -5z"/>
<path d="M1024 1122 c4 -3 14 -7 22 -8 9 -1 13 0 10 4 -4 3 -14 7 -22 8 -9 1
-13 0 -10 -4z"/>
<path d="M766 1093 c-14 -15 -23 -29 -21 -32 3 -2 13 6 24 17 10 12 23 22 30
22 6 0 11 5 11 10 0 18 -19 11 -44 -17z"/>
<path d="M820 1094 c0 -10 31 -36 37 -31 3 3 -2 13 -10 22 -16 15 -27 19 -27
9z"/>
<path d="M882 1062 c-6 -19 -7 -32 -1 -32 5 0 9 8 10 18 0 13 3 12 11 -5 13
-26 23 -29 31 -9 4 10 1 13 -7 10 -9 -3 -17 5 -23 23 l-9 27 -12 -32z"/>
<path d="M941 1074 c0 -11 3 -14 6 -6 3 7 2 16 -1 19 -3 4 -6 -2 -5 -13z"/>
<path d="M776 1059 c-10 -15 -20 -19 -32 -15 -16 6 -16 4 2 -16 41 -48 42 -49
40 -24 -1 16 -6 22 -16 18 -13 -5 -13 -3 -1 11 7 9 16 15 20 13 4 -3 7 4 7 15
0 24 -2 24 -20 -2z"/>
<path d="M810 1041 c0 -25 6 -27 13 -6 4 8 2 17 -3 20 -6 4 -10 -3 -10 -14z"/>
<path d="M957 1045 c-3 -7 5 -10 24 -7 35 5 36 8 5 14 -14 3 -27 0 -29 -7z"/>
<path d="M1051 1051 c-10 -6 -9 -10 5 -15 20 -8 25 -4 16 11 -4 7 -13 9 -21 4z"/>
<path d="M835 1030 c-3 -5 -1 -10 4 -10 6 0 11 5 11 10 0 6 -2 10 -4 10 -3 0
-8 -4 -11 -10z"/>
<path d="M1022 1019 c2 -7 10 -15 17 -17 8 -3 12 1 9 9 -2 7 -10 15 -17 17 -8
3 -12 -1 -9 -9z"/>
<path d="M1122 1010 c0 -14 2 -19 5 -12 2 6 2 18 0 25 -3 6 -5 1 -5 -13z"/>
<path d="M860 1000 c0 -10 5 -22 12 -26 7 -5 8 -3 3 6 -4 7 -2 15 5 20 8 5 7
9 -4 13 -11 5 -16 1 -16 -13z"/>
<path d="M945 1010 c-3 -4 6 -10 20 -12 14 -3 25 -2 25 2 0 11 -39 20 -45 10z"/>
<path d="M1289 1011 c7 -5 17 -15 22 -22 6 -10 8 -7 6 9 -1 15 -8 22 -22 22
-15 0 -17 -2 -6 -9z"/>
<path d="M1060 990 c0 -5 5 -10 10 -10 6 0 10 5 10 10 0 6 -4 10 -10 10 -5 0
-10 -4 -10 -10z"/>
<path d="M752 969 c-8 -12 -9 -18 -3 -15 5 4 13 1 17 -5 4 -8 9 -7 16 2 7 11
9 9 5 -6 -3 -11 -8 -28 -12 -37 -6 -14 -2 -18 15 -18 19 0 20 2 10 15 -19 23
-7 28 16 6 18 -17 22 -17 40 -3 17 13 17 14 1 8 -27 -9 -46 5 -21 16 13 6 10
6 -11 2 -16 -3 -27 -2 -23 2 12 11 -11 34 -28 27 -10 -4 -12 0 -8 11 9 22 1
20 -14 -5z"/>
<path d="M900 980 c0 -5 7 -7 15 -4 8 4 15 1 15 -5 0 -6 -5 -11 -12 -11 -6 0
-9 -2 -7 -4 2 -3 20 -1 39 4 23 5 27 8 13 9 -12 1 -25 6 -28 11 -8 13 -35 13
-35 0z"/>
<path d="M1016 966 c4 -11 18 -20 67 -44 4 -2 7 1 7 7 0 6 -7 11 -15 11 -8 0
-15 5 -15 10 0 6 -7 10 -16 10 -8 0 -12 5 -9 10 3 6 -1 10 -9 10 -9 0 -13 -6
-10 -14z"/>
<path d="M846 956 c10 -8 21 -12 24 -10 5 6 -21 24 -34 24 -6 0 -1 -6 10 -14z"/>
<path d="M1095 960 c3 -5 16 -10 28 -9 21 0 21 1 2 9 -28 12 -37 12 -30 0z"/>
<path d="M1235 960 c-3 -5 -1 -10 4 -10 6 0 11 5 11 10 0 6 -2 10 -4 10 -3 0
-8 -4 -11 -10z"/>
<path d="M890 930 c0 -5 5 -10 10 -10 6 0 10 5 10 10 0 6 -4 10 -10 10 -5 0
-10 -4 -10 -10z"/>
<path d="M930 930 c0 -5 7 -10 16 -10 8 0 12 5 9 10 -3 6 -10 10 -16 10 -5 0
-9 -4 -9 -10z"/>
<path d="M1000 925 c33 -19 49 -19 24 0 -10 8 -26 14 -34 14 -9 0 -4 -6 10
-14z"/>
<path d="M1140 935 c0 -12 38 -48 65 -61 27 -14 28 -14 11 1 -11 8 -23 15 -28
15 -4 0 -8 5 -8 11 0 6 -6 17 -14 25 -15 14 -26 18 -26 9z"/>
<path d="M1274 925 c3 -8 9 -22 13 -32 4 -11 3 -14 -5 -9 -8 5 -12 -1 -12 -16
l0 -23 19 25 c16 20 21 22 35 11 32 -26 15 -4 -20 27 -20 18 -33 25 -30 17z"/>
<path d="M1230 905 c0 -8 5 -15 10 -15 6 0 10 7 10 15 0 8 -4 15 -10 15 -5 0
-10 -7 -10 -15z"/>
<path d="M955 900 c-3 -5 1 -10 9 -10 9 0 16 5 16 10 0 6 -4 10 -9 10 -6 0
-13 -4 -16 -10z"/>
<path d="M869 893 c-1 -5 -1 -12 0 -17 1 -5 -3 -13 -10 -17 -9 -5 -8 -11 4
-24 21 -21 21 -32 1 -43 -15 -8 -15 -10 0 -15 11 -4 16 -1 16 11 0 15 2 15 11
2 8 -12 9 -10 4 8 -4 13 -2 22 4 22 6 0 11 -6 11 -12 0 -9 4 -8 10 2 5 8 10
22 10 30 0 13 -1 13 -10 0 -9 -13 -11 -13 -20 0 -8 12 -10 12 -10 -5 0 -16 -2
-17 -9 -6 -5 8 -8 27 -6 43 2 15 2 28 -1 28 -2 0 -5 -3 -5 -7z"/>
<path d="M1040 880 c0 -10 -6 -21 -12 -23 -8 -3 -6 -6 5 -6 9 -1 17 5 17 13 0
8 8 16 18 18 14 3 13 5 -5 10 -18 5 -23 2 -23 -12z"/>
<path d="M897 879 c7 -7 15 -10 18 -7 3 3 -2 9 -12 12 -14 6 -15 5 -6 -5z"/>
<path d="M990 881 c0 -17 18 -21 24 -6 3 9 0 15 -9 15 -8 0 -15 -4 -15 -9z"/>
<path d="M1119 871 c-22 -18 -22 -19 -6 -36 10 -10 21 -14 25 -10 4 4 1 10 -5
12 -20 7 -15 29 10 41 12 6 17 11 11 11 -7 1 -22 -7 -35 -18z"/>
<path d="M796 869 c6 -10 44 -7 44 3 0 4 -11 7 -24 6 -14 -1 -23 -6 -20 -9z"/>
<path d="M940 878 c-1 -20 25 -57 44 -62 30 -8 38 -7 31 4 -3 6 -15 10 -25 10
-11 0 -26 12 -34 28 -8 15 -15 24 -16 20z"/>
<path d="M1150 863 c0 -5 11 -13 25 -20 29 -13 33 -6 8 13 -20 15 -33 18 -33
7z"/>
<path d="M1365 859 c-11 -17 1 -21 15 -4 8 9 8 15 2 15 -6 0 -14 -5 -17 -11z"/>
<path d="M1468 863 c7 -3 16 -2 19 1 4 3 -2 6 -13 5 -11 0 -14 -3 -6 -6z"/>
<path d="M1240 840 c0 -5 5 -10 10 -10 6 0 10 5 10 10 0 6 -4 10 -10 10 -5 0
-10 -4 -10 -10z"/>
<path d="M819 820 c-11 -7 -10 -10 3 -15 24 -10 38 -2 23 12 -7 6 -18 8 -26 3z"/>
<path d="M1067 813 c-4 -3 7 -15 23 -25 37 -22 41 -22 34 -3 -4 8 -12 15 -20
15 -8 0 -14 5 -14 10 0 11 -13 13 -23 3z"/>
<path d="M1210 810 c-8 -5 -10 -10 -5 -10 6 0 17 5 25 10 8 5 11 10 5 10 -5 0
-17 -5 -25 -10z"/>
<path d="M1274 812 c3 -5 1 -12 -6 -14 -8 -3 -9 -6 -1 -11 6 -4 13 0 17 8 3 8
0 17 -6 21 -6 4 -8 3 -4 -4z"/>
<path d="M952 790 c14 -22 24 -19 15 5 -4 8 -11 15 -17 15 -6 0 -6 -7 2 -20z"/>
<path d="M815 780 c12 -13 14 -20 5 -20 -10 0 -10 -3 0 -15 7 -8 18 -15 24
-14 7 0 6 2 -1 6 -23 9 -14 25 10 18 16 -5 13 0 -12 19 -42 31 -51 33 -26 6z"/>
<path d="M1036 791 c-3 -5 9 -18 26 -29 35 -23 56 -19 23 3 -11 8 -25 19 -32
25 -7 5 -14 6 -17 1z"/>
<path d="M1168 793 c7 -3 16 -2 19 1 4 3 -2 6 -13 5 -11 0 -14 -3 -6 -6z"/>
<path d="M1300 796 c0 -2 7 -9 15 -16 9 -7 15 -8 15 -2 0 5 -7 12 -15 16 -8 3
-15 4 -15 2z"/>
<path d="M1440 771 c-5 -11 -10 -26 -9 -33 0 -7 6 -2 12 12 6 14 16 28 22 32
6 5 6 8 -2 8 -7 0 -17 -9 -23 -19z"/>
<path d="M911 764 c0 -11 3 -14 6 -6 3 7 2 16 -1 19 -3 4 -6 -2 -5 -13z"/>
<path d="M990 770 c0 -5 5 -10 11 -10 5 0 7 5 4 10 -3 6 -8 10 -11 10 -2 0 -4
-4 -4 -10z"/>
<path d="M1201 764 c0 -11 3 -14 6 -6 3 7 2 16 -1 19 -3 4 -6 -2 -5 -13z"/>
<path d="M1352 756 c7 -8 15 -12 17 -11 5 6 -10 25 -20 25 -5 0 -4 -6 3 -14z"/>
<path d="M1480 760 c0 -5 5 -10 11 -10 5 0 7 5 4 10 -3 6 -8 10 -11 10 -2 0
-4 -4 -4 -10z"/>
<path d="M941 754 c-1 -5 5 -18 12 -28 12 -16 13 -16 14 4 1 11 -2 18 -7 15
-4 -3 -11 1 -13 7 -3 7 -6 8 -6 2z"/>
<path d="M1145 750 c3 -5 8 -10 11 -10 2 0 4 5 4 10 0 6 -5 10 -11 10 -5 0 -7
-4 -4 -10z"/>
<path d="M1030 740 c0 -5 5 -10 10 -10 6 0 10 5 10 10 0 6 -4 10 -10 10 -5 0
-10 -4 -10 -10z"/>
<path d="M1310 740 c0 -5 5 -10 10 -10 6 0 19 -9 30 -20 19 -19 28 -16 12 5
-12 17 -52 36 -52 25z"/>
<path d="M1505 741 c-3 -6 0 -11 9 -11 8 0 16 -6 19 -12 2 -7 7 -10 11 -7 3 3
-2 14 -13 23 -12 11 -21 14 -26 7z"/>
<path d="M1170 732 c0 -11 49 -31 54 -23 3 4 -8 12 -25 18 -16 6 -29 8 -29 5z"/>
<path d="M1463 730 c2 -8 12 -16 23 -17 13 -2 15 -1 4 4 -8 3 -19 11 -23 17
-6 7 -7 6 -4 -4z"/>
<path d="M998 723 c7 -3 16 -2 19 1 4 3 -2 6 -13 5 -11 0 -14 -3 -6 -6z"/>
<path d="M1057 723 c-3 -4 6 -16 19 -26 29 -21 31 -14 5 14 -10 11 -21 17 -24
12z"/>
<path d="M1388 723 c6 -2 18 -2 25 0 6 3 1 5 -13 5 -14 0 -19 -2 -12 -5z"/>
<path d="M810 705 c-7 -9 -8 -15 -2 -15 5 0 12 7 16 15 3 8 4 15 2 15 -2 0 -9
-7 -16 -15z"/>
<path d="M910 700 c-8 -5 -12 -11 -10 -14 3 -2 14 2 24 10 22 15 10 19 -14 4z"/>
<path d="M985 700 c-3 -5 3 -10 14 -10 12 0 21 5 21 10 0 6 -6 10 -14 10 -8 0
-18 -4 -21 -10z"/>
<path d="M1140 701 c0 -7 44 -31 55 -31 17 0 0 17 -25 27 -16 6 -30 8 -30 4z"/>
<path d="M1510 700 c0 -5 5 -10 11 -10 5 0 7 5 4 10 -3 6 -8 10 -11 10 -2 0
-4 -4 -4 -10z"/>
<path d="M1440 684 c0 -8 5 -12 10 -9 6 4 8 11 5 16 -9 14 -15 11 -15 -7z"/>
<path d="M1240 680 c0 -5 5 -10 10 -10 6 0 10 5 10 10 0 6 -4 10 -10 10 -5 0
-10 -4 -10 -10z"/>
<path d="M920 676 c0 -2 7 -6 15 -10 8 -3 15 -1 15 4 0 6 -7 10 -15 10 -8 0
-15 -2 -15 -4z"/>
<path d="M1040 670 c0 -5 5 -10 10 -10 6 0 10 5 10 10 0 6 -4 10 -10 10 -5 0
-10 -4 -10 -10z"/>
<path d="M1465 670 c-3 -5 1 -10 10 -10 9 0 13 5 10 10 -3 6 -8 10 -10 10 -2
0 -7 -4 -10 -10z"/>
<path d="M1120 660 c0 -5 5 -10 10 -10 6 0 10 5 10 10 0 6 -4 10 -10 10 -5 0
-10 -4 -10 -10z"/>
<path d="M1506 649 c-11 -10 -15 -19 -9 -19 5 0 18 9 28 20 23 26 6 25 -19 -1z"/>
<path d="M1270 650 c0 -9 39 -25 45 -18 2 2 -7 8 -21 15 -13 6 -24 7 -24 3z"/>
<path d="M1013 636 c0 -8 6 -12 14 -9 7 3 13 9 13 14 0 5 -6 9 -13 9 -8 0 -14
-6 -14 -14z"/>
<path d="M1068 643 c7 -3 16 -2 19 1 4 3 -2 6 -13 5 -11 0 -14 -3 -6 -6z"/>
<path d="M1150 640 c0 -5 5 -10 10 -10 6 0 10 5 10 10 0 6 -4 10 -10 10 -5 0
-10 -4 -10 -10z"/>
<path d="M1360 640 c0 -5 5 -10 11 -10 5 0 7 5 4 10 -3 6 -8 10 -11 10 -2 0
-4 -4 -4 -10z"/>
<path d="M1420 646 c0 -2 7 -7 16 -10 8 -3 12 -2 9 4 -6 10 -25 14 -25 6z"/>
<path d="M1550 640 c0 -5 5 -10 10 -10 6 0 10 5 10 10 0 6 -4 10 -10 10 -5 0
-10 -4 -10 -10z"/>
<path d="M1230 634 c0 -8 32 -33 43 -34 4 0 7 5 7 11 0 5 -4 7 -10 4 -5 -3
-10 1 -10 9 0 9 -7 16 -15 16 -8 0 -15 -3 -15 -6z"/>
<path d="M1090 621 c0 -10 30 -24 37 -17 3 3 2 9 -2 15 -8 13 -35 15 -35 2z"/>
<path d="M1187 624 c-3 -3 1 -13 9 -21 8 -9 18 -12 21 -9 4 4 0 13 -8 21 -8 9
-18 13 -22 9z"/>
<path d="M1410 610 c14 -10 27 -17 29 -15 8 8 -22 35 -38 35 -12 0 -10 -5 9
-20z"/>
<path d="M1325 610 c4 -6 11 -8 16 -5 14 9 11 15 -7 15 -8 0 -12 -5 -9 -10z"/>
<path d="M1460 614 c0 -12 65 -64 80 -64 11 1 10 4 -4 12 -11 6 -30 22 -42 35
-21 23 -34 29 -34 17z"/>
<path d="M1600 610 c0 -5 5 -10 11 -10 5 0 7 5 4 10 -3 6 -8 10 -11 10 -2 0
-4 -4 -4 -10z"/>
<path d="M1150 590 c0 -5 5 -10 11 -10 5 0 7 5 4 10 -3 6 -8 10 -11 10 -2 0
-4 -4 -4 -10z"/>
<path d="M1300 590 c0 -5 5 -10 11 -10 5 0 7 5 4 10 -3 6 -8 10 -11 10 -2 0
-4 -4 -4 -10z"/>
<path d="M1376 586 c10 -8 21 -12 24 -10 5 6 -21 24 -34 24 -6 0 -1 -6 10 -14z"/>
<path d="M1230 580 c0 -5 7 -10 15 -10 7 0 18 -8 24 -17 5 -10 13 -14 18 -10
4 5 -3 17 -17 27 -28 22 -40 25 -40 10z"/>
<path d="M1592 571 c-10 -6 -10 -10 3 -21 13 -11 15 -10 9 3 -3 10 1 17 13 20
12 3 13 5 3 6 -8 0 -21 -3 -28 -8z"/>
<path d="M1185 560 c3 -5 8 -10 11 -10 2 0 4 5 4 10 0 6 -5 10 -11 10 -5 0 -7
-4 -4 -10z"/>
<path d="M1327 562 c-3 -4 3 -13 14 -20 10 -7 19 -8 19 -3 0 13 -28 33 -33 23z"/>
<path d="M1421 566 c12 -10 60 -16 54 -6 -3 5 -18 10 -32 10 -15 0 -24 -2 -22
-4z"/>
<path d="M1218 553 c7 -3 16 -2 19 1 4 3 -2 6 -13 5 -11 0 -14 -3 -6 -6z"/>
<path d="M1071 536 c-8 -10 -9 -16 -1 -21 5 -3 10 0 10 9 0 8 6 17 13 19 7 4
8 6 1 6 -6 1 -17 -5 -23 -13z"/>
<path d="M1670 543 c1 -13 50 -66 56 -60 3 3 -8 19 -25 36 -17 18 -31 28 -31
24z"/>
<path d="M1300 532 c0 -11 71 -62 86 -62 5 0 -4 11 -21 25 -40 34 -65 48 -65
37z"/>
<path d="M1485 530 c3 -5 8 -10 11 -10 2 0 4 5 4 10 0 6 -5 10 -11 10 -5 0 -7
-4 -4 -10z"/>
<path d="M1565 530 c3 -5 8 -10 11 -10 2 0 4 5 4 10 0 6 -5 10 -11 10 -5 0 -7
-4 -4 -10z"/>
<path d="M1620 532 c0 -4 9 -13 20 -20 11 -7 20 -9 20 -4 0 4 -9 13 -20 20
-11 7 -20 9 -20 4z"/>
<path d="M1230 526 c0 -2 7 -6 15 -10 8 -3 15 -1 15 4 0 6 -7 10 -15 10 -8 0
-15 -2 -15 -4z"/>
<path d="M1090 510 c0 -5 4 -10 9 -10 6 0 13 5 16 10 3 6 -1 10 -9 10 -9 0
-16 -4 -16 -10z"/>
<path d="M1196 505 c4 -8 10 -15 14 -15 5 0 23 -15 42 -33 39 -37 108 -81 108
-67 0 5 -9 11 -19 15 -11 3 -22 12 -25 20 -3 8 -11 15 -18 15 -7 0 -22 11 -32
25 -10 14 -24 25 -31 25 -7 0 -15 7 -19 15 -3 8 -10 15 -15 15 -6 0 -8 -7 -5
-15z"/>
<path d="M1390 510 c0 -5 5 -10 10 -10 6 0 10 5 10 10 0 6 -4 10 -10 10 -5 0
-10 -4 -10 -10z"/>
<path d="M1460 510 c0 -5 5 -10 11 -10 5 0 7 5 4 10 -3 6 -8 10 -11 10 -2 0
-4 -4 -4 -10z"/>
<path d="M1535 510 c-3 -5 -1 -10 4 -10 6 0 11 5 11 10 0 6 -2 10 -4 10 -3 0
-8 -4 -11 -10z"/>
<path d="M1590 513 c0 -9 36 -43 45 -43 3 0 5 3 5 8 -1 10 -50 45 -50 35z"/>
<path d="M1270 500 c0 -5 5 -10 10 -10 6 0 10 5 10 10 0 6 -4 10 -10 10 -5 0
-10 -4 -10 -10z"/>
<path d="M1670 490 c0 -5 5 -10 11 -10 5 0 7 5 4 10 -3 6 -8 10 -11 10 -2 0
-4 -4 -4 -10z"/>
<path d="M1424 478 c-4 -6 -3 -8 4 -4 5 3 12 1 14 -6 3 -8 6 -9 11 -1 4 6 0
13 -8 17 -8 3 -17 0 -21 -6z"/>
<path d="M1500 476 c14 -8 27 -12 29 -10 6 6 -1 11 -29 18 l-25 7 25 -15z"/>
<path d="M1560 480 c20 -13 33 -13 25 0 -3 6 -14 10 -23 10 -15 0 -15 -2 -2
-10z"/>
<path d="M1317 461 c9 -11 20 -18 25 -15 12 8 -11 34 -28 34 -11 0 -10 -4 3
-19z"/>
<path d="M1395 461 c-3 -5 -1 -12 5 -16 5 -3 10 1 10 9 0 18 -6 21 -15 7z"/>
<path d="M1360 453 c0 -15 19 -37 26 -31 3 4 -1 14 -10 23 -9 9 -16 13 -16 8z"/>
<path d="M1470 450 c0 -5 5 -10 10 -10 6 0 10 5 10 10 0 6 -4 10 -10 10 -5 0
-10 -4 -10 -10z"/>
<path d="M1540 450 c0 -5 5 -10 10 -10 6 0 10 5 10 10 0 6 -4 10 -10 10 -5 0
-10 -4 -10 -10z"/>
<path d="M1595 450 c3 -5 8 -10 11 -10 2 0 4 5 4 10 0 6 -5 10 -11 10 -5 0 -7
-4 -4 -10z"/>
<path d="M1645 450 c3 -5 8 -10 11 -10 2 0 4 5 4 10 0 6 -5 10 -11 10 -5 0 -7
-4 -4 -10z"/>
<path d="M1420 434 c0 -10 28 -34 39 -34 6 0 2 9 -9 20 -20 20 -30 25 -30 14z"/>
<path d="M1620 433 c0 -12 28 -38 34 -32 2 2 -5 13 -15 23 -11 11 -19 15 -19
9z"/>
<path d="M1522 410 c0 -14 2 -19 5 -12 2 6 2 18 0 25 -3 6 -5 1 -5 -13z"/>
<path d="M1240 406 c0 -2 7 -7 16 -10 8 -3 12 -2 9 4 -6 10 -25 14 -25 6z"/>
<path d="M1415 384 c15 -14 30 -23 33 -20 6 6 -38 45 -52 46 -5 0 3 -11 19
-26z"/>
<path d="M1594 391 c0 -11 5 -17 13 -14 10 4 11 9 2 19 -15 18 -15 18 -15 -5z"/>
<path d="M1280 389 c0 -5 5 -7 10 -4 6 3 10 8 10 11 0 2 -4 4 -10 4 -5 0 -10
-5 -10 -11z"/>
<path d="M1550 375 c0 -8 4 -15 8 -15 5 0 9 7 9 15 0 8 -4 15 -9 15 -4 0 -8
-7 -8 -15z"/>
<path d="M1500 370 c0 -5 4 -10 9 -10 6 0 13 5 16 10 3 6 -1 10 -9 10 -9 0
-16 -4 -16 -10z"/>
<path d="M1380 352 c0 -5 7 -13 16 -16 10 -4 14 -1 12 6 -5 15 -28 23 -28 10z"/>
<path d="M1418 313 c7 -3 16 -2 19 1 4 3 -2 6 -13 5 -11 0 -14 -3 -6 -6z"/>
<path d="M989 1453 c-13 -16 -12 -17 4 -4 9 7 17 15 17 17 0 8 -8 3 -21 -13z"/>
<path d="M875 1410 c-4 -6 -1 -10 6 -10 7 0 9 -3 6 -6 -4 -4 -13 -1 -22 6 -18
15 -20 -1 -3 -18 17 -17 26 -15 37 7 8 14 7 20 -4 25 -8 3 -17 1 -20 -4z"/>
<path d="M729 1391 c11 -7 11 -9 0 -14 -12 -4 -12 -7 0 -18 9 -9 11 -9 7 -1
-5 8 0 12 16 12 22 1 22 1 4 15 -11 8 -25 15 -30 15 -6 0 -5 -4 3 -9z"/>
<path d="M1951 1304 c0 -11 3 -14 6 -6 3 7 2 16 -1 19 -3 4 -6 -2 -5 -13z"/>
<path d="M1931 1195 c1 -19 18 -51 18 -35 0 8 -4 22 -9 30 -5 8 -9 11 -9 5z"/>
<path d="M441 1253 c8 -10 20 -25 28 -33 13 -13 12 -15 -2 -18 -21 -4 -21 -7
-1 -37 15 -23 15 -25 0 -25 -14 0 -15 -4 -6 -20 6 -11 15 -20 20 -20 14 0 12
54 -2 68 -9 9 -9 15 -1 23 8 8 15 4 27 -12 9 -13 16 -19 16 -13 0 6 -8 20 -18
32 -10 11 -27 32 -37 46 -11 14 -24 26 -29 26 -4 0 -2 -8 5 -17z"/>
<path d="M390 1223 c1 -12 60 -79 60 -68 0 4 -7 17 -17 27 -9 11 -11 18 -5 18
7 0 12 8 12 17 0 15 -2 14 -15 -3 -13 -17 -14 -17 -15 -1 0 9 -4 17 -10 17 -5
0 -10 -3 -10 -7z"/>
<path d="M504 1087 c-12 -15 -1 -57 16 -57 5 0 10 -7 10 -15 0 -33 15 -12 17
23 1 32 0 33 -7 12 -4 -14 -8 -19 -9 -12 -1 7 -5 10 -11 7 -13 -8 -13 11 0 36
12 21 1 25 -16 6z"/>
<path d="M560 1019 c0 -5 5 -7 10 -4 6 3 10 8 10 11 0 2 -4 4 -10 4 -5 0 -10
-5 -10 -11z"/>
<path d="M610 1020 c0 -5 -7 -10 -16 -10 -8 0 -12 -5 -9 -10 4 -7 13 -7 26 0
20 11 26 30 9 30 -5 0 -10 -4 -10 -10z"/>
<path d="M555 980 c3 -5 8 -10 11 -10 2 0 4 5 4 10 0 6 -5 10 -11 10 -5 0 -7
-4 -4 -10z"/>
<path d="M651 904 c0 -11 3 -14 6 -6 3 7 2 16 -1 19 -3 4 -6 -2 -5 -13z"/>
<path d="M670 886 c0 -9 5 -16 10 -16 6 0 10 4 10 9 0 6 -4 13 -10 16 -5 3
-10 -1 -10 -9z"/>
<path d="M642 873 c31 -64 48 -81 48 -48 0 8 -4 15 -9 15 -5 0 -13 9 -16 20
-3 11 -11 20 -16 20 -6 0 -9 -3 -7 -7z"/>
<path d="M695 870 c-8 -13 -1 -24 14 -19 6 3 7 10 2 18 -6 10 -10 10 -16 1z"/>
<path d="M200 835 c0 -5 5 -17 10 -25 5 -8 10 -10 10 -5 0 6 -5 17 -10 25 -5
8 -10 11 -10 5z"/>
<path d="M198 755 c-7 -32 -5 -39 9 -34 5 2 6 18 3 34 l-6 30 -6 -30z"/>
<path d="M257 703 c-4 -3 -7 -11 -7 -17 0 -6 5 -5 12 2 6 6 9 14 7 17 -3 3 -9
2 -12 -2z"/>
<path d="M257 663 c-4 -3 -7 -11 -7 -17 0 -6 5 -5 12 2 6 6 9 14 7 17 -3 3 -9
2 -12 -2z"/>
<path d="M304 649 c0 -20 11 -25 20 -10 3 5 0 13 -7 19 -10 8 -13 6 -13 -9z"/>
<path d="M241 583 c-1 -16 5 -23 17 -23 10 0 13 3 6 8 -6 4 -14 14 -17 22 -4
10 -6 8 -6 -7z"/>
<path d="M200 566 c0 -2 7 -9 15 -16 9 -7 15 -8 15 -2 0 5 -7 12 -15 16 -8 3
-15 4 -15 2z"/>
<path d="M293 563 c11 -3 17 -14 17 -31 0 -19 3 -23 9 -13 14 22 1 51 -23 50
-17 -1 -17 -2 -3 -6z"/>
<path d="M276 461 c-4 -7 -5 -15 -2 -18 9 -9 19 4 14 18 -4 11 -6 11 -12 0z"/>
<path d="M373 453 c24 -6 21 -21 -5 -25 -16 -3 -12 -5 14 -9 29 -4 35 -2 27 8
-6 7 -8 17 -4 23 4 6 -5 10 -22 9 -17 -1 -21 -3 -10 -6z"/>
<path d="M450 350 c0 -5 5 -10 11 -10 5 0 7 5 4 10 -3 6 -8 10 -11 10 -2 0 -4
-4 -4 -10z"/>
<path d="M1826 733 c-6 -14 -5 -15 5 -6 7 7 10 15 7 18 -3 3 -9 -2 -12 -12z"/>
<path d="M1515 810 c3 -5 8 -10 11 -10 2 0 4 5 4 10 0 6 -5 10 -11 10 -5 0 -7
-4 -4 -10z"/>
<path d="M1540 796 c0 -2 7 -7 16 -10 8 -3 12 -2 9 4 -6 10 -25 14 -25 6z"/>
<path d="M1600 725 c7 -8 16 -15 21 -15 5 0 6 7 3 15 -4 8 -13 15 -21 15 -13
0 -13 -3 -3 -15z"/>
<path d="M1666 671 c-3 -5 1 -11 9 -14 9 -4 12 -1 8 9 -6 16 -10 17 -17 5z"/>
<path d="M755 610 c-3 -6 -2 -10 4 -10 6 0 8 -7 5 -15 -4 -8 -2 -15 4 -15 5 0
12 6 15 13 6 16 -20 41 -28 27z"/>
<path d="M755 550 c-3 -5 -2 -10 4 -10 5 0 13 5 16 10 3 6 2 10 -4 10 -5 0
-13 -4 -16 -10z"/>
<path d="M793 523 c0 -17 12 -17 27 1 9 12 8 15 -8 13 -10 0 -19 -7 -19 -14z"/>
<path d="M876 461 c-9 -15 8 -44 28 -47 12 -2 13 2 6 14 -22 39 -27 44 -34 33z
m22 -36 c-3 -3 -9 2 -12 12 -6 14 -5 15 5 6 7 -7 10 -15 7 -18z"/>
<path d="M430 542 c0 -8 63 -42 78 -42 7 0 -40 35 -48 35 -3 0 -11 4 -17 8 -7
5 -13 4 -13 -1z"/>
<path d="M535 512 c17 -8 16 -9 -10 -16 -22 -6 -26 -9 -15 -16 9 -6 17 -5 21
2 4 7 9 7 13 -1 4 -6 13 -11 19 -11 8 0 8 3 -1 9 -7 4 -12 14 -10 21 2 8 -6
15 -17 17 -20 3 -20 3 0 -5z"/>
<path d="M525 432 c3 -3 -1 -12 -8 -20 -11 -13 -9 -14 11 -1 26 16 28 26 7 26
-8 0 -13 -3 -10 -5z"/>
<path d="M599 402 c7 -13 19 -26 27 -29 7 -3 11 -10 7 -16 -3 -6 -1 -7 6 -3 6
4 9 11 6 16 -3 4 2 10 10 13 10 4 12 1 8 -10 -4 -10 -2 -14 5 -9 6 3 15 -2 21
-11 6 -11 11 -13 11 -5 0 7 4 11 9 7 5 -3 12 -1 16 4 3 6 -3 15 -14 21 -17 9
-20 8 -14 -6 5 -12 3 -15 -6 -10 -7 5 -11 16 -8 25 3 14 -2 17 -32 16 -20 -1
-42 3 -50 9 -12 9 -12 7 -2 -12z m45 -14 c-3 -4 -9 -8 -15 -8 -5 0 -9 4 -9 8
0 5 7 9 15 9 8 0 12 -4 9 -9z"/>
<path d="M541 393 c0 -13 2 -14 6 -4 5 11 7 11 14 0 7 -11 9 -10 9 4 0 9 -7
17 -15 17 -8 0 -15 -8 -14 -17z"/>
<path d="M558 354 c28 -12 36 -23 34 -46 -1 -3 4 -8 12 -11 7 -3 13 1 13 9 0
8 -4 14 -9 14 -4 0 -8 4 -8 10 0 6 9 6 24 0 18 -6 26 -5 30 5 3 8 0 12 -7 9
-7 -2 -32 2 -56 11 -54 19 -77 18 -33 -1z"/>
<path d="M677 299 c7 -7 15 -10 18 -7 3 3 -2 9 -12 12 -14 6 -15 5 -6 -5z"/>
<path d="M633 283 c1 -17 11 -26 35 -34 18 -6 36 -8 39 -5 4 3 -1 6 -10 6 -20
0 -23 16 -4 23 7 3 5 6 -5 6 -10 1 -18 -3 -18 -9 0 -5 -5 -10 -11 -10 -6 0 -8
9 -4 23 4 15 3 18 -3 8 -8 -11 -10 -11 -15 0 -3 8 -4 4 -4 -8z"/>
<path d="M730 251 c12 -8 12 -11 1 -11 -11 0 -11 -3 -1 -14 6 -8 19 -12 27 -9
11 4 14 2 9 -5 -4 -7 -2 -12 3 -12 6 0 11 5 11 10 0 12 22 9 32 -5 4 -6 8 -2
8 8 0 18 -7 20 -53 17 -17 -1 -26 3 -25 10 2 7 -4 15 -12 17 -13 4 -13 3 0 -6z"/>
<path d="M1035 470 c4 -6 11 -8 16 -5 14 9 11 15 -7 15 -8 0 -12 -5 -9 -10z"/>
<path d="M1016 374 c-3 -9 -2 -23 4 -32 6 -11 9 -12 10 -4 0 7 6 10 13 7 6 -4
4 0 -5 8 -20 16 -14 28 10 20 15 -4 15 -3 2 6 -20 15 -27 14 -34 -5z"/>
<path d="M779 273 c-12 -16 -12 -17 2 -6 9 7 20 9 24 5 5 -4 5 -1 1 6 -9 16
-11 15 -27 -5z"/>
<path d="M910 231 c0 -5 7 -14 15 -21 12 -10 15 -10 15 3 0 8 -7 17 -15 21 -8
3 -15 2 -15 -3z"/>
<path d="M668 1797 c-28 -23 -37 -47 -17 -47 5 0 8 4 4 9 -3 6 3 15 14 20 17
9 19 7 18 -22 -1 -18 -8 -38 -17 -45 -13 -11 -11 -12 10 -10 21 3 25 8 25 36
0 33 14 46 16 15 0 -10 3 -13 5 -6 3 7 13 10 22 7 12 -4 11 -2 -3 7 -37 23
-45 35 -32 48 21 21 -17 11 -45 -12z"/>
<path d="M1568 1813 c7 -3 16 -2 19 1 4 3 -2 6 -13 5 -11 0 -14 -3 -6 -6z"/>
<path d="M1670 1810 c-18 -12 -2 -12 25 0 13 6 15 9 5 9 -8 0 -22 -4 -30 -9z"/>
<path d="M1773 1813 c9 -2 23 -2 30 0 6 3 -1 5 -18 5 -16 0 -22 -2 -12 -5z"/>
<path d="M1251 1783 c0 -12 4 -25 9 -28 6 -4 8 -10 5 -15 -3 -5 -1 -11 5 -15
5 -3 10 3 10 14 0 12 -4 21 -9 21 -5 0 -12 10 -14 23 -4 22 -4 22 -6 0z"/>
<path d="M1435 1790 c-3 -5 -2 -10 4 -10 5 0 13 5 16 10 3 6 2 10 -4 10 -5 0
-13 -4 -16 -10z"/>
<path d="M1470 1796 c0 -2 7 -7 16 -10 8 -3 12 -2 9 4 -6 10 -25 14 -25 6z"/>
<path d="M1778 1793 c6 -2 18 -2 25 0 6 3 1 5 -13 5 -14 0 -19 -2 -12 -5z"/>
<path d="M500 1775 c7 -9 15 -13 17 -11 7 7 -7 26 -19 26 -6 0 -6 -6 2 -15z"/>
<path d="M1398 1783 c7 -3 16 -2 19 1 4 3 -2 6 -13 5 -11 0 -14 -3 -6 -6z"/>
<path d="M1615 1770 c4 -11 2 -20 -4 -20 -6 0 -11 8 -11 18 0 14 -2 14 -9 3
-13 -20 5 -51 29 -51 31 0 49 -11 43 -26 -6 -17 -24 -19 -20 -2 1 6 -7 13 -18
15 -17 3 -17 2 -5 -6 13 -10 13 -12 0 -21 -11 -7 -5 -10 23 -10 26 0 37 -4 35
-12 -5 -13 14 -38 28 -38 5 0 3 5 -4 12 -17 17 -15 33 3 18 13 -11 14 -10 9 4
-3 9 -2 16 4 16 6 0 13 -6 15 -12 4 -10 6 -10 6 0 1 6 9 12 19 12 14 0 15 2 2
10 -9 6 -17 5 -22 -3 -5 -8 -8 -5 -8 8 0 16 -2 17 -9 6 -11 -17 -39 -23 -47
-10 -3 5 3 9 13 9 13 0 15 2 5 9 -7 4 -12 12 -11 17 4 21 -2 34 -16 34 -8 0
-15 5 -15 10 0 6 -7 10 -16 10 -8 0 -12 5 -9 10 3 6 1 10 -5 10 -7 0 -9 -8 -5
-20z m49 -33 c25 -10 16 -18 -12 -10 -12 3 -22 13 -22 22 0 10 3 12 8 5 4 -6
16 -14 26 -17z"/>
<path d="M900 1771 c0 -4 -11 -6 -24 -4 -13 3 -26 0 -30 -5 -4 -6 4 -9 19 -7
14 1 25 -2 25 -6 0 -18 16 -8 17 11 1 11 0 20 -3 20 -2 0 -4 -4 -4 -9z"/>
<path d="M1160 1771 c0 -6 4 -13 10 -16 6 -3 7 1 4 9 -7 18 -14 21 -14 7z"/>
<path d="M483 1755 c0 -8 4 -12 9 -9 5 3 6 10 3 15 -9 13 -12 11 -12 -6z"/>
<path d="M1065 1760 c3 -5 11 -10 16 -10 6 0 7 5 4 10 -3 6 -11 10 -16 10 -6
0 -7 -4 -4 -10z"/>
<path d="M1298 1763 c7 -3 16 -2 19 1 4 3 -2 6 -13 5 -11 0 -14 -3 -6 -6z"/>
<path d="M1395 1760 c-3 -5 -1 -10 4 -10 6 0 11 5 11 10 0 6 -2 10 -4 10 -3 0
-8 -4 -11 -10z"/>
<path d="M1431 1761 c-9 -6 -6 -8 13 -8 14 0 23 3 20 8 -7 11 -15 11 -33 0z"/>
<path d="M821 1744 c0 -11 3 -14 6 -6 3 7 2 16 -1 19 -3 4 -6 -2 -5 -13z"/>
<path d="M1215 1751 c-3 -5 -1 -12 5 -16 5 -3 10 1 10 9 0 18 -6 21 -15 7z"/>
<path d="M1974 1745 c-16 -12 -17 -14 -3 -15 9 0 19 7 23 15 7 19 5 19 -20 0z"/>
<path d="M408 1743 c7 -3 16 -2 19 1 4 3 -2 6 -13 5 -11 0 -14 -3 -6 -6z"/>
<path d="M780 1740 c-13 -9 -7 -14 13 -11 4 0 7 -3 7 -9 0 -5 -4 -10 -10 -10
-5 0 -7 -6 -4 -14 8 -20 33 -9 29 12 -2 9 -4 19 -5 22 -1 3 -2 8 -1 13 1 10
-11 9 -29 -3z"/>
<path d="M1295 1742 c7 -8 8 -8 140 -10 67 -2 86 -5 75 -13 -13 -9 -13 -10 2
-6 9 3 19 1 22 -6 2 -7 5 -7 5 -2 2 26 -21 32 -133 38 -65 4 -115 3 -111 -1z"/>
<path d="M637 1733 c-4 -3 -7 -11 -7 -17 0 -6 5 -5 12 2 6 6 9 14 7 17 -3 3
-9 2 -12 -2z"/>
<path d="M730 1725 c-11 -13 -10 -14 4 -9 9 3 16 10 16 15 0 13 -6 11 -20 -6z"/>
<path d="M1917 1729 c7 -7 15 -10 18 -7 3 3 -2 9 -12 12 -14 6 -15 5 -6 -5z"/>
<path d="M876 1719 c4 -7 44 0 44 7 0 2 -11 3 -24 2 -14 -1 -23 -5 -20 -9z"/>
<path d="M830 1709 c0 -5 5 -7 10 -4 6 3 10 8 10 11 0 2 -4 4 -10 4 -5 0 -10
-5 -10 -11z"/>
<path d="M913 1710 c-13 -5 -23 -15 -23 -22 0 -9 -3 -10 -8 -2 -5 8 -21 7 -56
-3 -33 -10 -45 -17 -36 -23 9 -6 7 -10 -9 -15 -11 -3 -21 -11 -21 -16 0 -13
11 -11 30 6 10 9 24 13 34 9 14 -5 15 -9 4 -16 -8 -6 1 -7 27 -3 29 4 36 3 25
-4 -13 -10 -13 -11 0 -11 13 0 13 -1 0 -10 -9 -6 -17 -5 -21 2 -4 6 -12 9 -19
6 -9 -3 -8 -8 4 -20 21 -22 20 -27 -6 -39 -18 -7 -15 -8 16 -3 60 9 111 28
112 42 1 6 2 17 3 22 0 6 11 10 24 11 21 0 21 1 2 8 -11 5 -22 5 -25 1 -3 -5
-23 -11 -45 -14 l-40 -6 40 14 40 14 -40 -2 c-30 -1 -39 3 -37 13 3 12 0 12
-12 2 -11 -9 -20 -10 -33 -2 -17 10 -17 10 2 11 20 1 20 1 0 11 -17 8 -15 9
10 6 17 -3 41 -1 55 3 21 7 22 8 5 10 -14 1 -10 5 15 15 19 7 28 14 20 14 -8
0 -25 -4 -37 -9z m2 -121 c-15 -7 -12 -8 15 -4 42 6 21 -9 -27 -20 -26 -5 -33
-3 -33 8 0 17 15 25 45 26 20 0 20 0 0 -10z"/>
<path d="M1372 1695 c3 -13 0 -26 -6 -29 -7 -3 -6 -5 2 -5 7 -1 22 4 33 9 23
13 49 2 28 -11 -25 -16 -107 -11 -117 7 -8 15 -10 15 -15 0 -4 -9 -18 -16 -34
-16 l-28 0 25 -20 c14 -11 36 -19 50 -18 24 1 24 1 -2 5 -16 2 -28 8 -28 13 0
8 40 6 130 -8 25 -3 52 -6 59 -5 8 1 20 -4 25 -11 13 -16 89 -46 116 -46 24 0
25 -8 5 -30 -8 -8 -16 -35 -17 -58 -2 -23 -7 -42 -11 -42 -4 0 -7 -6 -6 -12 5
-37 -2 -57 -16 -52 -11 5 -13 10 -5 19 8 9 6 14 -6 19 -24 9 -31 7 -14 -4 13
-8 13 -11 1 -19 -11 -7 -9 -10 8 -16 20 -6 25 -32 5 -28 -5 1 -16 3 -24 5 -9
2 -16 -6 -18 -22 -2 -14 -11 -31 -19 -37 -9 -7 -13 -16 -9 -20 12 -12 45 35
41 57 -3 17 -1 19 16 10 11 -6 25 -8 31 -4 7 4 8 3 4 -5 -4 -7 -17 -9 -29 -6
-12 4 -17 3 -12 -2 13 -11 14 -62 0 -60 -5 1 -10 -5 -10 -13 0 -8 -8 -21 -18
-28 -11 -9 -16 -21 -12 -32 3 -10 1 -21 -4 -24 -11 -7 -25 29 -16 43 3 5 1 12
-4 15 -5 3 -12 -1 -15 -10 -5 -14 -9 -14 -23 -3 -15 12 -16 12 -10 -4 4 -10 7
-20 7 -23 0 -2 6 -1 13 1 6 3 19 -10 28 -28 13 -27 14 -37 3 -64 -9 -22 -10
-34 -3 -39 16 -9 19 -2 30 67 6 35 15 69 21 76 6 7 7 13 2 13 -5 0 -1 5 9 11
9 6 14 15 11 21 -4 6 -1 9 7 6 16 -5 19 -30 5 -40 -16 -11 -16 -37 1 -31 10 4
11 8 3 13 -8 5 -7 9 5 14 24 9 24 8 20 -14 -2 -11 0 -18 6 -15 5 4 9 -5 9 -19
0 -19 -4 -24 -16 -19 -13 5 -13 7 -2 14 7 5 9 9 3 9 -5 0 -16 -4 -23 -8 -9 -6
-5 -12 14 -21 21 -9 24 -15 15 -24 -10 -9 -15 -8 -25 5 -11 16 -15 16 -32 3
-13 -10 -14 -13 -3 -10 8 3 26 -3 39 -15 13 -11 18 -20 11 -20 -7 0 -9 -5 -5
-11 4 -7 1 -10 -7 -7 -8 3 -14 10 -14 16 0 5 -3 14 -7 18 -4 3 -6 -3 -3 -14 2
-12 -3 -23 -12 -26 -12 -5 -14 -1 -10 21 l6 28 -12 -27 c-6 -16 -14 -28 -19
-28 -15 0 -8 -28 8 -34 15 -6 15 -4 3 10 -12 15 -12 17 1 12 8 -2 21 1 28 9 8
7 18 10 24 7 6 -4 17 1 25 11 7 11 13 13 13 6 0 -7 4 -10 9 -6 5 3 12 1 16 -5
8 -13 35 -13 35 0 0 5 -6 7 -12 5 -18 -6 -62 30 -54 44 4 6 14 11 22 11 8 0
14 5 14 11 0 5 4 8 9 4 5 -3 12 -2 15 3 2 4 -4 9 -15 9 -10 1 -19 -2 -19 -8 0
-5 -5 -9 -10 -9 -7 0 -7 6 -1 18 7 14 6 25 -4 39 -7 10 -10 24 -6 31 4 7 12
-1 21 -21 13 -29 15 -30 18 -9 2 12 8 22 13 22 5 0 9 5 9 12 0 6 -10 3 -22 -8
-18 -16 -20 -16 -15 -2 6 18 -18 32 -36 21 -8 -5 -8 -2 0 9 7 8 10 18 6 21
-19 20 63 -18 90 -41 11 -10 17 -11 17 -3 0 6 -7 14 -15 17 -8 4 -13 10 -10
14 3 5 0 12 -6 16 -8 4 -9 3 -5 -4 10 -16 1 -15 -35 3 -29 16 -55 12 -44 -6 4
-5 1 -9 -5 -9 -16 0 -24 30 -12 42 6 6 8 17 5 24 -5 13 7 18 34 15 7 -1 22 3
34 9 16 9 18 14 9 25 -7 8 -9 18 -6 24 3 5 -1 12 -10 15 -8 3 -13 2 -10 -3 3
-5 -1 -14 -9 -21 -12 -10 -14 -5 -12 29 1 23 4 41 8 41 3 0 5 13 3 30 -2 16 1
32 6 35 6 3 10 15 10 26 0 22 25 26 34 4 8 -21 66 -20 66 1 0 9 -5 12 -12 8
-8 -5 -9 -2 -5 10 4 10 7 20 7 22 0 2 5 4 10 4 6 0 10 -13 10 -30 0 -26 4 -30
26 -30 21 0 25 4 21 20 -3 11 -1 20 4 20 5 0 9 4 9 9 0 5 -9 7 -20 4 -15 -4
-17 -9 -10 -22 6 -12 5 -18 -3 -18 -18 0 -20 47 -2 53 26 10 16 22 -15 20 -16
-1 -30 1 -30 6 0 4 -8 8 -17 8 -15 0 -15 -2 2 -14 16 -12 17 -16 6 -29 -10
-13 -16 -14 -33 -4 -16 10 -22 9 -25 -1 -6 -16 -33 3 -33 24 0 8 -4 14 -10 14
-5 0 -10 -4 -10 -9 0 -14 -43 -1 -57 17 -8 10 -13 11 -13 4 0 -8 -11 -4 -29 9
-18 13 -38 20 -50 16 -12 -3 -24 -1 -27 4 -3 5 2 9 10 9 18 0 21 16 6 25 -5 3
-10 15 -10 26 0 10 -4 19 -10 19 -5 0 -10 -9 -10 -20 0 -11 -4 -20 -10 -20 -5
0 -10 9 -10 20 0 11 -5 20 -11 20 -7 0 -9 -10 -7 -25z m323 -165 c3 -5 1 -10
-4 -10 -6 0 -11 5 -11 10 0 6 2 10 4 10 3 0 8 -4 11 -10z m-49 -192 c4 -7 2
-8 -4 -4 -7 4 -12 2 -12 -3 0 -15 -12 -14 -35 2 -16 13 -15 14 13 15 18 0 35
-4 38 -10z"/>
<path d="M1453 1713 c9 -2 23 -2 30 0 6 3 -1 5 -18 5 -16 0 -22 -2 -12 -5z"/>
<path d="M735 1700 c-3 -5 -1 -10 4 -10 6 0 11 5 11 10 0 6 -2 10 -4 10 -3 0
-8 -4 -11 -10z"/>
<path d="M1050 1696 c0 -9 5 -16 10 -16 6 0 10 4 10 9 0 6 -4 13 -10 16 -5 3
-10 -1 -10 -9z"/>
<path d="M1190 1696 c0 -9 5 -16 10 -16 6 0 10 4 10 9 0 6 -4 13 -10 16 -5 3
-10 -1 -10 -9z"/>
<path d="M1955 1700 c3 -5 8 -10 11 -10 2 0 4 5 4 10 0 6 -5 10 -11 10 -5 0
-7 -4 -4 -10z"/>
<path d="M597 1687 c-3 -9 -2 -17 3 -17 6 0 10 -13 10 -30 0 -16 4 -30 9 -30
5 0 12 -11 15 -25 7 -26 20 -32 31 -15 3 6 0 10 -8 10 -9 0 -22 24 -34 62 -13
43 -21 57 -26 45z"/>
<path d="M638 1695 c-6 -7 2 -54 11 -59 3 -2 22 -7 41 -10 26 -5 31 -4 20 3
-8 6 -26 11 -40 12 l-25 1 25 8 c14 4 32 8 40 9 13 1 13 0 0 -10 -12 -9 -12
-10 -1 -7 8 3 17 10 19 17 3 10 -6 12 -39 6 -32 -4 -40 -3 -29 4 13 9 12 11
-3 11 -10 0 -15 5 -12 10 7 11 2 14 -7 5z"/>
<path d="M695 1690 c-3 -5 1 -10 9 -10 9 0 16 5 16 10 0 6 -4 10 -9 10 -6 0
-13 -4 -16 -10z"/>
<path d="M950 1693 c5 -2 10 -9 10 -14 0 -6 -4 -7 -10 -4 -5 3 -10 1 -10 -5 0
-6 -8 -9 -18 -6 -13 4 -19 1 -19 -9 0 -11 6 -13 21 -8 12 3 30 6 41 5 11 -1
15 2 10 6 -6 4 -10 13 -10 21 0 8 -6 15 -13 17 -7 1 -8 0 -2 -3z"/>
<path d="M1235 1691 c-3 -6 -1 -11 5 -11 6 0 8 -4 5 -10 -3 -5 1 -10 11 -10
14 0 15 2 3 18 -7 9 -14 18 -15 20 -1 2 -5 -1 -9 -7z"/>
<path d="M395 1680 c-3 -5 -1 -10 4 -10 6 0 11 5 11 10 0 6 -2 10 -4 10 -3 0
-8 -4 -11 -10z"/>
<path d="M750 1680 c-9 -6 -10 -10 -3 -10 6 0 15 5 18 10 8 12 4 12 -15 0z"/>
<path d="M1332 1676 c7 -8 15 -12 17 -11 5 6 -10 25 -20 25 -5 0 -4 -6 3 -14z"/>
<path d="M1150 1670 c0 -5 5 -10 10 -10 6 0 10 5 10 10 0 6 -4 10 -10 10 -5 0
-10 -4 -10 -10z"/>
<path d="M310 1660 c-9 -6 -10 -10 -3 -10 6 0 15 5 18 10 8 12 4 12 -15 0z"/>
<path d="M1470 1660 c0 -5 5 -10 10 -10 6 0 10 5 10 10 0 6 -4 10 -10 10 -5 0
-10 -4 -10 -10z"/>
<path d="M1966 1655 c4 -8 11 -15 16 -15 6 0 5 6 -2 15 -7 8 -14 15 -16 15 -2
0 -1 -7 2 -15z"/>
<path d="M240 1645 c0 -8 4 -15 10 -15 5 0 7 7 4 15 -4 8 -8 15 -10 15 -2 0
-4 -7 -4 -15z"/>
<path d="M748 1653 c7 -3 16 -2 19 1 4 3 -2 6 -13 5 -11 0 -14 -3 -6 -6z"/>
<path d="M1070 1650 c0 -5 5 -10 10 -10 6 0 10 5 10 10 0 6 -4 10 -10 10 -5 0
-10 -4 -10 -10z"/>
<path d="M1625 1636 c0 -13 3 -22 7 -20 4 2 9 0 13 -6 3 -5 11 -10 16 -10 6 0
6 5 -1 13 -6 6 -16 20 -23 30 -11 16 -12 15 -12 -7z"/>
<path d="M1737 1638 c-19 -20 -19 -20 3 -13 14 4 20 3 17 -2 -4 -6 4 -8 18 -5
28 5 31 12 13 30 -16 16 -30 14 -51 -10z m38 2 c3 -5 1 -10 -4 -10 -6 0 -11 5
-11 10 0 6 2 10 4 10 3 0 8 -4 11 -10z"/>
<path d="M2003 1640 c3 -14 11 -40 18 -58 11 -26 11 -36 1 -52 -7 -12 -8 -20
-2 -20 6 0 15 11 21 24 9 20 7 33 -15 78 -15 29 -25 42 -23 28z"/>
<path d="M2035 1650 c3 -5 8 -10 11 -10 2 0 4 5 4 10 0 6 -5 10 -11 10 -5 0
-7 -4 -4 -10z"/>
<path d="M723 1628 c1 -9 -10 -12 -38 -11 l-40 2 40 -13 c33 -10 36 -14 20
-19 -20 -6 -20 -6 0 -3 11 1 19 8 18 14 -2 7 4 12 12 12 8 0 15 7 15 15 0 8
-7 15 -15 15 -8 0 -14 -6 -12 -12z"/>
<path d="M1550 1615 c0 -8 4 -15 10 -15 5 0 7 7 4 15 -4 8 -8 15 -10 15 -2 0
-4 -7 -4 -15z"/>
<path d="M790 1610 c0 -5 -6 -7 -14 -4 -20 8 -29 -12 -21 -46 9 -43 25 -37 19
8 -4 34 -4 35 7 12 7 -14 11 -31 10 -39 -1 -7 2 -10 9 -6 6 4 9 13 6 20 -3 8
0 16 7 19 7 2 4 5 -5 5 -10 1 -18 6 -18 12 0 5 4 7 10 4 6 -3 7 1 4 9 -7 18
-14 21 -14 6z"/>
<path d="M1347 1606 c-3 -7 2 -23 10 -37 l14 -24 -4 28 c-3 18 0 27 9 27 9 0
14 -11 14 -30 0 -16 5 -30 10 -30 6 0 10 13 10 29 0 23 -6 31 -29 39 -22 8
-31 7 -34 -2z"/>
<path d="M1983 1599 c-1 -10 2 -19 8 -19 11 0 12 27 1 34 -4 2 -9 -4 -9 -15z"/>
<path d="M990 1601 c10 -7 11 -11 3 -11 -7 0 -13 -4 -13 -8 0 -13 25 -10 38 5
7 7 8 13 3 13 -5 0 -18 3 -28 6 -15 5 -15 4 -3 -5z"/>
<path d="M1120 1601 c0 -5 7 -14 15 -21 16 -14 18 -10 9 14 -6 17 -24 22 -24
7z"/>
<path d="M1180 1600 c0 -6 7 -10 15 -10 8 0 15 2 15 4 0 2 -7 6 -15 10 -8 3
-15 1 -15 -4z"/>
<path d="M1806 1602 c-3 -5 1 -9 9 -9 8 0 12 4 9 9 -3 4 -7 8 -9 8 -2 0 -6 -4
-9 -8z"/>
<path d="M1236 1586 c3 -8 1 -17 -5 -21 -6 -3 -11 -16 -11 -28 0 -29 16 -10
25 31 4 20 3 32 -4 32 -6 0 -8 -6 -5 -14z"/>
<path d="M1310 1589 c0 -5 5 -7 10 -4 6 3 10 8 10 11 0 2 -4 4 -10 4 -5 0 -10
-5 -10 -11z"/>
<path d="M1277 1584 c-10 -10 -9 -64 2 -64 5 0 11 8 13 18 6 22 -5 56 -15 46z"/>
<path d="M1638 1583 c7 -3 16 -2 19 1 4 3 -2 6 -13 5 -11 0 -14 -3 -6 -6z"/>
<path d="M1436 1564 c-8 -21 -8 -24 5 -24 5 0 8 4 4 9 -3 5 -1 12 5 16 5 3 10
1 10 -4 0 -6 10 -11 22 -11 25 0 14 14 -18 24 -15 5 -24 2 -28 -10z"/>
<path d="M1814 1563 c2 -13 0 -23 -5 -23 -5 0 -9 -5 -9 -10 0 -6 6 -10 13 -9
23 3 37 -1 37 -10 0 -5 -8 -8 -17 -6 -10 1 -12 0 -4 -2 12 -4 12 -6 0 -14 -12
-7 -11 -9 2 -9 9 0 21 12 27 26 9 19 9 24 0 18 -8 -5 -9 -2 -5 10 6 14 3 17
-9 12 -12 -5 -14 -1 -9 17 4 15 3 18 -3 8 -8 -11 -11 -11 -16 0 -3 8 -4 4 -2
-8z"/>
<path d="M1993 1555 c0 -8 4 -15 9 -15 4 0 8 7 8 15 0 8 -4 15 -8 15 -5 0 -9
-7 -9 -15z"/>
<path d="M675 1551 c-3 -5 -1 -12 5 -16 5 -3 10 1 10 9 0 18 -6 21 -15 7z"/>
<path d="M1317 1553 c-4 -3 -7 -11 -7 -17 0 -6 5 -5 12 2 6 6 9 14 7 17 -3 3
-9 2 -12 -2z"/>
<path d="M1521 1548 c-1 -9 -4 -25 -7 -35 -5 -15 -4 -15 5 -3 9 13 11 13 11
-1 0 -9 6 -21 13 -27 19 -16 41 2 34 27 -4 15 0 21 11 22 11 0 13 2 4 6 -7 3
-20 2 -30 -2 -13 -5 -14 -8 -3 -14 7 -5 10 -14 7 -20 -11 -17 -25 -4 -35 32
-5 18 -10 24 -10 15z"/>
<path d="M70 1535 c-10 -13 -9 -15 8 -15 11 0 22 -5 24 -12 3 -8 6 -9 11 -1 4
6 -2 18 -12 27 -16 15 -19 15 -31 1z"/>
<path d="M706 1523 c-4 -8 -13 -13 -21 -9 -8 3 -15 1 -15 -4 0 -13 27 -13 35
0 4 6 10 8 14 6 4 -3 13 -1 20 3 9 6 7 10 -8 14 -12 3 -22 -1 -25 -10z"/>
<path d="M1350 1531 c0 -6 4 -13 10 -16 6 -3 7 1 4 9 -7 18 -14 21 -14 7z"/>
<path d="M1480 1530 c10 -6 11 -10 3 -10 -7 0 -13 -5 -13 -11 0 -8 5 -8 15 1
20 17 19 30 -2 30 -15 0 -16 -2 -3 -10z"/>
<path d="M1437 1523 c-4 -3 -7 -11 -7 -17 0 -6 5 -5 12 2 6 6 9 14 7 17 -3 3
-9 2 -12 -2z"/>
<path d="M640 1510 c0 -5 5 -10 10 -10 6 0 10 5 10 10 0 6 -4 10 -10 10 -5 0
-10 -4 -10 -10z"/>
<path d="M1301 1498 c-8 -13 -15 -32 -17 -43 -1 -11 -5 -29 -8 -40 -5 -15 -4
-15 5 3 7 12 17 22 23 22 6 0 4 5 -4 10 -13 8 -12 11 4 23 10 7 17 21 15 30
-3 15 -6 14 -18 -5z"/>
<path d="M1265 1500 c4 -6 11 -8 16 -5 14 9 11 15 -7 15 -8 0 -12 -5 -9 -10z"/>
<path d="M1650 1499 c0 -5 -4 -8 -8 -5 -16 10 -11 -58 5 -76 13 -15 13 -18 2
-18 -9 0 -10 -3 -3 -8 6 -4 16 -17 23 -30 10 -19 10 -27 -1 -40 -12 -15 -11
-16 5 -3 15 12 17 12 11 -3 -3 -9 -1 -16 5 -16 6 0 11 -7 11 -16 0 -12 7 -15
26 -11 23 4 25 2 19 -22 -6 -25 -6 -25 9 -6 12 17 13 22 1 34 -11 11 -10 16 3
32 8 10 19 16 24 13 4 -3 5 2 2 10 -8 20 -20 20 -28 1 -3 -8 -12 -12 -20 -9
-12 5 -14 0 -10 -23 l5 -28 -16 23 c-9 12 -14 26 -11 31 3 5 -1 11 -9 15 -8 3
-15 11 -15 18 0 9 3 9 12 0 14 -14 58 -16 58 -3 0 5 -12 9 -26 9 -14 0 -33 7
-42 17 -16 17 -16 17 3 10 42 -16 55 -17 55 -6 0 7 -5 9 -12 5 -8 -5 -9 -2 -5
9 3 10 2 17 -3 17 -6 0 -10 -4 -10 -10 0 -16 -13 -12 -45 16 l-30 26 28 -17
c29 -17 54 -12 27 5 -8 6 -10 10 -4 10 5 0 15 -5 22 -12 7 -7 12 -8 12 -2 0 5
-8 17 -18 25 -16 13 -20 14 -28 3 -7 -10 -13 -11 -24 -3 -13 9 -12 10 3 5 9
-3 17 -1 17 4 0 6 -4 10 -10 10 -5 0 -7 7 -4 15 4 8 3 15 0 15 -3 0 -6 -5 -6
-11z"/>
<path d="M1130 1479 c0 -11 5 -17 10 -14 6 3 10 13 10 21 0 8 -4 14 -10 14 -5
0 -10 -9 -10 -21z"/>
<path d="M1191 1495 c-2 -25 15 -34 44 -26 l30 9 -32 1 c-17 1 -34 7 -36 14
-3 6 -6 8 -6 2z"/>
<path d="M1390 1489 c0 -5 5 -7 10 -4 6 3 10 8 10 11 0 2 -4 4 -10 4 -5 0 -10
-5 -10 -11z"/>
<path d="M1700 1491 c0 -8 64 -61 73 -61 5 0 6 4 3 9 -4 5 0 11 6 14 9 3 6 12
-11 28 -21 22 -22 22 -12 3 5 -12 8 -24 4 -27 -8 -8 -35 21 -29 31 2 4 -4 8
-15 8 -10 0 -19 -3 -19 -5z"/>
<path d="M1330 1475 c-7 -9 -10 -18 -7 -22 8 -7 37 15 37 28 0 14 -16 11 -30
-6z"/>
<path d="M1865 1479 c-4 -10 -14 -14 -29 -12 -17 4 -25 -1 -29 -16 -3 -12 -1
-19 4 -16 5 4 6 -7 3 -23 -4 -19 -1 -32 7 -37 9 -6 11 -2 7 13 -7 26 -1 28 24
5 10 -9 21 -13 24 -10 11 10 -6 58 -17 51 -8 -4 -7 -9 2 -15 7 -4 11 -10 8
-13 -3 -3 -13 0 -23 7 -25 18 -11 47 20 41 26 -5 29 2 14 26 -8 13 -10 12 -15
-1z"/>
<path d="M82 1468 c3 -7 19 -14 37 -15 22 -2 31 1 29 9 -3 7 -19 14 -37 15
-22 2 -31 -1 -29 -9z"/>
<path d="M1425 1470 c-3 -5 -1 -10 4 -10 6 0 11 5 11 10 0 6 -2 10 -4 10 -3 0
-8 -4 -11 -10z"/>
<path d="M1370 1452 c0 -26 -20 -72 -32 -72 -14 0 -9 -18 8 -24 8 -3 13 -2 10
3 -6 9 22 72 36 82 5 3 2 12 -7 19 -13 10 -15 9 -15 -8z"/>
<path d="M2007 1463 c-10 -10 -8 -43 2 -43 6 0 13 5 16 10 3 6 1 10 -6 10 -8
0 -8 4 1 15 12 14 0 22 -13 8z"/>
<path d="M1547 1445 c-6 -15 10 -32 20 -21 4 3 1 6 -5 6 -6 0 -9 7 -6 15 4 8
4 15 1 15 -3 0 -7 -7 -10 -15z"/>
<path d="M150 1433 c-13 -15 -12 -16 3 -10 15 6 17 3 11 -16 -6 -21 -6 -21 14
3 14 18 17 27 9 32 -16 11 -20 10 -37 -9z"/>
<path d="M1248 1443 c7 -3 16 -2 19 1 4 3 -2 6 -13 5 -11 0 -14 -3 -6 -6z"/>
<path d="M1447 1423 c-3 -15 -8 -37 -12 -48 -3 -11 3 -2 14 19 12 23 17 44 12
49 -4 4 -11 -4 -14 -20z"/>
<path d="M1492 1419 c-2 -19 2 -28 8 -24 12 7 13 42 2 49 -4 2 -9 -9 -10 -25z"/>
<path d="M110 1423 c0 -13 5 -23 10 -23 13 0 13 11 0 30 -8 12 -10 11 -10 -7z"/>
<path d="M1320 1429 c0 -5 5 -7 10 -4 6 3 10 8 10 11 0 2 -4 4 -10 4 -5 0 -10
-5 -10 -11z"/>
<path d="M1410 1431 c0 -5 -3 -18 -6 -28 -6 -16 -5 -16 9 2 19 23 21 35 7 35
-5 0 -10 -4 -10 -9z"/>
<path d="M1230 1420 c0 -5 5 -10 11 -10 5 0 7 5 4 10 -3 6 -8 10 -11 10 -2 0
-4 -4 -4 -10z"/>
<path d="M195 1410 c-3 -5 -1 -10 4 -10 6 0 11 5 11 10 0 6 -2 10 -4 10 -3 0
-8 -4 -11 -10z"/>
<path d="M1196 1411 c-4 -6 -6 -24 -4 -40 1 -16 -4 -36 -11 -45 -8 -10 -9 -16
-3 -16 6 0 16 9 22 20 6 11 8 20 5 20 -3 0 -1 9 5 20 12 23 -2 62 -14 41z"/>
<path d="M1750 1414 c0 -3 11 -15 25 -26 14 -11 23 -24 20 -29 -4 -5 -1 -9 4
-9 13 0 14 20 3 35 -9 13 -52 37 -52 29z"/>
<path d="M1301 1383 c0 -25 1 -26 9 -8 12 27 12 35 0 35 -5 0 -10 -12 -9 -27z"/>
<path d="M87 1349 c6 -58 32 -90 67 -81 15 4 16 7 6 10 -32 10 -57 43 -55 72
1 17 -4 35 -11 41 -10 8 -11 -1 -7 -42z"/>
<path d="M138 1394 c-14 -13 -9 -34 8 -34 8 0 13 -4 10 -9 -8 -12 3 -41 15
-41 5 0 6 15 3 33 -5 27 -4 30 8 16 16 -20 68 -31 68 -15 0 6 -12 13 -27 14
-15 1 -30 7 -33 12 -4 6 -14 8 -22 5 -10 -4 -17 0 -20 10 -1 9 -6 13 -10 9z"/>
<path d="M2000 1390 c0 -5 5 -10 10 -10 6 0 10 5 10 10 0 6 -4 10 -10 10 -5 0
-10 -4 -10 -10z"/>
<path d="M205 1380 c-3 -5 -1 -10 4 -10 6 0 11 5 11 10 0 6 -2 10 -4 10 -3 0
-8 -4 -11 -10z"/>
<path d="M1150 1359 c0 -11 4 -18 10 -14 5 3 7 12 3 20 -7 21 -13 19 -13 -6z"/>
<path d="M1387 1373 c-4 -3 -7 -11 -7 -17 0 -6 5 -5 12 2 6 6 9 14 7 17 -3 3
-9 2 -12 -2z"/>
<path d="M1885 1371 c-3 -5 -1 -12 5 -16 5 -3 10 1 10 9 0 18 -6 21 -15 7z"/>
<path d="M2058 1373 c7 -3 16 -2 19 1 4 3 -2 6 -13 5 -11 0 -14 -3 -6 -6z"/>
<path d="M1226 1361 c-3 -5 1 -11 9 -15 9 -3 15 0 15 9 0 16 -16 20 -24 6z"/>
<path d="M1465 1360 c27 -12 43 -12 25 0 -8 5 -22 9 -30 9 -10 0 -8 -3 5 -9z"/>
<path d="M2000 1350 c0 -11 2 -20 4 -20 2 0 6 9 9 20 3 11 1 20 -4 20 -5 0 -9
-9 -9 -20z"/>
<path d="M1410 1354 c1 -16 29 -60 29 -44 0 8 -6 24 -14 34 -8 11 -15 16 -15
10z"/>
<path d="M1830 1355 c0 -6 5 -16 12 -23 7 -7 9 -12 5 -12 -4 0 -3 -8 2 -19 9
-16 6 -21 -20 -31 -22 -10 -27 -15 -17 -21 19 -13 28 -11 28 5 0 8 7 17 16 20
24 9 28 1 8 -18 -13 -13 -14 -19 -4 -31 10 -12 10 -15 -1 -16 -39 -5 -55 -3
-61 5 -4 6 -12 -2 -19 -17 -8 -18 -18 -26 -27 -22 -12 4 -13 3 -3 -9 8 -9 10
-27 6 -45 -3 -17 -2 -32 4 -36 6 -3 11 -14 11 -24 0 -10 8 -25 17 -32 11 -10
14 -10 9 -1 -4 7 -1 12 8 12 9 0 16 -4 16 -10 0 -5 8 -6 17 -3 15 6 14 8 -5
16 -12 6 -22 16 -22 22 0 7 -10 15 -21 18 -18 5 -20 10 -14 34 4 15 8 38 8 51
1 17 6 22 19 19 10 -3 16 -1 12 4 -3 5 -1 9 5 9 5 0 13 -4 16 -10 3 -5 11 -10
16 -10 6 0 7 5 3 12 -5 7 -2 9 9 5 18 -7 30 16 15 31 -7 7 -6 16 1 30 8 15 8
23 1 27 -8 5 -7 11 1 21 6 8 8 14 3 14 -5 0 -2 5 6 10 13 8 12 10 -5 11 -11 1
-24 1 -29 0 -5 -1 -13 4 -17 11 -5 7 -9 8 -9 3z m40 -30 c0 -8 -4 -15 -10 -15
-5 0 -7 7 -4 15 4 8 8 15 10 15 2 0 4 -7 4 -15z m-75 -264 c3 -5 2 -12 -3 -15
-5 -3 -9 1 -9 9 0 17 3 19 12 6z"/>
<path d="M2062 1340 c0 -14 2 -19 5 -12 2 6 2 18 0 25 -3 6 -5 1 -5 -13z"/>
<path d="M260 1340 c0 -5 5 -10 11 -10 5 0 7 5 4 10 -3 6 -8 10 -11 10 -2 0
-4 -4 -4 -10z"/>
<path d="M1265 1330 c-4 -6 -16 -8 -28 -5 -21 6 -21 6 -2 -6 11 -7 31 -23 45
-36 27 -25 40 -29 40 -13 0 6 -8 10 -17 11 -11 0 -13 3 -5 6 6 2 12 9 12 15 0
7 -4 7 -12 0 -9 -7 -17 -5 -28 6 -13 14 -12 15 3 9 9 -3 17 -2 17 3 0 14 -18
21 -25 10z"/>
<path d="M1462 1320 c0 -14 2 -19 5 -12 2 6 2 18 0 25 -3 6 -5 1 -5 -13z"/>
<path d="M1810 1328 c0 -9 5 -20 10 -23 13 -8 13 5 0 25 -8 13 -10 13 -10 -2z"/>
<path d="M200 1320 c0 -5 5 -10 11 -10 5 0 7 5 4 10 -3 6 -8 10 -11 10 -2 0
-4 -4 -4 -10z"/>
<path d="M1130 1319 c0 -5 5 -7 10 -4 6 3 10 8 10 11 0 2 -4 4 -10 4 -5 0 -10
-5 -10 -11z"/>
<path d="M1354 1297 c-1 -30 -1 -30 9 -9 6 14 7 26 1 32 -5 5 -9 -4 -10 -23z"/>
<path d="M227 1306 c-8 -21 16 -21 33 -1 9 10 9 15 1 15 -6 0 -11 -6 -11 -12
0 -10 -2 -10 -9 0 -7 11 -9 11 -14 -2z"/>
<path d="M1326 1305 c4 -8 8 -15 10 -15 2 0 4 7 4 15 0 8 -4 15 -10 15 -5 0
-7 -7 -4 -15z"/>
<path d="M1202 1283 c-1 -16 -7 -29 -12 -31 -12 -4 -14 -22 -2 -22 11 0 43 61
36 71 -10 17 -20 9 -22 -18z"/>
<path d="M1615 1299 c-20 -9 -20 -9 0 -8 41 2 55 -1 55 -15 0 -7 7 -20 17 -27
9 -8 22 -27 29 -44 10 -23 13 -25 13 -10 1 37 -11 64 -25 58 -8 -3 -17 5 -23
20 -7 19 -34 41 -44 36 -1 0 -11 -5 -22 -10z"/>
<path d="M180 1285 c7 -8 9 -15 4 -15 -5 0 -2 -5 6 -10 8 -5 15 -15 15 -22 0
-7 13 -14 30 -15 20 -1 23 0 8 4 -13 2 -23 9 -23 14 0 6 9 8 19 4 33 -10 94
-14 85 -5 -5 5 -27 11 -49 13 -53 7 -75 16 -75 33 0 8 -7 14 -16 14 -14 0 -14
-3 -4 -15z"/>
<path d="M1160 1285 c0 -8 4 -15 10 -15 5 0 7 7 4 15 -4 8 -8 15 -10 15 -2 0
-4 -7 -4 -15z"/>
<path d="M1390 1263 c0 -58 15 -68 17 -12 1 27 -2 49 -7 49 -6 0 -10 -17 -10
-37z"/>
<path d="M1772 1284 c17 -17 38 -12 38 9 0 7 -4 6 -11 -3 -8 -11 -12 -12 -16
-2 -2 6 -10 12 -16 12 -6 0 -4 -7 5 -16z"/>
<path d="M1435 1263 c-12 -28 -14 -43 -5 -43 7 0 21 52 15 58 -1 2 -6 -5 -10
-15z"/>
<path d="M1610 1265 c33 -19 50 -18 26 0 -11 8 -27 15 -35 15 -10 -1 -7 -6 9
-15z"/>
<path d="M1326 1245 c-3 -8 -1 -15 4 -15 13 0 22 18 11 24 -5 3 -11 -1 -15 -9z"/>
<path d="M130 1240 c0 -5 5 -10 10 -10 6 0 10 -4 10 -10 0 -16 -30 -12 -36 5
-7 18 -24 10 -24 -11 0 -8 7 -14 15 -14 8 0 15 -6 15 -12 0 -10 2 -10 9 0 6
10 10 10 20 -2 7 -8 19 -12 26 -9 19 7 87 -16 80 -28 -4 -5 -1 -9 4 -9 6 0 11
-9 11 -20 0 -13 -7 -20 -19 -20 -26 0 -81 21 -81 31 0 4 -7 6 -15 3 -8 -4 -15
-11 -15 -17 0 -6 3 -8 6 -4 4 3 23 -1 43 -9 60 -26 88 -26 95 -1 3 11 0 27 -6
34 -6 8 -8 16 -5 19 8 9 97 -7 97 -17 0 -5 -4 -9 -10 -9 -5 0 -10 -5 -10 -11
0 -8 4 -9 13 0 8 6 17 8 21 4 4 -4 4 1 0 12 -9 23 -30 46 -36 40 -4 -4 -107 9
-156 20 -12 3 -27 17 -32 30 -9 25 -30 35 -30 15z"/>
<path d="M1235 1240 c-3 -5 -1 -10 4 -10 6 0 11 5 11 10 0 6 -2 10 -4 10 -3 0
-8 -4 -11 -10z"/>
<path d="M1272 1233 c4 -21 30 -24 34 -5 1 7 0 8 -3 2 -8 -16 -26 -12 -19 5 3
8 1 15 -5 15 -6 0 -9 -8 -7 -17z"/>
<path d="M1765 1239 c-11 -16 -1 -19 13 -3 7 8 8 14 3 14 -5 0 -13 -5 -16 -11z"/>
<path d="M2031 1214 c0 -11 3 -14 6 -6 3 7 2 16 -1 19 -3 4 -6 -2 -5 -13z"/>
<path d="M2061 1214 c0 -11 3 -14 6 -6 3 7 2 16 -1 19 -3 4 -6 -2 -5 -13z"/>
<path d="M1244 1188 c-3 -5 -3 -12 0 -15 3 -4 6 -1 6 6 0 7 6 11 13 8 8 -3 20
-2 26 3 9 5 4 8 -13 8 -15 0 -29 -5 -32 -10z"/>
<path d="M1311 1184 c0 -11 3 -14 6 -6 3 7 2 16 -1 19 -3 4 -6 -2 -5 -13z"/>
<path d="M1657 1173 c-4 -3 -7 -13 -7 -22 1 -13 3 -13 11 2 11 19 8 33 -4 20z"/>
<path d="M1685 1170 c-3 -5 -3 -10 2 -10 4 0 2 -4 -6 -9 -17 -11 -6 -32 13
-25 8 3 17 1 21 -5 3 -6 0 -11 -8 -11 -9 0 -19 -18 -26 -42 -7 -24 -15 -49
-17 -55 -3 -7 -1 -13 5 -13 6 0 11 9 11 20 0 11 4 20 9 20 5 0 7 9 4 20 -4 16
-2 19 11 14 16 -6 21 8 18 49 -1 10 2 16 7 13 5 -4 8 1 7 10 -4 26 -39 43 -51
24z m33 -8 c9 -6 5 -12 -14 -21 -23 -10 -26 -10 -16 2 7 8 9 17 5 20 -9 10 9
8 25 -1z"/>
<path d="M1835 1160 c-3 -5 1 -10 9 -10 9 0 16 5 16 10 0 6 -4 10 -9 10 -6 0
-13 -4 -16 -10z"/>
<path d="M1421 1138 c-1 -10 -5 -18 -11 -18 -5 0 -10 -5 -10 -12 0 -8 6 -7 16
4 9 9 14 22 11 30 -4 9 -6 7 -6 -4z"/>
<path d="M1525 1141 c-3 -5 -2 -12 3 -15 5 -3 9 1 9 9 0 17 -3 19 -12 6z"/>
<path d="M1790 1129 c-13 -22 -4 -42 9 -21 4 7 15 10 25 6 14 -5 15 -9 5 -15
-8 -4 -10 -11 -6 -16 5 -4 11 -3 15 3 4 6 14 14 22 17 11 4 10 6 -5 6 -15 1
-17 3 -7 10 11 7 10 9 -3 14 -9 4 -13 3 -10 -3 7 -12 3 -12 -20 -4 -13 5 -14
8 -3 15 9 6 9 9 1 9 -7 0 -17 -9 -23 -21z"/>
<path d="M195 1130 c3 -5 8 -10 11 -10 2 0 4 5 4 10 0 6 -5 10 -11 10 -5 0 -7
-4 -4 -10z"/>
<path d="M307 1120 c3 -11 7 -20 8 -20 1 0 5 9 8 20 3 12 0 20 -8 20 -8 0 -11
-8 -8 -20z"/>
<path d="M1448 1118 c5 -5 16 -8 23 -6 8 3 3 7 -10 11 -17 4 -21 3 -13 -5z"/>
<path d="M382 1103 c-6 -2 -9 -10 -5 -15 4 -8 -8 -9 -40 -5 -31 4 -47 3 -47
-4 0 -6 6 -9 14 -6 8 3 17 0 20 -8 3 -10 0 -12 -12 -8 -14 6 -15 5 -2 -9 17
-18 34 -13 26 8 -8 20 38 18 58 -2 9 -8 16 -11 16 -6 0 6 10 8 23 5 16 -4 19
-3 12 6 -6 6 -23 12 -37 13 -16 1 -24 7 -21 15 3 7 10 10 16 6 6 -3 7 -1 3 5
-4 7 -8 12 -9 11 -1 0 -8 -3 -15 -6z"/>
<path d="M1648 1103 c-21 -5 -24 -43 -4 -43 8 0 18 4 21 10 4 6 -1 7 -12 4
-12 -4 -10 0 7 15 25 20 22 23 -12 14z"/>
<path d="M338 1093 c7 -3 16 -2 19 1 4 3 -2 6 -13 5 -11 0 -14 -3 -6 -6z"/>
<path d="M218 1068 c5 -5 16 -8 23 -6 8 3 3 7 -10 11 -17 4 -21 3 -13 -5z"/>
<path d="M1846 1065 c-3 -10 1 -15 13 -15 10 0 18 7 18 15 0 8 -6 15 -13 15
-6 0 -14 -7 -18 -15z"/>
<path d="M1729 1040 c-1 -5 -2 -16 -3 -22 0 -7 -8 -13 -16 -13 -8 0 -15 -4
-15 -10 -1 -5 -7 -21 -14 -33 -7 -13 -10 -26 -8 -29 3 -2 -3 -13 -14 -24 -11
-11 -17 -24 -14 -28 8 -13 -22 -34 -37 -25 -10 5 -10 4 -1 -6 10 -11 16 -10
33 5 11 10 18 20 15 23 -8 8 26 42 42 42 7 0 13 -10 13 -22 0 -19 -2 -20 -11
-8 -8 13 -10 12 -7 -3 2 -10 8 -18 13 -18 6 1 15 -14 21 -32 l11 -32 8 38 c4
20 11 40 16 42 4 3 6 12 2 20 -6 17 12 21 22 5 3 -5 10 -10 16 -10 5 0 9 5 9
10 0 6 -6 10 -14 10 -7 0 -21 11 -30 25 -9 14 -12 25 -6 25 5 0 10 12 10 28
-1 23 -2 25 -11 9 -6 -9 -15 -15 -20 -12 -5 4 -6 12 -2 18 11 18 12 37 2 37
-5 0 -10 -4 -10 -10z m8 -69 c2 -14 -1 -20 -7 -16 -7 4 -8 -3 -4 -22 9 -36 14
-42 14 -15 0 12 4 22 9 22 5 0 8 -11 7 -25 0 -14 -4 -25 -8 -25 -5 0 -8 -12
-8 -27 0 -36 -8 -25 -16 23 -7 46 -12 56 -24 49 -16 -10 -19 12 -5 31 15 18
15 18 9 -1 -5 -16 -4 -17 4 -5 7 9 8 18 1 26 -7 9 -5 12 7 10 10 -2 19 -13 21
-25z"/>
<path d="M1857 1026 c-4 -10 -5 -21 -2 -24 9 -9 17 6 13 25 -3 17 -4 17 -11
-1z"/>
<path d="M1590 1019 c0 -5 5 -7 10 -4 6 3 10 8 10 11 0 2 -4 4 -10 4 -5 0 -10
-5 -10 -11z"/>
<path d="M236 1003 c-6 -14 -5 -15 5 -6 7 7 10 15 7 18 -3 3 -9 -2 -12 -12z"/>
<path d="M330 1010 c0 -5 7 -10 15 -10 8 0 14 -3 13 -7 0 -5 4 -19 10 -33 8
-18 11 -20 11 -7 1 9 7 17 14 18 6 0 3 4 -8 9 -18 8 -18 9 5 9 14 0 42 -3 63
-8 27 -7 37 -6 37 3 0 8 -19 13 -51 15 -28 1 -62 6 -75 12 -32 11 -34 11 -34
-1z"/>
<path d="M1540 1005 c-7 -8 -8 -15 -2 -15 5 0 15 7 22 15 7 8 8 15 2 15 -5 0
-15 -7 -22 -15z"/>
<path d="M1604 995 c-17 -13 -17 -14 -2 -15 9 0 20 5 23 11 11 17 0 20 -21 4z"/>
<path d="M256 991 c-4 -5 3 -7 14 -4 23 6 26 13 6 13 -8 0 -17 -4 -20 -9z"/>
<path d="M1486 981 c-5 -7 -15 -10 -23 -7 -8 3 -11 1 -8 -5 4 -5 16 -9 28 -7
14 2 26 -5 35 -22 14 -25 14 -25 8 -1 -4 22 -3 23 31 18 33 -6 35 -5 22 9 -11
11 -22 12 -40 6 -18 -7 -27 -5 -35 6 -8 11 -13 12 -18 3z"/>
<path d="M1810 976 c0 -8 6 -16 14 -19 10 -4 12 0 9 14 -6 22 -23 26 -23 5z"/>
<path d="M280 970 c0 -5 7 -10 16 -10 8 0 12 5 9 10 -3 6 -10 10 -16 10 -5 0
-9 -4 -9 -10z"/>
<path d="M1852 960 c0 -14 2 -19 5 -12 2 6 2 18 0 25 -3 6 -5 1 -5 -13z"/>
<path d="M462 960 c4 -19 28 -39 48 -39 10 0 9 3 -5 11 -11 6 -26 19 -33 27
-10 14 -12 14 -10 1z"/>
<path d="M495 950 c3 -5 11 -10 16 -10 6 0 7 5 4 10 -3 6 -11 10 -16 10 -6 0
-7 -4 -4 -10z"/>
<path d="M240 903 c0 -13 14 -28 28 -30 19 -4 14 11 -8 25 -11 7 -20 9 -20 5z"/>
<path d="M1540 890 c0 -5 5 -10 11 -10 5 0 7 5 4 10 -3 6 -8 10 -11 10 -2 0
-4 -4 -4 -10z"/>
<path d="M310 882 c0 -7 -4 -10 -10 -7 -5 3 -10 1 -10 -4 0 -6 8 -11 18 -11 9
0 42 -9 72 -20 30 -11 56 -20 57 -20 1 0 1 -6 -1 -12 -1 -7 -1 -10 1 -5 3 4
14 7 24 7 11 0 18 -4 14 -9 -3 -5 2 -17 11 -25 11 -12 12 -16 2 -16 -7 0 -2
-7 10 -16 13 -9 26 -13 30 -9 4 4 1 10 -5 12 -7 3 -13 11 -13 18 0 8 -8 19
-17 24 -17 10 -16 10 2 11 11 0 36 -5 55 -11 19 -5 42 -12 50 -14 8 -2 23 -6
33 -10 9 -4 17 -3 17 2 0 7 -29 16 -150 48 -51 14 -67 19 -75 25 -5 5 -30 13
-55 20 -25 7 -48 17 -52 24 -6 8 -8 7 -8 -2z"/>
<path d="M431 881 c-12 -8 -12 -12 -2 -25 8 -9 18 -16 23 -16 6 0 5 6 -2 15
-6 8 -9 19 -5 25 8 12 4 12 -14 1z"/>
<path d="M92 860 c0 -14 2 -19 5 -12 2 6 2 18 0 25 -3 6 -5 1 -5 -13z"/>
<path d="M491 864 c0 -11 3 -14 6 -6 3 7 2 16 -1 19 -3 4 -6 -2 -5 -13z"/>
<path d="M1771 858 c1 -17 2 -19 6 -5 2 9 11 17 19 17 16 0 19 -16 4 -25 -5
-3 -10 -11 -10 -17 0 -7 6 -6 15 2 25 21 19 50 -10 50 -20 0 -25 -5 -24 -22z"/>
<path d="M515 860 c3 -5 8 -10 11 -10 2 0 4 5 4 10 0 6 -5 10 -11 10 -5 0 -7
-4 -4 -10z"/>
<path d="M550 854 c0 -8 5 -12 10 -9 6 4 8 11 5 16 -9 14 -15 11 -15 -7z"/>
<path d="M1670 855 c0 -8 4 -15 9 -15 5 0 11 -10 14 -22 4 -12 9 -19 12 -16 6
6 -21 68 -30 68 -3 0 -5 -7 -5 -15z"/>
<path d="M275 840 c3 -5 8 -10 11 -10 2 0 4 5 4 10 0 6 -5 10 -11 10 -5 0 -7
-4 -4 -10z"/>
<path d="M1991 824 c0 -11 3 -14 6 -6 3 7 2 16 -1 19 -3 4 -6 -2 -5 -13z"/>
<path d="M367 814 c18 -9 31 -20 28 -24 -3 -4 2 -10 10 -13 12 -5 12 -2 3 18
-6 13 -20 26 -32 29 -38 10 -42 6 -9 -10z"/>
<path d="M560 821 c0 -6 3 -11 8 -12 4 0 15 -2 25 -4 11 -2 16 0 12 3 -4 4
-10 7 -13 7 -4 0 -13 4 -19 8 -8 5 -13 4 -13 -2z"/>
<path d="M340 800 c8 -5 20 -10 25 -10 6 0 3 5 -5 10 -8 5 -19 10 -25 10 -5 0
-3 -5 5 -10z"/>
<path d="M299 786 c6 -8 22 -16 34 -19 59 -14 153 -54 151 -65 -1 -7 0 -8 3
-2 7 14 30 13 36 -2 3 -10 9 -9 22 3 13 13 14 18 4 24 -8 6 -10 4 -4 -5 11
-17 -18 -9 -115 33 -44 19 -122 47 -134 47 -5 0 -3 -6 3 -14z"/>
<path d="M1645 790 c3 -5 8 -10 11 -10 2 0 4 5 4 10 0 6 -5 10 -11 10 -5 0 -7
-4 -4 -10z"/>
<path d="M1710 780 c0 -5 5 -10 10 -10 6 0 10 5 10 10 0 6 -4 10 -10 10 -5 0
-10 -4 -10 -10z"/>
<path d="M445 770 c3 -5 8 -10 11 -10 2 0 4 5 4 10 0 6 -5 10 -11 10 -5 0 -7
-4 -4 -10z"/>
<path d="M82 745 c0 -16 2 -22 5 -12 2 9 2 23 0 30 -3 6 -5 -1 -5 -18z"/>
<path d="M550 755 c0 -8 4 -15 10 -15 5 0 7 7 4 15 -4 8 -8 15 -10 15 -2 0 -4
-7 -4 -15z"/>
<path d="M586 742 c17 -30 20 -31 31 -15 7 9 13 12 13 6 0 -6 7 -14 16 -17 14
-5 15 -4 5 8 -9 11 -9 15 1 19 7 2 5 3 -4 2 -10 -2 -18 2 -18 8 0 6 -7 2 -16
-9 -15 -19 -16 -19 -9 1 3 11 3 16 -1 12 -4 -4 -14 -1 -22 6 -11 8 -10 3 4
-21z"/>
<path d="M350 731 c0 -5 7 -11 14 -14 10 -4 13 -1 9 9 -6 15 -23 19 -23 5z"/>
<path d="M396 722 c-3 -5 1 -9 9 -9 8 0 15 4 15 9 0 4 -4 8 -9 8 -6 0 -12 -4
-15 -8z"/>
<path d="M677 703 c3 -7 6 -13 8 -13 2 0 5 6 8 13 3 8 -1 14 -8 14 -7 0 -11
-6 -8 -14z"/>
<path d="M345 690 c3 -5 8 -10 11 -10 2 0 4 5 4 10 0 6 -5 10 -11 10 -5 0 -7
-4 -4 -10z"/>
<path d="M1950 650 c0 -5 5 -10 10 -10 6 0 10 5 10 10 0 6 -4 10 -10 10 -5 0
-10 -4 -10 -10z"/>
<path d="M376 639 c4 -8 30 -6 38 2 3 3 -5 5 -19 5 -13 0 -22 -3 -19 -7z"/>
<path d="M81 624 c0 -11 3 -14 6 -6 3 7 2 16 -1 19 -3 4 -6 -2 -5 -13z"/>
<path d="M435 620 c3 -5 11 -10 16 -10 6 0 7 5 4 10 -3 6 -11 10 -16 10 -6 0
-7 -4 -4 -10z"/>
<path d="M490 610 c0 -5 8 -10 18 -11 11 0 12 -2 4 -6 -7 -3 -19 1 -28 7 -12
11 -13 10 -8 -4 3 -9 14 -16 23 -16 9 0 22 -5 29 -12 6 -6 23 -12 36 -14 21
-2 23 0 13 11 -8 9 -16 10 -24 3 -9 -8 -13 -6 -13 4 0 15 -30 48 -43 48 -4 0
-7 -4 -7 -10z"/>
<path d="M1760 595 c-7 -9 -10 -19 -6 -23 4 -4 14 1 21 12 8 10 18 15 24 11 6
-3 11 -1 11 4 0 16 -36 13 -50 -4z"/>
<path d="M1981 585 c1 -19 18 -51 18 -35 0 8 -4 22 -9 30 -5 8 -9 11 -9 5z"/>
<path d="M1792 540 c0 -14 2 -19 5 -12 2 6 2 18 0 25 -3 6 -5 1 -5 -13z"/>
<path d="M1820 541 c0 -22 29 -36 43 -22 7 7 6 15 -3 26 -17 21 -40 19 -40 -4z"/>
<path d="M82 500 c0 -14 2 -19 5 -12 2 6 2 18 0 25 -3 6 -5 1 -5 -13z"/>
<path d="M1845 483 c-9 -16 -14 -20 -11 -10 4 12 2 17 -5 15 -15 -5 -23 -68
-9 -68 6 0 10 5 10 10 0 6 7 10 15 10 8 0 15 9 15 19 0 10 7 22 16 25 8 3 12
10 9 16 -10 17 -24 11 -40 -17z"/>
<path d="M1985 500 c3 -5 8 -10 11 -10 2 0 4 5 4 10 0 6 -5 10 -11 10 -5 0 -7
-4 -4 -10z"/>
<path d="M166 413 c-6 -14 -5 -15 5 -6 7 7 10 15 7 18 -3 3 -9 -2 -12 -12z"/>
<path d="M200 421 c0 -10 19 -25 25 -20 1 2 -3 10 -11 17 -8 7 -14 8 -14 3z"/>
<path d="M1726 375 c-16 -12 -17 -15 -4 -15 8 0 21 7 28 15 16 19 1 19 -24 0z"/>
<path d="M280 360 c0 -5 5 -10 10 -10 6 0 10 5 10 10 0 6 -4 10 -10 10 -5 0
-10 -4 -10 -10z"/>
<path d="M315 330 c3 -5 8 -10 11 -10 2 0 4 5 4 10 0 6 -5 10 -11 10 -5 0 -7
-4 -4 -10z"/>
<path d="M407 284 c6 -15 23 -19 23 -5 0 5 -7 11 -14 14 -10 4 -13 1 -9 -9z"/>
<path d="M465 250 c-3 -5 1 -10 10 -10 9 0 13 5 10 10 -3 6 -8 10 -10 10 -2 0
-7 -4 -10 -10z"/>
<path d="M418 243 c7 -3 16 -2 19 1 4 3 -2 6 -13 5 -11 0 -14 -3 -6 -6z"/>
<path d="M1858 233 c12 -2 32 -2 45 0 12 2 2 4 -23 4 -25 0 -35 -2 -22 -4z"/>
<path d="M1270 213 c16 -8 -9 -33 -33 -33 -11 0 -26 8 -33 18 -12 14 -13 14
-8 1 6 -19 -20 -32 -46 -24 -9 3 -28 1 -41 -4 -17 -6 -1 -8 56 -6 44 2 212 5
373 6 164 2 296 7 299 12 3 6 -107 8 -276 6 -237 -4 -280 -2 -278 10 1 8 -4
15 -11 17 -7 1 -8 0 -2 -3z"/>
<path d="M628 203 c23 -9 13 -33 -15 -34 -25 -2 -25 -2 -5 -6 31 -6 56 15 41
33 -6 8 -17 14 -23 13 -7 0 -6 -2 2 -6z"/>
<path d="M682 181 c-11 -6 -10 -10 4 -15 9 -3 19 -4 22 -1 3 3 0 5 -7 5 -7 0
-9 5 -6 10 7 12 4 12 -13 1z"/>
<path d="M1938 183 c12 -2 32 -2 45 0 12 2 2 4 -23 4 -25 0 -35 -2 -22 -4z"/>
<path d="M1015 170 c-3 -6 1 -7 9 -4 18 7 21 14 7 14 -6 0 -13 -4 -16 -10z"/>
<path d="M1050 170 c0 -5 4 -10 9 -10 6 0 13 5 16 10 3 6 -1 10 -9 10 -9 0
-16 -4 -16 -10z"/>
</g>
</svg>
