<?xml version="1.0" standalone="no"?>
<!DOCTYPE svg PUBLIC "-//W3C//DTD SVG 20010904//EN"
 "http://www.w3.org/TR/2001/REC-SVG-20010904/DTD/svg10.dtd">
<svg version="1.0" xmlns="http://www.w3.org/2000/svg"
 width="213.000000pt" height="200.000000pt" viewBox="0 0 213.000000 200.000000"
 preserveAspectRatio="xMidYMid meet">
<metadata>
Created by potrace 1.10, written by Peter Selinger 2001-2011
</metadata>
<g transform="translate(0.000000,200.000000) scale(0.100000,-0.100000)"
fill="#379d3c" stroke="none">
<path d="M1005 1851 c-37 -6 -50 -19 -33 -36 4 -4 4 -13 2 -20 -3 -7 -1 -16 5
-20 6 -3 11 -2 11 3 0 5 12 8 28 5 26 -3 26 -3 5 8 -24 12 -31 29 -13 29 6 0
10 -4 10 -8 0 -6 18 -7 63 -3 5 1 5 6 2 11 -3 6 1 10 10 10 9 0 14 -4 11 -9
-3 -5 1 -14 8 -20 12 -10 13 -8 9 8 -3 12 -1 21 6 21 6 0 11 -4 11 -10 0 -14
27 -12 33 3 4 9 8 8 16 -3 8 -12 5 -16 -17 -21 l-27 -7 28 -1 c20 -1 30 5 34
17 3 13 15 18 44 19 33 2 39 -1 39 -18 0 -10 5 -19 10 -19 5 0 9 3 9 8 -1 4
-1 16 0 27 1 18 2 19 12 3 12 -21 35 -24 42 -5 3 9 8 9 21 -2 14 -12 19 -12
26 -2 5 10 9 10 15 2 3 -7 15 -9 25 -6 12 4 22 -1 29 -12 10 -17 10 -17 11 0
0 9 5 17 10 17 6 0 10 -5 10 -11 0 -5 6 -7 13 -3 9 6 9 4 -1 -8 -10 -13 -10
-17 2 -21 9 -4 13 -15 11 -27 -2 -11 0 -20 6 -20 5 0 9 -7 9 -15 0 -8 5 -15
11 -15 8 0 8 -5 -1 -15 -9 -10 -9 -15 -1 -15 6 0 11 -8 11 -17 0 -10 6 -30 14
-45 15 -28 14 -29 -31 -11 -10 3 -20 7 -23 8 -3 0 -20 9 -38 18 -18 10 -38 17
-45 16 -6 -1 -23 1 -37 5 -14 4 -36 3 -50 -2 -20 -8 -14 -10 40 -17 36 -5 69
-7 74 -6 4 1 13 -5 20 -13 6 -7 29 -19 51 -26 56 -18 123 -48 130 -60 10 -16
55 -12 55 6 0 8 -4 12 -10 9 -6 -4 -7 1 -3 11 5 13 3 16 -10 11 -9 -3 -19 -2
-22 3 -4 6 -16 10 -28 10 -13 0 -30 9 -40 20 -9 11 -14 20 -11 20 4 0 1 7 -6
15 -7 8 -10 22 -6 30 3 8 1 15 -4 15 -5 0 -8 14 -8 31 1 17 -4 34 -9 37 -10 7
-29 69 -25 84 5 21 -57 28 -269 31 -129 3 -252 2 -274 -2z"/>
<path d="M838 1828 c-16 -5 -28 -14 -28 -19 0 -14 17 -11 52 11 35 21 22 25
-24 8z"/>
<path d="M910 1830 c0 -5 -6 -10 -14 -10 -7 0 -20 -7 -27 -16 -12 -15 -11 -16
11 -9 14 5 31 8 38 8 6 0 12 9 12 19 0 10 -4 18 -10 18 -5 0 -10 -4 -10 -10z"/>
<path d="M670 1798 c-23 -19 -23 -21 -4 -16 18 5 21 1 22 -26 0 -17 -4 -34
-11 -38 -17 -10 -3 -20 17 -12 13 5 17 15 14 35 -3 16 0 31 6 34 7 3 7 7 -2
11 -10 5 -10 9 -1 20 19 23 -12 17 -41 -8z"/>
<path d="M779 1813 c-8 -47 -6 -55 15 -49 11 3 27 6 34 6 6 0 12 5 12 11 0 7
-10 9 -25 7 -21 -5 -25 -2 -20 13 4 11 2 19 -4 19 -6 0 -12 -3 -12 -7z"/>
<path d="M550 1759 c-30 -27 -71 -62 -90 -76 -19 -15 -46 -37 -60 -49 -20 -18
-45 -25 -117 -33 -51 -5 -101 -15 -112 -20 -11 -6 -32 -11 -47 -11 -26 0 -27
0 -9 -20 10 -11 27 -20 38 -20 13 0 17 -5 13 -15 -5 -13 21 -49 99 -137 14
-16 43 -63 66 -105 22 -43 51 -92 65 -110 13 -17 24 -36 24 -41 0 -5 12 -22
26 -38 15 -15 35 -46 45 -69 10 -22 19 -35 19 -30 0 6 14 -12 32 -40 17 -27
39 -57 49 -66 11 -9 19 -21 19 -28 0 -6 5 -11 11 -11 5 0 8 -4 5 -9 -3 -5 10
-25 29 -45 19 -21 35 -40 35 -42 0 -10 28 -34 39 -34 6 0 11 -7 11 -15 0 -8 9
-15 20 -15 11 0 20 -7 20 -15 0 -8 6 -15 14 -15 8 0 16 -7 20 -15 3 -8 12 -15
21 -15 8 0 15 -4 15 -10 0 -5 10 -10 23 -9 12 0 16 3 10 6 -7 2 -13 12 -13 20
0 13 3 13 15 3 9 -7 18 -10 22 -6 3 3 1 6 -6 6 -7 0 -9 5 -6 10 9 14 -19 12
-33 -2 -9 -9 -12 -9 -12 1 0 7 -5 9 -12 5 -6 -4 -8 -3 -5 3 4 6 0 16 -8 23 -8
7 -15 9 -15 4 0 -4 -6 0 -13 11 -8 10 -18 16 -23 13 -5 -3 -14 0 -21 7 -9 10
-6 12 14 12 13 0 30 6 36 13 9 9 9 11 1 7 -17 -10 -27 24 -12 36 9 6 8 7 -5 3
-15 -5 -17 -2 -12 14 10 33 -27 24 -53 -13 -18 -24 -22 -27 -17 -10 5 17 3 22
-8 17 -13 -5 -67 54 -67 74 0 5 -9 19 -20 32 -15 17 -17 27 -9 41 6 13 6 19
-1 19 -5 0 -10 -4 -10 -10 0 -5 -5 -10 -11 -10 -6 0 -8 7 -5 16 3 8 2 13 -3
10 -8 -5 -61 55 -61 68 0 17 17 2 28 -24 8 -17 18 -28 23 -24 5 3 2 12 -6 21
-9 9 -14 21 -12 28 3 6 0 12 -6 12 -29 1 -44 10 -64 40 -13 18 -23 38 -23 45
0 8 5 6 11 -4 26 -45 40 4 17 55 -7 15 -16 27 -20 27 -12 0 -10 -8 8 -35 16
-24 16 -25 -10 -25 -14 0 -26 5 -26 11 0 5 5 7 10 4 6 -3 10 -2 10 4 0 5 -4
13 -10 16 -5 3 -10 1 -10 -4 0 -20 -16 -11 -33 18 -9 16 -14 36 -11 45 6 15
-4 32 -38 63 -12 12 -14 22 -8 38 5 13 6 26 3 29 -4 3 -1 6 5 6 7 0 12 5 12
12 0 14 -24 -7 -26 -22 -1 -6 -2 -13 -3 -16 0 -3 -8 2 -17 10 -16 17 -10 41 8
30 7 -4 8 -2 4 5 -6 9 -11 9 -22 0 -11 -9 -18 -6 -34 12 -10 13 -19 27 -20 32
0 12 18 8 22 -5 3 -7 7 -6 11 5 5 13 1 17 -18 17 -15 0 -26 7 -30 20 -4 11
-11 18 -16 15 -5 -3 -6 1 -3 9 6 16 -10 23 -19 9 -2 -5 -2 -2 -1 4 2 7 -6 22
-18 33 -12 11 -19 22 -16 25 7 8 38 -5 38 -16 0 -15 31 -10 97 17 36 14 72 22
83 19 15 -5 20 -2 20 11 0 10 3 15 6 12 3 -4 18 6 32 21 15 16 33 26 40 24 6
-3 12 3 12 13 0 16 1 16 15 -2 13 -17 14 -17 15 -2 0 21 40 20 40 -2 0 -8 9
-41 19 -72 11 -31 17 -66 14 -77 -5 -22 10 -43 41 -54 12 -5 17 -14 13 -26 -3
-14 -1 -18 10 -14 7 3 11 11 8 17 -3 6 -8 19 -11 29 -4 9 -12 17 -20 17 -14 0
-18 14 -29 90 -3 24 -11 50 -17 58 -18 21 -13 95 7 130 11 17 31 36 45 41 l25
9 -30 1 c-22 0 -44 -12 -85 -50z m215 -989 c-1 -16 2 -27 8 -23 5 3 8 0 5 -7
-2 -7 -16 -14 -30 -16 -21 -2 -26 2 -25 17 1 12 6 18 15 14 10 -4 12 0 8 11
-6 17 0 34 13 34 4 0 7 -13 6 -30z"/>
<path d="M1615 1770 c3 -11 2 -20 -4 -20 -5 0 -12 8 -14 18 -3 10 -5 7 -6 -10
-1 -22 2 -26 16 -21 10 4 14 2 10 -4 -4 -7 5 -14 22 -18 20 -4 28 -11 24 -21
-6 -17 -24 -19 -20 -2 1 6 -7 13 -18 15 -17 3 -17 2 -5 -6 13 -10 13 -12 0
-21 -11 -8 -7 -10 18 -8 29 3 36 -1 48 -27 12 -27 13 -27 8 -4 -4 20 -1 26 13
26 10 0 20 -3 23 -7 3 -4 12 -1 20 8 13 14 12 15 -3 9 -9 -3 -17 -2 -17 4 0 6
-6 7 -12 2 -19 -11 -37 -12 -44 -2 -3 5 3 9 12 9 14 0 13 3 -6 20 -13 11 -29
20 -37 20 -7 0 -13 8 -13 18 0 14 2 15 10 2 8 -13 10 -12 10 3 0 9 -7 17 -16
17 -8 0 -12 5 -9 10 3 6 1 10 -5 10 -7 0 -9 -8 -5 -20z"/>
<path d="M1674 1767 c42 -27 138 -110 143 -125 4 -10 15 -24 25 -33 27 -24 57
-100 65 -165 9 -71 -1 -393 -15 -483 -6 -35 -16 -67 -24 -72 -7 -5 -9 -9 -5
-9 5 0 -1 -13 -12 -28 -11 -16 -23 -40 -26 -53 -9 -36 -46 -76 -77 -84 -30 -8
-68 9 -68 30 0 8 -6 15 -14 15 -20 0 -37 25 -30 44 3 9 12 16 20 16 8 0 14 5
14 11 0 6 -3 9 -7 7 -5 -2 -20 -10 -34 -17 -24 -12 -29 -11 -53 10 -24 21 -25
24 -9 31 16 6 16 7 -2 7 -11 1 -31 13 -44 26 -13 14 -36 33 -52 42 -43 26 -46
49 -9 83 25 23 33 41 41 92 6 34 15 68 21 75 6 7 7 13 2 13 -5 0 -1 5 9 11 9
6 15 14 12 20 -4 5 -2 9 3 9 11 0 25 37 23 58 -1 6 3 12 10 12 6 0 9 8 6 20
-3 10 -1 20 4 22 5 2 12 35 15 73 3 39 10 72 15 73 5 2 9 13 9 24 0 16 -3 18
-14 9 -14 -12 -23 -45 -33 -119 -5 -41 -7 -43 -32 -38 -25 5 -25 5 -3 -6 24
-12 24 -35 1 -30 -11 3 -11 1 -2 -9 8 -8 8 -18 2 -30 -5 -11 -14 -28 -19 -39
-6 -12 -8 -25 -5 -31 4 -5 1 -8 -7 -7 -7 2 -12 -5 -12 -14 1 -10 -3 -15 -8
-12 -6 4 -7 -2 -3 -16 5 -16 4 -21 -6 -18 -8 3 -14 15 -13 27 1 22 -10 28 -21
11 -3 -5 3 -26 13 -47 20 -37 19 -38 -1 -80 -12 -24 -25 -43 -30 -43 -4 0 -5
5 -2 10 3 6 -1 10 -11 10 -14 0 -14 -2 -3 -16 10 -13 10 -17 -2 -24 -9 -7 -15
-5 -17 5 -2 8 -7 15 -12 15 -17 0 -58 53 -53 66 3 8 0 14 -6 14 -6 0 -8 7 -4
16 3 8 11 13 17 11 6 -3 11 6 11 19 0 34 -10 30 -29 -11 -16 -34 -39 -45 -51
-26 -3 5 -1 12 5 16 5 3 10 14 10 23 -1 14 -2 14 -12 -3 -6 -11 -12 -21 -13
-23 -1 -1 -19 13 -39 33 -20 19 -41 35 -47 35 -5 0 -7 5 -4 10 3 6 -4 10 -17
9 -13 0 -17 -3 -10 -6 6 -2 9 -10 6 -15 -4 -6 -3 -8 3 -5 5 3 25 -9 43 -28 25
-25 29 -35 18 -35 -9 0 -19 -3 -22 -8 -2 -4 13 -6 35 -4 34 4 38 2 32 -14 -4
-11 -3 -15 5 -10 13 8 52 -23 52 -41 0 -7 4 -13 9 -13 21 0 70 -51 64 -67 -4
-11 -2 -14 5 -9 10 6 62 -34 62 -49 0 -3 -14 -5 -32 -5 -17 0 -28 -3 -24 -7 3
-4 24 -6 46 -5 29 2 44 -3 60 -20 l21 -22 -23 -10 c-21 -9 -21 -10 12 -14 19
-2 37 -7 40 -12 3 -5 19 -16 35 -24 l29 -15 -27 -10 c-33 -13 -36 -24 -3 -15
14 3 37 -1 55 -10 31 -16 42 -36 19 -36 -26 0 3 -12 37 -15 38 -3 59 -21 48
-39 -4 -5 -1 -6 7 -1 8 5 17 2 24 -7 18 -24 117 -88 137 -88 21 0 55 55 39 65
-6 3 -10 0 -10 -8 0 -8 -7 -18 -16 -21 -30 -12 -36 -6 -20 19 14 21 17 53 17
173 1 131 11 217 29 232 3 3 12 36 19 74 10 51 12 102 5 200 -4 72 -7 154 -5
181 3 80 -27 172 -74 221 -36 37 -50 44 -131 63 -103 24 -129 26 -100 8z m120
-33 c9 -3 13 -10 10 -15 -3 -5 2 -6 10 -3 9 3 16 1 16 -5 0 -6 7 -11 15 -11 8
0 15 -5 15 -11 0 -6 7 -8 16 -5 11 4 15 2 11 -8 -4 -9 1 -17 11 -20 15 -5 42
-48 42 -68 0 -4 -11 -8 -25 -8 -18 0 -23 4 -19 15 4 10 0 15 -11 15 -11 0 -15
5 -11 15 3 9 0 15 -9 15 -8 0 -15 6 -15 14 0 8 -4 18 -10 21 -6 4 -7 -1 -4
-12 5 -15 4 -15 -4 -3 -6 8 -8 18 -6 22 3 5 -3 11 -13 15 -10 4 -20 10 -23 13
-3 4 -14 12 -25 18 -16 9 -17 11 -3 12 9 0 23 -3 32 -6z m148 -173 c-11 -7
-11 -9 2 -14 9 -4 16 -17 16 -31 0 -20 -4 -23 -22 -18 -21 5 -21 6 -2 13 15 6
16 8 3 8 -16 1 -29 20 -29 42 0 5 10 9 23 9 16 0 18 -3 9 -9z m13 -248 c-3
-44 0 -71 8 -81 9 -11 9 -16 1 -19 -7 -2 -10 -14 -7 -26 4 -22 4 -22 -12 -2
-11 14 -14 30 -10 58 5 24 3 37 -4 37 -6 0 -11 7 -11 16 0 8 4 13 9 9 15 -8
24 34 11 50 -8 10 -8 14 2 18 7 3 14 6 15 6 1 1 0 -29 -2 -66z m-57 -480 c0
-38 -5 -78 -9 -89 -5 -14 -2 -26 8 -37 13 -13 14 -19 4 -31 -7 -9 -11 -23 -7
-31 3 -9 0 -15 -10 -15 -8 0 -12 -4 -9 -10 3 -5 1 -10 -4 -10 -6 0 -11 7 -11
15 0 8 -5 15 -11 15 -5 0 -7 -5 -4 -11 4 -6 -2 -5 -14 3 -12 7 -21 18 -21 24
0 7 -7 14 -15 18 -23 9 -18 28 21 70 19 21 33 45 30 52 -4 11 -1 12 12 5 14
-8 18 -5 19 12 2 17 0 19 -7 7 -5 -8 -10 -11 -10 -6 0 11 32 86 37 86 2 0 2
-30 1 -67z"/>
<path d="M984 1759 c-3 -6 -3 -14 2 -18 15 -11 35 -51 29 -61 -3 -4 -1 -10 5
-12 5 -1 11 -16 12 -31 2 -22 10 -32 36 -43 27 -11 32 -17 23 -28 -6 -7 -12
-43 -12 -80 -1 -53 -5 -68 -19 -76 -21 -11 -34 -2 -20 15 7 8 5 12 -5 12 -8 0
-12 -4 -9 -8 2 -4 -2 -11 -10 -16 -12 -7 -12 -10 0 -21 8 -7 14 -9 14 -5 0 5
9 9 21 10 12 1 19 -3 16 -10 -2 -7 -9 -12 -15 -12 -5 0 -14 -4 -19 -9 -5 -5
-3 -6 5 -2 6 4 12 3 12 -3 0 -21 -27 -16 -53 11 -24 23 -27 31 -17 43 7 8 16
13 20 10 4 -2 6 8 5 23 -1 15 2 32 6 37 4 6 9 15 11 20 1 6 6 9 9 8 3 -1 6 7
5 19 -1 14 -9 22 -24 25 -13 1 -21 -1 -18 -6 9 -14 -20 -21 -35 -8 -10 10 -11
9 -2 -3 14 -19 14 -31 1 -47 -7 -9 -7 -18 2 -28 10 -12 10 -15 -1 -15 -12 0
-12 -2 -1 -9 8 -4 12 -12 11 -17 -5 -16 -24 -32 -32 -27 -4 3 -14 0 -21 -6
-11 -9 -15 -7 -19 10 -4 14 -10 18 -18 13 -10 -6 -10 -9 -1 -12 7 -2 9 -8 6
-13 -3 -6 -12 -2 -21 8 -13 17 -14 17 -9 1 3 -10 0 -18 -6 -18 -7 0 -7 -4 1
-13 6 -8 9 -17 6 -20 -3 -4 -2 -5 2 -2 3 3 17 -2 30 -10 13 -9 23 -13 23 -9 0
4 8 0 18 -7 15 -13 16 -12 4 3 -11 14 -10 17 10 21 l23 4 -23 2 c-16 1 -21 5
-16 14 4 6 -2 3 -14 -7 -12 -11 -22 -14 -22 -8 0 7 -5 11 -11 10 -6 -2 -13 2
-15 7 -2 6 21 11 56 12 34 1 60 -3 60 -8 0 -6 5 -7 10 -4 6 3 10 1 10 -5 0 -6
14 -24 30 -40 17 -16 30 -27 30 -24 0 3 13 -8 28 -23 16 -15 27 -31 25 -35 -7
-14 13 -16 32 -2 18 14 18 14 -2 14 -27 0 -40 19 -22 31 15 9 6 13 -23 10 -13
-2 -16 2 -11 15 4 10 2 15 -3 11 -6 -3 -16 -2 -23 3 -11 6 -10 11 6 25 12 10
19 27 17 41 -2 20 1 22 15 14 13 -6 18 -5 18 5 0 8 -5 13 -11 12 -6 -1 -10 16
-9 43 2 64 1 63 20 56 15 -6 15 -4 -2 14 -14 15 -15 20 -4 20 8 0 10 3 4 8
-11 8 -18 28 -19 55 0 10 -5 16 -11 14 -8 -3 -44 25 -45 36 -3 22 -15 47 -23
47 -6 0 -2 7 9 16 10 8 13 12 6 9 -9 -5 -15 1 -19 14 -6 23 -18 27 -29 10z
m19 -272 c-2 -4 -9 -4 -15 -1 -7 5 -8 2 -2 -7 13 -22 13 -37 -1 -49 -10 -9
-13 -7 -10 7 1 10 -2 23 -7 30 -5 7 -6 18 -2 25 5 7 9 16 10 21 1 4 2 10 3 14
0 4 7 -2 15 -12 8 -11 12 -23 9 -28z"/>
<path d="M787 1743 c-11 -11 -8 -25 4 -17 8 4 9 0 4 -15 -4 -15 -2 -21 8 -21
13 0 16 17 7 40 -1 3 -2 8 -1 13 1 9 -13 9 -22 0z"/>
<path d="M1359 1737 c4 -5 32 -7 62 -5 l54 3 -62 5 c-34 3 -58 1 -54 -3z"/>
<path d="M819 1683 c-23 -6 -32 -41 -10 -39 9 0 15 -4 14 -11 -2 -8 16 -11 62
-9 36 2 68 6 72 9 3 4 -11 6 -33 4 -29 -1 -38 2 -36 12 3 12 0 12 -12 2 -8 -7
-20 -10 -27 -6 -8 6 -7 10 2 16 11 7 9 9 -6 10 -20 0 -20 0 0 9 21 9 3 11 -26
3z"/>
<path d="M941 1673 c-1 -6 -9 -9 -19 -6 -12 3 -19 -1 -19 -11 0 -12 6 -15 21
-10 27 8 29 10 23 26 -3 8 -6 9 -6 1z"/>
<path d="M705 1661 c14 -7 15 -10 5 -11 -12 0 -11 -3 3 -11 20 -12 14 -29 -11
-28 -14 0 -13 2 3 8 17 7 16 9 -13 16 -18 4 -36 4 -39 1 -4 -3 2 -6 13 -7 18
0 18 -1 -1 -9 -17 -6 -13 -9 20 -15 33 -7 36 -9 20 -16 -20 -9 -20 -9 0 -6 11
2 19 9 18 15 -2 7 4 12 12 12 8 0 15 7 15 15 0 8 -7 15 -15 15 -8 0 -14 5 -12
12 1 6 -7 13 -18 15 -20 3 -20 3 0 -6z"/>
<path d="M1744 1643 c-10 -16 -7 -18 22 -20 36 -3 42 5 22 25 -17 17 -31 15
-44 -5z"/>
<path d="M926 1611 c-18 -7 -18 -8 -3 -14 9 -3 17 -2 17 3 0 6 4 10 8 10 5 0
9 -7 9 -15 0 -13 -51 -35 -79 -35 -14 0 -9 22 7 34 12 9 10 11 -14 12 -27 1
-29 -1 -19 -19 8 -16 7 -23 -8 -35 -17 -13 -16 -13 16 -7 75 16 103 30 107 53
3 23 -7 26 -41 13z"/>
<path d="M755 1600 c-8 -14 4 -70 15 -70 5 0 6 16 3 35 -5 31 -4 34 17 30 13
-2 20 -1 16 2 -11 12 -45 13 -51 3z"/>
<path d="M1347 1603 c-2 -5 2 -18 8 -31 12 -23 13 -23 17 7 3 21 0 31 -8 31
-7 0 -15 -3 -17 -7z"/>
<path d="M2024 1588 c3 -13 6 -34 6 -48 1 -25 1 -25 10 -2 6 13 6 32 0 47 -12
31 -24 33 -16 3z"/>
<path d="M1723 1587 c-4 -6 -1 -13 5 -15 7 -2 12 -17 12 -33 0 -24 4 -29 25
-29 27 0 28 4 15 35 -5 11 -9 14 -9 8 -1 -16 -21 -17 -21 -1 0 6 6 19 14 27
13 14 12 16 -10 17 -13 1 -27 -3 -31 -9z"/>
<path d="M1276 1563 c1 -2 -2 -18 -6 -34 -5 -16 -5 -31 0 -34 12 -7 24 55 13
65 -6 4 -9 5 -7 3z"/>
<path d="M1814 1558 c2 -9 0 -19 -7 -21 -19 -7 -1 -19 22 -15 l20 3 -20 25
c-13 15 -19 18 -15 8z"/>
<path d="M285 1519 c-35 -39 -40 -57 -13 -46 12 4 64 87 55 87 -3 0 -21 -18
-42 -41z"/>
<path d="M70 1535 c-10 -13 -9 -15 8 -15 11 0 23 -6 25 -12 4 -8 6 -7 6 3 1
27 -24 42 -39 24z"/>
<path d="M384 1534 c5 -14 1 -15 -29 -10 -20 4 -35 3 -35 -3 0 -5 20 -11 45
-13 35 -2 44 0 40 10 -3 8 -5 18 -5 23 0 5 -5 9 -11 9 -6 0 -8 -7 -5 -16z"/>
<path d="M739 1505 c-1 -3 -2 -8 -3 -12 -1 -5 -5 -15 -11 -23 -7 -12 -6 -13 6
-4 19 14 41 12 46 -3 3 -7 -7 -18 -21 -25 l-26 -11 28 -28 c35 -34 68 -42 64
-15 -2 12 1 16 9 10 8 -4 10 -3 5 5 -4 6 -12 9 -17 6 -5 -4 -9 -2 -9 4 0 16
22 25 30 11 10 -16 15 -17 32 -3 10 9 24 10 46 4 25 -8 30 -7 25 5 -3 9 -12
13 -21 9 -13 -5 -13 -3 -1 11 7 9 15 26 16 38 2 16 -2 22 -19 23 -19 2 -20 0
-6 -8 17 -9 19 -40 2 -39 -5 1 -7 9 -6 18 3 13 1 14 -12 3 -14 -12 -20 -9 -18
10 1 4 -8 5 -19 2 -24 -7 -20 -25 5 -29 10 -1 23 -7 29 -13 11 -11 9 -12 -33
-15 -8 -1 -20 5 -27 14 -11 13 -12 13 -13 0 0 -13 -1 -13 -11 0 -8 12 -9 10
-4 -7 5 -18 3 -20 -15 -16 -12 3 -17 9 -12 12 15 9 11 59 -4 65 -8 3 -14 -1
-14 -10 0 -8 -5 -12 -10 -9 -6 4 -8 11 -5 16 4 5 4 9 1 9 -3 0 -7 -2 -7 -5z"/>
<path d="M1825 1500 c11 -5 15 -9 8 -9 -6 -1 -16 -15 -22 -31 -6 -18 -6 -28
-1 -25 6 4 7 -6 4 -23 -3 -16 -1 -32 4 -36 6 -4 11 5 11 21 2 52 6 78 15 84
13 10 -2 29 -22 28 -14 0 -13 -2 3 -9z"/>
<path d="M1638 1477 c-4 -36 -3 -43 6 -56 14 -19 36 -83 31 -92 -3 -4 2 -12
10 -19 8 -7 15 -19 15 -26 0 -8 9 -14 20 -14 11 0 20 5 20 10 0 6 9 20 20 32
22 24 26 38 10 38 -5 0 -10 -4 -10 -10 0 -5 -6 -10 -14 -10 -8 0 -17 -7 -20
-16 -3 -8 -11 -12 -17 -9 -6 4 -8 13 -5 20 2 7 -2 16 -10 19 -8 3 -14 11 -14
18 0 9 3 9 12 0 19 -19 48 -15 48 8 0 11 -4 20 -10 20 -5 0 -10 6 -10 14 0 9
-7 12 -17 10 -10 -3 -27 2 -38 10 -17 13 -17 15 -3 16 9 0 19 -6 21 -12 4 -10
8 -9 16 2 7 10 6 19 -2 28 -7 9 -13 10 -15 3 -2 -6 -11 -11 -20 -10 -11 0 -12
2 -4 6 16 6 15 20 -3 27 -8 3 -16 0 -17 -7z m90 -105 c3 -9 -3 -10 -21 -3 -14
5 -27 8 -29 5 -3 -2 -5 2 -5 10 0 17 49 6 55 -12z"/>
<path d="M1721 1473 c25 -32 71 -61 55 -34 -4 5 -1 11 6 13 13 5 2 28 -13 28
-6 0 -7 -4 -4 -10 10 -16 -12 -12 -29 5 -20 21 -31 19 -15 -2z"/>
<path d="M85 1469 c-4 -5 -3 -9 2 -10 4 0 21 -2 36 -4 17 -2 27 0 25 7 -5 14
-56 20 -63 7z"/>
<path d="M1107 1459 c7 -9 10 -18 7 -22 -3 -3 3 -3 14 0 11 2 23 0 26 -6 9
-14 26 -14 26 -1 0 5 -12 13 -27 16 -16 4 -35 12 -43 18 -13 9 -13 9 -3 -5z"/>
<path d="M680 1390 c8 -14 21 -20 45 -20 19 0 35 5 35 11 0 6 -9 8 -21 4 -14
-5 -19 -4 -15 4 5 7 1 9 -8 5 -9 -3 -16 -1 -16 5 0 6 -7 11 -15 11 -13 0 -14
-4 -5 -20z"/>
<path d="M89 1344 c2 -28 11 -54 22 -65 29 -29 45 -12 17 18 -12 13 -23 30
-24 36 0 7 -2 22 -2 35 -1 12 -5 22 -10 22 -4 0 -5 -21 -3 -46z"/>
<path d="M130 1377 c0 -23 22 -38 37 -26 9 8 17 8 26 1 20 -16 57 -24 57 -12
0 6 -14 13 -30 17 -17 3 -33 9 -36 14 -2 4 -11 6 -19 2 -8 -3 -15 0 -15 6 0 6
-4 11 -10 11 -5 0 -10 -6 -10 -13z"/>
<path d="M643 1375 c0 -8 5 -12 10 -8 5 3 22 -4 38 -16 16 -12 29 -17 29 -11
0 6 -11 16 -25 22 -14 6 -25 15 -25 20 0 4 -6 8 -13 8 -8 0 -14 -7 -14 -15z"/>
<path d="M1630 1365 c-8 -10 -9 -15 -2 -15 6 0 9 -7 5 -16 -3 -9 -12 -13 -22
-9 -9 3 -5 -4 9 -15 14 -11 32 -19 40 -19 8 0 5 4 -8 10 -13 5 -20 14 -17 19
7 11 15 60 10 60 -1 0 -8 -7 -15 -15z"/>
<path d="M732 1332 c-1 -14 -6 -28 -10 -31 -5 -3 -8 -15 -9 -26 0 -11 -4 -29
-8 -40 -6 -15 -5 -17 4 -9 7 6 13 23 15 37 4 36 32 66 56 60 19 -5 24 -43 5
-43 -5 0 -3 -5 5 -10 21 -13 27 -12 27 5 0 8 -5 15 -11 15 -5 0 -1 6 10 14 22
17 22 17 -36 37 l-46 17 -2 -26z"/>
<path d="M670 1331 c22 -15 2 -27 -22 -12 -17 10 -19 10 -15 -1 2 -7 0 -21 -4
-30 -10 -18 -2 -48 12 -48 5 0 7 14 4 31 -5 29 -4 31 20 27 22 -5 26 -2 23 15
-2 11 -10 22 -18 24 -13 4 -13 3 0 -6z"/>
<path d="M1866 1315 c-9 -14 -13 -25 -9 -25 5 -1 -5 -8 -20 -16 -15 -8 -25
-19 -22 -24 4 -6 1 -10 -6 -10 -7 0 -10 -2 -7 -5 9 -9 38 6 38 20 0 8 9 16 20
20 11 3 19 9 19 13 -1 4 0 9 1 12 4 11 8 40 5 40 -1 0 -10 -11 -19 -25z"/>
<path d="M825 1300 c-3 -5 -1 -11 5 -15 5 -3 10 -2 10 3 0 6 9 8 21 5 16 -4
17 -8 7 -14 -10 -7 -9 -9 5 -9 15 0 16 -3 7 -20 -9 -16 -7 -22 7 -27 10 -4 21
-11 25 -17 5 -7 8 -7 8 2 0 6 5 12 10 12 6 0 10 -6 10 -13 0 -7 10 -18 21 -26
19 -11 21 -11 15 4 -3 9 -6 23 -6 31 0 8 -6 11 -17 7 -11 -4 -14 -3 -9 5 4 7
2 20 -3 29 -9 16 -10 16 -11 -4 0 -16 -6 -23 -20 -23 -11 0 -20 4 -20 10 0 5
7 7 15 4 8 -4 15 -2 15 4 0 6 -5 12 -10 14 -6 2 -12 12 -12 23 -2 15 -10 20
-35 22 -18 1 -35 -2 -38 -7z"/>
<path d="M954 1298 c-3 -5 7 -8 21 -8 14 0 24 -4 21 -9 -4 -5 5 -4 19 2 14 7
25 14 25 17 0 9 -81 6 -86 -2z"/>
<path d="M183 1284 c2 -21 45 -70 54 -61 3 4 1 7 -5 7 -7 0 -12 5 -12 11 0 6
9 8 23 3 30 -10 89 -12 79 -2 -6 6 -38 12 -94 17 -4 1 -16 10 -27 22 -17 18
-19 19 -18 3z"/>
<path d="M596 1236 c-3 -13 -3 -32 0 -40 7 -18 24 -22 24 -6 0 6 -4 10 -10 10
-5 0 -10 7 -10 16 0 11 5 14 16 10 15 -6 15 -4 3 11 -7 10 -14 19 -15 21 -1 2
-4 -8 -8 -22z"/>
<path d="M1044 1246 c-20 -15 -19 -16 26 -29 8 -2 -8 -7 -37 -11 -44 -5 -51
-9 -46 -24 9 -23 29 -42 37 -35 10 10 7 35 -3 28 -5 -3 -12 -1 -15 4 -8 13 25
22 68 19 19 -1 38 1 42 5 4 4 0 7 -9 7 -9 0 -17 5 -17 10 0 6 -12 10 -27 10
-26 0 -26 1 -7 15 10 8 16 15 13 15 -3 0 -14 -6 -25 -14z"/>
<path d="M1706 1251 c-4 -6 -3 -17 2 -24 5 -7 12 -21 15 -32 4 -16 5 -15 5 5
1 36 -13 67 -22 51z"/>
<path d="M1620 1240 c0 -5 6 -10 14 -10 7 0 25 -9 40 -21 14 -11 26 -15 26 -9
0 6 -7 13 -15 16 -8 4 -13 10 -10 14 3 5 0 12 -6 16 -8 4 -9 3 -5 -4 9 -15 1
-15 -25 -2 -13 7 -19 7 -19 0z"/>
<path d="M100 1223 c0 -13 5 -23 10 -23 21 0 25 -2 40 -15 10 -8 22 -10 35 -4
19 8 19 8 -2 15 -13 3 -23 10 -23 15 0 5 -7 6 -15 2 -9 -3 -22 2 -30 13 -14
18 -14 18 -15 -3z"/>
<path d="M1786 1211 c-4 -7 -5 -15 -2 -18 3 -3 -1 -11 -10 -17 -10 -8 -14 -23
-12 -46 l4 -35 8 30 c10 42 22 60 36 57 6 -1 8 3 4 9 -4 7 0 9 12 5 11 -3 26
-1 34 4 9 6 2 8 -23 6 -20 -2 -38 2 -40 7 -2 7 -6 6 -11 -2z"/>
<path d="M225 1181 c-6 -11 15 -17 88 -25 26 -3 47 -1 47 4 0 5 -21 12 -47 15
-27 4 -55 9 -65 11 -9 3 -19 0 -23 -5z"/>
<path d="M544 1136 c2 -39 41 -114 53 -102 3 2 -5 18 -17 34 -18 25 -20 32 -9
49 10 17 9 23 -9 41 l-21 21 3 -43z"/>
<path d="M100 1148 c0 -7 5 -40 10 -73 5 -33 12 -87 14 -120 18 -232 28 -333
35 -355 5 -14 14 -46 21 -72 21 -80 42 -97 265 -212 39 -20 124 -59 190 -87
160 -67 223 -72 419 -34 273 52 574 140 656 193 19 12 41 20 48 17 6 -2 12 2
12 11 0 8 7 17 16 21 13 5 12 8 -6 25 -11 10 -18 23 -15 28 11 18 -24 66 -110
154 -78 81 -88 88 -108 77 -22 -11 -22 -11 0 -6 18 5 20 2 16 -15 -4 -15 -2
-19 10 -14 8 3 18 1 22 -5 3 -6 1 -11 -5 -11 -6 0 -8 -5 -5 -11 4 -6 13 -8 21
-5 7 3 16 0 20 -6 5 -7 2 -8 -7 -4 -8 4 12 -16 43 -46 58 -53 102 -128 76
-128 -10 0 -9 -3 1 -9 19 -12 6 -28 -29 -36 -17 -4 -30 -11 -30 -16 0 -6 -9
-8 -20 -4 -15 5 -18 3 -14 -9 7 -19 -16 -22 -34 -4 -9 9 -12 9 -13 -3 -1 -7
-1 -17 0 -21 0 -5 -6 -8 -14 -8 -8 0 -15 7 -15 15 0 8 -5 15 -11 15 -6 0 -9
-9 -6 -20 3 -13 0 -20 -9 -20 -8 0 -14 -4 -14 -10 0 -6 -9 -6 -26 1 -22 8 -29
6 -40 -10 -9 -13 -21 -17 -35 -14 -15 4 -20 3 -15 -5 11 -18 -15 -14 -36 5
-17 15 -18 15 -18 0 0 -10 5 -17 12 -17 6 0 9 -2 6 -5 -15 -15 -108 48 -108
73 0 7 -3 11 -7 10 -14 -4 -53 13 -53 23 0 5 -6 9 -14 9 -15 0 -16 16 -2 39 5
8 3 16 -5 22 -23 15 -34 10 -13 -6 18 -15 18 -15 0 -8 -14 4 -17 3 -12 -5 4
-7 -7 -5 -28 5 -20 9 -36 20 -36 25 0 4 -6 8 -14 8 -8 0 -21 9 -29 20 -8 12
-18 20 -23 19 -5 -1 -15 -1 -23 0 -11 1 -11 4 0 18 13 15 12 15 -10 3 -21 -11
-23 -10 -18 5 5 11 3 15 -5 12 -12 -4 -37 20 -38 36 0 4 7 7 16 7 20 0 13 22
-8 26 -10 1 -15 -3 -12 -10 3 -7 -3 -19 -12 -27 -12 -9 -15 -10 -10 -1 4 6 3
12 -1 12 -5 0 -13 -8 -20 -19 -12 -18 -37 -20 -82 -6 -15 4 -21 2 -21 -9 0 -8
5 -18 12 -22 7 -4 8 -3 4 4 -8 13 4 15 28 6 9 -3 13 -11 9 -17 -3 -6 -1 -7 6
-3 6 4 9 12 6 17 -11 16 7 10 22 -8 10 -14 13 -14 11 -3 -2 8 6 16 20 18 12 2
22 -1 22 -7 0 -6 10 -11 21 -11 18 0 20 -2 9 -15 -11 -13 -15 -13 -23 -3 -6
10 -7 8 -3 -4 7 -24 -10 -32 -68 -34 -39 0 -46 2 -33 11 12 9 14 14 5 23 -17
17 -29 15 -26 -5 2 -13 -6 -19 -32 -24 -19 -4 -29 -8 -22 -9 6 -1 17 -4 22 -5
6 -1 19 -3 30 -4 11 0 26 -15 36 -32 11 -22 18 -28 24 -20 4 7 11 13 15 13 10
0 25 -24 20 -33 -6 -9 -109 0 -113 10 -2 5 -12 7 -22 4 -11 -3 -18 -9 -15 -13
8 -13 -16 -23 -27 -12 -6 6 -6 12 1 16 6 4 11 12 11 19 0 8 -3 8 -11 0 -11
-11 -59 -6 -59 6 0 4 -13 6 -30 3 -20 -3 -32 1 -35 10 -4 10 -15 13 -31 10
-13 -2 -32 2 -41 9 -14 12 -16 12 -8 0 6 -10 4 -13 -6 -9 -8 3 -23 9 -34 13
-20 7 -20 6 -1 -9 11 -9 31 -16 44 -16 13 0 32 -4 42 -10 10 -5 44 -12 76 -15
32 -3 62 -11 66 -18 24 -42 37 -52 50 -39 11 11 10 12 -7 6 -20 -7 -20 -7 0
14 23 23 78 21 68 -3 -2 -8 -10 -12 -17 -9 -13 5 -48 -28 -45 -42 4 -21 -2
-28 -11 -14 -6 9 -10 10 -10 3 0 -8 -8 -9 -27 -2 -79 25 -176 50 -180 46 -4
-4 78 -35 110 -41 90 -19 87 -17 76 -38 -8 -15 -8 -19 1 -13 6 4 20 -1 32 -11
11 -10 25 -19 31 -20 7 0 20 -2 30 -2 10 -1 17 -10 17 -21 0 -14 5 -18 20 -14
22 6 27 23 8 23 -7 0 -24 9 -38 20 -14 11 -18 19 -10 18 8 -2 14 3 15 10 0 13
14 17 16 5 2 -19 21 -43 29 -38 5 3 13 -3 19 -12 7 -12 10 -13 11 -4 0 8 8 4
20 -10 10 -13 19 -18 20 -11 0 6 5 12 11 12 8 0 8 -4 0 -14 -12 -14 -35 -16
-47 -3 -4 4 -14 7 -23 6 -12 0 -11 -3 4 -8 12 -5 -6 -8 -46 -7 -49 1 -65 4
-62 13 3 7 8 11 12 9 4 -3 13 -1 21 5 13 7 13 9 0 10 -8 1 -27 0 -43 -1 -17
-1 -26 3 -25 10 2 7 -4 15 -12 17 -13 4 -13 3 0 -6 12 -8 12 -11 1 -11 -11 0
-11 -3 -1 -14 6 -8 19 -12 27 -9 11 4 14 2 9 -5 -8 -14 -38 -16 -52 -4 -5 5
-30 17 -56 26 -27 10 -51 24 -55 31 -5 7 -25 31 -45 54 -21 22 -38 43 -38 46
0 3 -8 15 -19 26 -10 11 -27 37 -37 59 -10 22 -23 40 -27 40 -5 0 -5 4 -2 10
3 5 2 10 -4 10 -5 0 -15 17 -22 38 -6 20 -15 39 -20 42 -18 12 -189 326 -198
365 -1 6 -11 24 -22 41 -10 17 -19 39 -19 48 0 9 -7 27 -15 40 -9 13 -15 28
-14 32 1 5 1 17 0 27 -1 19 -21 24 -21 5z m89 -270 c10 -7 26 -29 36 -48 10
-19 22 -38 28 -41 5 -4 10 -20 11 -37 0 -17 4 -28 7 -26 3 2 20 -17 38 -41 26
-36 30 -48 21 -64 -12 -23 -13 -42 -1 -23 6 10 12 5 21 -18 8 -18 18 -29 26
-26 9 4 12 -6 9 -37 -1 -23 -1 -36 2 -29 3 6 9 12 15 12 6 0 8 -6 5 -14 -3 -8
1 -17 9 -20 8 -3 14 -13 14 -21 0 -9 5 -13 10 -10 6 3 10 4 10 1 0 -2 3 -12 7
-22 4 -12 3 -15 -5 -10 -19 11 -14 1 14 -30 15 -16 23 -23 20 -16 -13 22 9 12
27 -13 10 -14 13 -25 7 -25 -5 0 -10 5 -10 10 0 6 -5 10 -11 10 -5 0 -7 -4 -4
-10 3 -6 2 -10 -4 -10 -5 0 -13 9 -16 20 -4 12 -14 20 -23 19 -34 -3 -53 1
-47 11 3 6 -1 10 -10 10 -9 0 -14 4 -10 9 3 5 0 13 -6 17 -8 4 -7 9 2 15 12 7
12 9 0 9 -8 0 -19 -7 -25 -16 -13 -18 -46 -9 -46 12 0 8 -4 14 -10 14 -5 0
-10 8 -10 18 -1 15 -2 15 -16 -3 -14 -19 -15 -19 -20 3 -4 12 -12 22 -18 22
-13 0 -47 84 -41 103 15 50 13 75 -5 80 -11 3 -20 13 -20 24 -1 10 -2 48 -3
84 -1 50 1 65 11 62 8 -4 10 0 6 11 -3 9 -10 16 -15 16 -5 0 -8 17 -8 38 1 23
3 28 6 15 2 -13 12 -28 22 -35z m805 -360 c-5 -7 -2 -9 9 -5 9 3 18 0 21 -9 3
-9 10 -13 14 -10 5 3 24 -8 43 -25 19 -16 39 -29 44 -30 6 0 1 -4 -10 -8 -23
-9 -57 8 -47 24 3 5 -5 2 -18 -7 -14 -9 -24 -21 -22 -27 3 -17 -15 -13 -22 5
-3 8 -10 13 -15 9 -5 -3 -12 -1 -16 5 -3 5 -1 11 4 11 6 1 16 2 21 3 6 0 10 4
10 9 0 28 -2 30 -11 15 -5 -10 -15 -18 -21 -18 -9 0 -9 3 0 12 17 17 15 28 -5
27 -11 0 -13 -3 -6 -6 10 -3 9 -10 -3 -28 -13 -21 -13 -23 3 -30 10 -5 21 -7
26 -7 4 1 7 -2 7 -8 0 -5 -10 -10 -22 -11 -13 0 -33 -2 -45 -3 -13 -2 -21 -1
-18 2 8 8 -16 43 -25 37 -6 -3 -7 2 -4 12 5 16 4 16 -10 -1 -15 -18 -18 -18
-15 0 0 4 -5 11 -13 16 -8 5 0 8 23 6 29 -1 36 -5 31 -17 -3 -9 6 -5 19 9 14
14 24 27 22 29 -1 2 2 10 8 18 14 16 53 18 43 1z m71 -84 c13 -6 14 -9 3 -16
-8 -6 6 -7 40 -3 33 3 52 2 52 -5 0 -5 7 -10 15 -10 8 0 15 -4 15 -10 0 -5 5
-10 11 -10 6 0 17 -7 25 -15 14 -13 12 -15 -15 -15 -16 0 -32 -4 -35 -8 -3 -5
17 -7 44 -4 32 3 50 1 50 -6 0 -6 9 -14 21 -17 30 -10 10 -26 -37 -30 -49 -4
-126 -25 -139 -37 -12 -12 46 -1 85 15 14 6 30 9 37 8 6 -1 30 3 54 8 36 8 40
8 28 -5 -8 -8 -34 -15 -57 -16 -23 -1 -42 -5 -42 -10 0 -5 -9 -7 -19 -3 -11 3
-22 1 -26 -5 -7 -11 -44 -13 -69 -4 -9 3 -13 11 -9 18 4 6 0 5 -9 -2 -14 -11
-18 -10 -28 5 -10 16 -11 16 -6 1 4 -15 0 -17 -29 -13 -19 2 -35 0 -35 -5 0
-17 -28 -11 -40 8 -11 16 -11 16 -6 0 6 -19 -18 -26 -29 -8 -4 6 -10 8 -15 5
-5 -3 -11 -1 -15 5 -4 6 -11 8 -16 5 -9 -6 -13 7 -10 32 1 6 -8 14 -19 18 -17
5 -19 9 -9 21 11 13 15 12 33 -9 18 -20 61 -40 82 -36 4 0 10 -5 15 -13 7 -11
10 -10 21 1 7 8 8 11 2 8 -7 -4 -17 0 -24 8 -7 8 -16 12 -21 10 -8 -5 -25 19
-29 40 -1 6 -10 9 -20 8 -13 -2 -17 2 -14 11 7 17 21 15 56 -8 15 -9 25 -23
22 -30 -6 -16 37 -30 46 -16 3 5 29 11 57 14 28 2 56 7 62 10 6 4 11 2 11 -3
0 -6 5 -11 11 -11 5 0 8 4 5 9 -4 5 -3 11 1 14 5 2 3 3 -3 1 -6 -1 -17 3 -23
9 -7 7 -11 8 -11 0 0 -5 -21 -13 -47 -16 -27 -4 -57 -9 -68 -12 -15 -4 -26 3
-43 30 -12 20 -27 33 -32 30 -6 -3 -10 -2 -10 3 0 11 48 22 96 22 18 0 36 5
39 10 3 6 1 10 -5 10 -6 0 -8 5 -5 10 7 12 8 12 30 4z m-198 -69 l-1 -36 -19
23 c-10 13 -16 18 -13 12 3 -7 -4 -24 -16 -40 -13 -15 -18 -25 -12 -22 5 4 10
-2 10 -12 0 -15 -3 -17 -15 -7 -10 8 -13 8 -8 1 4 -7 0 -17 -8 -24 -15 -12
-16 -11 -19 13 0 6 -7 12 -13 12 -7 0 -13 5 -13 10 1 6 13 9 28 8 15 -1 21 0
14 3 -10 5 -10 9 0 22 10 12 10 14 1 8 -16 -9 -17 6 -1 22 17 17 31 15 25 -3
-4 -8 -1 -17 5 -21 7 -4 8 -3 4 4 -4 7 -2 12 3 12 6 0 10 3 10 8 -3 19 2 33
11 27 6 -3 10 -1 10 4 0 6 4 11 9 11 5 0 8 -16 8 -35z m143 -155 c-20 -13 -40
-13 -40 0 0 6 7 10 15 10 8 0 15 5 15 12 0 9 3 9 12 0 10 -10 10 -15 -2 -22z"/>
<path d="M1018 370 c-11 -17 -13 -17 -25 -2 -7 10 -12 12 -13 5 0 -6 5 -15 10
-18 6 -4 7 -12 3 -18 -4 -8 -1 -7 9 1 13 10 17 10 21 0 3 -7 5 -2 4 12 -2 19
2 24 16 22 21 -4 22 4 2 12 -9 3 -20 -3 -27 -14z"/>
<path d="M1562 1142 c-9 -6 -5 -12 15 -21 27 -12 27 -13 8 -27 -16 -12 -17
-16 -6 -23 7 -5 9 -11 5 -13 -5 -3 -3 -3 4 -2 6 2 12 -1 12 -7 0 -6 5 -7 11
-4 6 5 4 11 -7 19 -11 9 -14 18 -8 27 11 18 14 39 6 38 -4 -1 -14 -1 -22 0
-13 1 -13 2 0 11 8 5 11 10 5 10 -5 0 -16 -4 -23 -8z"/>
<path d="M1673 1136 c2 -6 11 -10 20 -8 8 1 18 -2 22 -8 3 -5 -1 -10 -9 -10
-9 0 -18 -13 -22 -35 -3 -19 -10 -35 -15 -35 -5 0 -9 -9 -9 -20 0 -11 5 -20
10 -20 6 0 10 9 10 20 0 11 5 20 11 20 6 0 9 7 5 15 -3 9 0 15 9 15 8 0 15 8
16 18 0 9 2 26 3 38 2 17 -3 21 -26 21 -16 0 -27 -5 -25 -11z"/>
<path d="M160 1128 c0 -16 78 -50 85 -37 4 5 0 9 -8 9 -8 0 -22 10 -31 23 -10
14 -14 16 -10 5 8 -22 0 -23 -20 -2 -12 11 -16 12 -16 2z"/>
<path d="M1072 1114 c9 -20 17 -24 36 -19 21 5 24 3 19 -14 -3 -13 -1 -19 5
-14 6 3 17 -2 24 -11 7 -10 15 -17 19 -16 8 2 65 -45 129 -105 27 -26 59 -51
72 -55 13 -5 24 -16 24 -25 0 -8 6 -15 14 -15 8 0 18 -10 21 -21 5 -14 10 -18
14 -10 5 7 15 3 29 -14 12 -14 17 -25 12 -25 -6 0 -10 -4 -10 -9 0 -5 9 -7 20
-4 16 4 19 2 14 -11 -3 -9 -3 -16 1 -16 14 0 45 21 45 31 0 6 -5 7 -11 3 -6
-3 -25 9 -43 27 -18 19 -68 63 -112 99 -43 35 -82 69 -86 75 -4 5 -8 7 -8 3 0
-5 -18 10 -40 32 -22 22 -47 40 -56 40 -8 0 -12 5 -9 10 3 6 1 10 -4 10 -13 0
-61 41 -61 52 0 4 12 8 26 8 14 0 23 4 19 9 -3 6 -18 6 -37 -1 -24 -9 -33 -8
-36 0 -2 7 -12 12 -23 12 -16 0 -17 -3 -7 -26z"/>
<path d="M290 1082 c0 -5 9 -12 21 -15 11 -3 19 -11 18 -19 -4 -31 2 -48 17
-48 8 0 13 -4 10 -8 -3 -5 7 -7 22 -4 15 2 46 -1 70 -6 24 -6 42 -6 42 -1 0 5
-1 9 -2 10 -2 0 -23 2 -48 5 -25 3 -52 8 -60 11 -8 4 -18 7 -22 7 -28 4 -32
56 -5 56 29 0 18 6 -25 14 -22 4 -38 3 -38 -2z"/>
<path d="M1769 1063 c6 -21 13 -27 29 -25 12 2 22 -1 22 -7 0 -6 7 -8 16 -4
15 5 14 7 -1 16 -10 5 -26 18 -36 28 -27 27 -39 24 -30 -8z"/>
<path d="M711 1052 c-1 -20 -4 -21 -22 -12 -11 7 -23 9 -27 6 -3 -3 1 -6 9 -6
10 -1 9 -3 -3 -11 -10 -5 -18 -15 -18 -20 0 -6 7 -3 16 6 21 20 31 11 14 -12
-8 -10 -1 -6 14 8 18 17 26 33 23 45 -4 16 -5 15 -6 -4z"/>
<path d="M186 1045 c4 -9 8 -14 11 -11 2 2 30 -2 61 -9 31 -8 59 -12 61 -9 2
2 -10 7 -27 10 -18 4 -32 10 -32 15 0 4 -8 7 -17 7 -10 -1 -28 2 -40 6 -19 6
-22 4 -17 -9z"/>
<path d="M1753 999 c-7 -7 -13 -21 -13 -32 0 -10 -5 -15 -10 -12 -7 4 -8 -3
-4 -22 9 -36 14 -42 14 -15 0 14 6 22 16 22 13 0 14 3 5 14 -9 11 -9 15 0 18
6 2 10 12 8 21 -3 15 -6 16 -16 6z"/>
<path d="M1640 981 c0 -5 -9 -11 -20 -14 -12 -3 -20 -13 -19 -24 1 -16 2 -16
6 0 2 9 9 17 14 17 16 0 10 -26 -11 -50 -25 -29 -25 -33 1 -20 30 17 63 100
39 100 -5 0 -10 -4 -10 -9z"/>
<path d="M226 958 c7 -11 105 -41 112 -33 9 9 -19 25 -48 26 -23 0 -23 1 -5 8
14 6 8 8 -22 7 -23 0 -39 -4 -37 -8z"/>
<path d="M739 929 c-11 -7 -11 -9 4 -9 10 0 20 -7 23 -15 4 -8 16 -15 28 -15
21 1 21 1 1 12 -11 6 -25 16 -31 24 -7 8 -15 9 -25 3z"/>
<path d="M375 921 c64 -19 177 -43 181 -39 6 7 -113 38 -165 43 -38 4 -41 3
-16 -4z"/>
<path d="M1710 911 c0 -12 -4 -19 -10 -16 -5 3 -10 -1 -10 -9 0 -9 6 -16 14
-16 8 0 17 -6 20 -12 2 -7 3 4 1 26 -5 43 -15 62 -15 27z"/>
<path d="M290 871 c0 -6 8 -11 18 -11 9 0 42 -9 72 -21 30 -11 63 -23 72 -26
9 -3 24 -20 33 -39 17 -36 33 -50 43 -39 4 4 1 10 -5 12 -7 3 -13 11 -13 18 0
8 -8 19 -17 25 -14 9 -10 10 22 6 64 -9 116 -26 110 -36 -3 -6 1 -7 10 -4 9 4
13 10 8 14 -10 9 -97 37 -136 44 -16 3 -34 10 -41 15 -7 6 -15 9 -18 6 -3 -3
-25 3 -49 13 -61 26 -109 36 -109 23z"/>
<path d="M735 844 c-9 -14 -14 -28 -12 -31 3 -2 11 6 18 19 17 33 17 33 38 7
12 -14 20 -18 21 -11 0 15 -24 42 -38 42 -5 0 -17 -12 -27 -26z"/>
<path d="M650 852 c0 -7 4 -12 9 -12 5 0 12 -11 15 -25 7 -27 20 -32 32 -13 4
7 3 8 -4 4 -7 -4 -12 -1 -12 7 0 8 -9 22 -20 32 -11 10 -20 13 -20 7z"/>
<path d="M300 790 c0 -5 12 -13 28 -16 15 -4 32 -10 37 -14 21 -14 93 -39 99
-33 7 7 -25 25 -99 52 -64 24 -65 24 -65 11z"/>
<path d="M545 723 c4 -9 -2 -12 -22 -9 -15 2 -22 1 -15 -1 6 -2 12 -9 12 -14
0 -6 6 -9 13 -8 6 2 26 0 42 -4 17 -4 41 -9 54 -12 14 -2 28 -10 32 -16 9 -15
-4 -52 -21 -57 -7 -3 -10 -1 -7 4 3 5 -10 9 -28 10 -19 0 -32 -3 -29 -8 3 -4
12 -8 20 -8 8 0 13 -5 12 -11 -2 -6 3 -14 11 -17 8 -3 11 0 7 7 -5 7 1 11 13
11 12 0 21 5 21 10 0 6 7 10 15 10 8 0 15 -5 15 -11 0 -5 -4 -7 -10 -4 -5 3
-10 1 -10 -4 0 -6 13 -11 28 -11 15 0 33 -5 40 -12 9 -9 12 -8 12 5 0 12 -8
17 -26 17 -21 0 -24 3 -15 13 6 8 7 17 3 22 -4 4 0 5 8 3 8 -3 14 -10 13 -16
-3 -11 15 -11 35 1 17 11 6 26 -16 21 -9 -3 -26 2 -37 11 -20 16 -20 16 1 12
12 -3 28 -1 35 4 10 6 6 9 -13 9 -16 0 -28 6 -28 13 0 9 -2 9 -8 0 -7 -11 -65
-6 -58 6 2 3 -14 7 -36 8 -25 1 -45 8 -54 20 -9 10 -13 12 -9 6z m162 -98 c0
-31 -31 -10 -35 24 -2 23 -1 24 16 8 10 -10 19 -24 19 -32z"/>
<path d="M810 705 c-7 -8 -8 -15 -3 -15 6 0 20 -9 32 -19 13 -11 29 -17 37
-14 17 6 18 22 2 25 -7 0 -17 2 -23 3 -5 2 -16 3 -24 4 -7 1 -11 7 -7 16 3 8
4 15 2 15 -2 0 -9 -7 -16 -15z"/>
<path d="M377 693 c-9 -9 -9 -23 1 -21 4 1 20 -4 35 -10 16 -7 32 -12 37 -12
5 0 14 -8 19 -17 6 -10 11 -13 11 -5 0 9 8 9 36 -3 43 -18 44 -18 44 -5 0 6
-4 10 -9 10 -5 0 -22 5 -38 12 -15 6 -30 12 -33 13 -47 11 -68 19 -81 31 -9 8
-19 11 -22 7z"/>
<path d="M435 567 c11 -6 22 -12 25 -13 3 0 18 -6 33 -12 16 -7 35 -12 43 -12
8 0 12 -4 9 -10 -3 -6 1 -7 9 -4 10 4 16 1 16 -9 0 -9 4 -18 9 -21 5 -4 7 4 3
16 -3 13 -1 19 5 15 5 -3 25 -9 44 -12 19 -3 35 -10 37 -15 2 -5 9 -7 17 -4 7
3 16 1 20 -5 3 -6 0 -11 -7 -11 -8 0 -6 -5 5 -11 24 -14 34 -4 17 16 -10 12
-10 15 4 15 9 0 16 4 16 8 0 5 -7 9 -15 9 -8 0 -15 -5 -15 -11 0 -7 -4 -6 -8
1 -5 7 -21 15 -38 17 -59 10 -129 29 -142 39 -7 5 -15 7 -19 4 -3 -3 -18 0
-34 8 -33 18 -63 20 -34 2z"/>
<path d="M646 569 c3 -5 -2 -9 -12 -9 -13 0 -14 -3 -4 -15 16 -20 23 -19 37 4
10 16 9 20 -8 24 -10 3 -17 1 -13 -4z"/>
<path d="M705 560 c-4 -6 -3 -9 2 -8 4 2 8 -1 8 -7 0 -5 -9 -9 -19 -7 -11 1
-17 0 -13 -4 3 -4 21 -8 39 -10 21 -2 28 -1 20 5 -8 4 -13 11 -13 15 4 27 -11
37 -24 16z"/>
<path d="M1820 542 c0 -11 7 -22 15 -26 20 -7 19 -24 -1 -28 -16 -3 -32 -68
-17 -68 4 0 21 16 39 36 l33 35 -18 32 c-21 37 -51 49 -51 19z"/>
<path d="M643 393 c0 -8 6 -12 13 -9 8 3 11 0 8 -8 -3 -8 3 -16 14 -18 19 -5
19 -4 4 22 -16 28 -39 36 -39 13z"/>
<path d="M636 272 c-7 -11 17 -24 54 -28 14 -1 17 0 8 3 -10 2 -18 12 -18 21
0 15 -2 15 -10 2 -8 -12 -11 -13 -19 -1 -5 8 -11 9 -15 3z"/>
<path d="M1225 179 c-22 -3 47 -7 154 -8 107 0 192 1 189 4 -7 7 -298 11 -343
4z"/>
<path d="M1640 180 c-25 -4 5 -5 65 -2 61 2 112 6 114 8 7 7 -131 1 -179 -6z"/>
</g>
</svg>
